M48
; DRILL file {KiCad (5.1.9)-1} date 08/12/21 22:57:45
; FORMAT={-:-/ absolute / metric / decimal}
; #@! TF.CreationDate,2021-08-12T22:57:45-04:00
; #@! TF.GenerationSoftware,Kicad,Pcbnew,(5.1.9)-1
; #@! TF.FileFunction,Plated,1,4,PTH
FMAT,2
METRIC
T1C0.400
T2C0.600
T3C0.800
T4C0.950
T5C1.000
T6C1.100
T7C1.200
T8C1.300
T9C1.700
T10C2.000
T11C2.330
T12C2.670
T13C3.200
%
G90
G05
T1
X126.238Y-93.472
X135.89Y-105.918
X135.89Y-107.188
X135.89Y-97.536
X136.398Y-101.346
X137.885Y-96.15
X139.446Y-84.582
X139.7Y-127.0
X139.899Y-100.844
X140.716Y-80.772
X141.106Y-99.543
X144.573Y-104.093
X145.542Y-114.046
X146.812Y-114.046
X148.336Y-111.252
X149.86Y-114.3
X150.229Y-111.438
X151.384Y-98.298
X151.384Y-100.584
X157.734Y-85.852
X157.988Y-90.678
X158.75Y-71.374
X158.75Y-72.644
X158.75Y-73.914
X160.274Y-91.948
X161.544Y-77.216
X161.544Y-82.296
X161.544Y-92.964
X162.565Y-93.731
X163.068Y-97.79
X192.024Y-105.664
X192.024Y-91.44
X192.048Y-107.925
X192.278Y-92.964
X193.04Y-106.172
T2
X117.856Y-79.756
X117.856Y-81.788
X118.364Y-85.852
X119.888Y-85.852
X119.888Y-89.916
X121.412Y-85.852
X121.92Y-121.92
X122.428Y-82.296
X123.698Y-82.296
X124.481Y-95.525
X124.754Y-121.707
X124.968Y-82.296
X125.161Y-113.599
X126.238Y-72.136
X126.238Y-73.406
X126.238Y-109.22
X127.0Y-113.538
X127.0Y-115.824
X127.0Y-117.856
X127.0Y-119.888
X127.0Y-121.666
X127.508Y-72.136
X127.508Y-73.406
X128.524Y-88.9
X131.572Y-96.52
X131.572Y-107.887
X133.604Y-96.52
X133.604Y-107.887
X133.858Y-88.392
X135.382Y-88.392
X137.922Y-112.014
X137.922Y-114.3
X137.922Y-116.586
X140.716Y-88.392
X141.224Y-94.742
X142.494Y-106.172
X142.748Y-88.392
X142.748Y-110.49
X147.32Y-127.254
X147.574Y-91.948
X147.828Y-105.664
X149.352Y-91.948
X150.876Y-117.094
X151.384Y-86.868
X151.384Y-88.9
X151.638Y-103.632
X154.178Y-103.632
X156.972Y-101.346
X159.004Y-101.346
X162.56Y-106.426
X164.592Y-106.426
X165.037Y-94.488
X166.878Y-94.488
X166.878Y-98.552
X166.878Y-96.52
X174.498Y-114.808
X174.752Y-72.136
X174.752Y-74.168
X174.752Y-76.2
X174.752Y-78.232
X174.752Y-80.264
X174.752Y-82.296
X174.752Y-84.328
X174.752Y-86.36
X174.752Y-88.392
X174.752Y-90.424
X174.752Y-92.456
X174.752Y-94.488
X174.752Y-96.52
X174.752Y-98.552
X174.752Y-100.584
X174.752Y-102.616
X174.752Y-104.648
X174.752Y-106.68
X174.752Y-108.712
X174.752Y-110.744
X175.768Y-114.808
X178.816Y-72.136
X178.816Y-74.168
X178.816Y-76.2
X178.816Y-78.232
X178.816Y-80.264
X178.816Y-82.296
X178.816Y-84.328
X178.816Y-86.36
X178.816Y-88.392
X178.816Y-90.424
X178.816Y-92.456
X178.816Y-94.488
X178.816Y-96.52
X178.816Y-98.552
X178.816Y-100.584
X178.816Y-102.616
X178.816Y-104.648
X178.816Y-106.68
X178.816Y-108.712
X178.816Y-110.744
X187.452Y-89.408
X187.452Y-105.791
X187.96Y-94.996
X187.96Y-103.124
X193.04Y-94.996
X193.548Y-103.657
X196.596Y-88.392
T3
X132.08Y-112.468
X132.08Y-117.348
X164.592Y-78.74
X164.592Y-86.36
X167.132Y-78.74
X167.132Y-86.36
X169.672Y-78.74
X169.672Y-86.36
X172.212Y-78.74
X172.212Y-86.36
T4
X112.388Y-102.108
X114.84Y-113.832
X114.84Y-116.332
X114.888Y-102.108
X116.84Y-113.832
X116.84Y-116.332
X117.388Y-102.108
X119.888Y-102.108
T5
X122.428Y-69.596
X124.928Y-69.596
X147.828Y-71.12
X147.828Y-73.66
X147.828Y-76.2
X150.368Y-71.12
X150.368Y-73.66
X150.368Y-76.2
T6
X196.596Y-96.52
X196.596Y-99.06
X196.596Y-101.6
T7
X109.676Y-80.344
X109.676Y-85.344
X109.676Y-90.344
X112.276Y-82.844
X112.276Y-87.844
T8
X163.068Y-122.936
X163.068Y-127.936
T9
X175.26Y-125.984
X190.26Y-125.984
T11
X112.13Y-109.062
X112.13Y-121.102
T12
X200.66Y-86.36
X200.66Y-111.76
T13
X110.372Y-71.74
X110.372Y-126.74
X200.372Y-71.74
X200.372Y-126.74
T10
X113.026Y-77.244G85X112.526Y-77.244
G05
X113.026Y-93.444G85X112.526Y-93.444
G05
T0
M30
