G04 #@! TF.GenerationSoftware,KiCad,Pcbnew,(5.1.9)-1*
G04 #@! TF.CreationDate,2021-08-12T22:57:43-04:00*
G04 #@! TF.ProjectId,ElectronicLoad,456c6563-7472-46f6-9e69-634c6f61642e,A*
G04 #@! TF.SameCoordinates,Original*
G04 #@! TF.FileFunction,Soldermask,Bot*
G04 #@! TF.FilePolarity,Negative*
%FSLAX46Y46*%
G04 Gerber Fmt 4.6, Leading zero omitted, Abs format (unit mm)*
G04 Created by KiCad (PCBNEW (5.1.9)-1) date 2021-08-12 22:57:43*
%MOMM*%
%LPD*%
G01*
G04 APERTURE LIST*
%ADD10C,2.100000*%
%ADD11R,3.000000X2.500000*%
%ADD12O,2.000000X1.905000*%
%ADD13R,2.000000X1.905000*%
%ADD14C,3.000000*%
%ADD15C,3.686000*%
%ADD16C,5.700000*%
%ADD17O,1.600000X2.400000*%
%ADD18R,1.600000X2.400000*%
%ADD19O,1.700000X1.950000*%
%ADD20O,1.700000X2.000000*%
%ADD21C,1.500000*%
%ADD22C,0.990600*%
%ADD23O,1.700000X1.700000*%
%ADD24R,1.700000X1.700000*%
%ADD25C,3.500000*%
%ADD26C,1.700000*%
%ADD27C,2.600000*%
%ADD28R,2.600000X2.600000*%
G04 APERTURE END LIST*
D10*
X109676000Y-80344000D03*
X109676000Y-90344000D03*
X109676000Y-85344000D03*
D11*
X112776000Y-93444000D03*
X112776000Y-77244000D03*
D10*
X112276000Y-82844000D03*
X112276000Y-87844000D03*
D12*
X196596000Y-101600000D03*
X196596000Y-99060000D03*
D13*
X196596000Y-96520000D03*
D14*
X190260000Y-125984000D03*
X175260000Y-125984000D03*
D15*
X200660000Y-86360000D03*
X200660000Y-111760000D03*
D16*
X110372000Y-126740000D03*
X200372000Y-126740000D03*
X200372000Y-71740000D03*
X110372000Y-71740000D03*
D17*
X164592000Y-78740000D03*
X172212000Y-86360000D03*
X167132000Y-78740000D03*
X169672000Y-86360000D03*
X169672000Y-78740000D03*
X167132000Y-86360000D03*
X172212000Y-78740000D03*
D18*
X164592000Y-86360000D03*
D19*
X112388000Y-102108000D03*
X114888000Y-102108000D03*
X117388000Y-102108000D03*
G36*
G01*
X120738000Y-101383000D02*
X120738000Y-102833000D01*
G75*
G02*
X120488000Y-103083000I-250000J0D01*
G01*
X119288000Y-103083000D01*
G75*
G02*
X119038000Y-102833000I0J250000D01*
G01*
X119038000Y-101383000D01*
G75*
G02*
X119288000Y-101133000I250000J0D01*
G01*
X120488000Y-101133000D01*
G75*
G02*
X120738000Y-101383000I0J-250000D01*
G01*
G37*
D20*
X124928000Y-69596000D03*
G36*
G01*
X121578000Y-70346000D02*
X121578000Y-68846000D01*
G75*
G02*
X121828000Y-68596000I250000J0D01*
G01*
X123028000Y-68596000D01*
G75*
G02*
X123278000Y-68846000I0J-250000D01*
G01*
X123278000Y-70346000D01*
G75*
G02*
X123028000Y-70596000I-250000J0D01*
G01*
X121828000Y-70596000D01*
G75*
G02*
X121578000Y-70346000I0J250000D01*
G01*
G37*
D21*
X132080000Y-112468000D03*
X132080000Y-117348000D03*
D22*
X156464000Y-70104000D03*
X155448000Y-75184000D03*
X157480000Y-75184000D03*
D23*
X150368000Y-76200000D03*
X147828000Y-76200000D03*
X150368000Y-73660000D03*
X147828000Y-73660000D03*
X150368000Y-71120000D03*
D24*
X147828000Y-71120000D03*
D25*
X112130000Y-109062000D03*
X112130000Y-121102000D03*
D26*
X114840000Y-116332000D03*
X114840000Y-113832000D03*
X116840000Y-113832000D03*
D24*
X116840000Y-116332000D03*
D27*
X163068000Y-127936000D03*
D28*
X163068000Y-122936000D03*
M02*
