G04 #@! TF.GenerationSoftware,KiCad,Pcbnew,(5.1.9)-1*
G04 #@! TF.CreationDate,2021-08-12T22:27:46-04:00*
G04 #@! TF.ProjectId,ElectronicLoad,456c6563-7472-46f6-9e69-634c6f61642e,A*
G04 #@! TF.SameCoordinates,Original*
G04 #@! TF.FileFunction,Soldermask,Top*
G04 #@! TF.FilePolarity,Negative*
%FSLAX46Y46*%
G04 Gerber Fmt 4.6, Leading zero omitted, Abs format (unit mm)*
G04 Created by KiCad (PCBNEW (5.1.9)-1) date 2021-08-12 22:27:46*
%MOMM*%
%LPD*%
G01*
G04 APERTURE LIST*
%ADD10C,2.100000*%
%ADD11R,3.000000X2.500000*%
%ADD12R,2.500000X2.300000*%
%ADD13O,2.000000X1.905000*%
%ADD14R,2.000000X1.905000*%
%ADD15C,3.000000*%
%ADD16C,3.686000*%
%ADD17C,5.700000*%
%ADD18R,0.900000X0.900000*%
%ADD19O,1.600000X2.400000*%
%ADD20R,1.600000X2.400000*%
%ADD21R,1.550000X1.300000*%
%ADD22O,1.700000X1.950000*%
%ADD23O,1.700000X2.000000*%
%ADD24R,0.900000X0.800000*%
%ADD25R,1.300000X1.700000*%
%ADD26R,1.220000X0.650000*%
%ADD27R,1.700000X1.300000*%
%ADD28C,1.500000*%
%ADD29C,0.787400*%
%ADD30C,0.990600*%
%ADD31O,1.700000X1.700000*%
%ADD32R,1.700000X1.700000*%
%ADD33C,3.500000*%
%ADD34C,1.700000*%
%ADD35R,0.550000X1.500000*%
%ADD36R,1.500000X0.550000*%
%ADD37R,1.560000X0.650000*%
%ADD38R,0.650000X1.560000*%
%ADD39C,2.600000*%
%ADD40R,2.600000X2.600000*%
G04 APERTURE END LIST*
D10*
X109676000Y-80344000D03*
X109676000Y-90344000D03*
X109676000Y-85344000D03*
D11*
X112776000Y-93644000D03*
X112776000Y-77044000D03*
D10*
X112276000Y-82844000D03*
X112276000Y-87844000D03*
G36*
G01*
X153612000Y-105885000D02*
X153612000Y-104935000D01*
G75*
G02*
X153862000Y-104685000I250000J0D01*
G01*
X154537000Y-104685000D01*
G75*
G02*
X154787000Y-104935000I0J-250000D01*
G01*
X154787000Y-105885000D01*
G75*
G02*
X154537000Y-106135000I-250000J0D01*
G01*
X153862000Y-106135000D01*
G75*
G02*
X153612000Y-105885000I0J250000D01*
G01*
G37*
G36*
G01*
X151537000Y-105885000D02*
X151537000Y-104935000D01*
G75*
G02*
X151787000Y-104685000I250000J0D01*
G01*
X152462000Y-104685000D01*
G75*
G02*
X152712000Y-104935000I0J-250000D01*
G01*
X152712000Y-105885000D01*
G75*
G02*
X152462000Y-106135000I-250000J0D01*
G01*
X151787000Y-106135000D01*
G75*
G02*
X151537000Y-105885000I0J250000D01*
G01*
G37*
G36*
G01*
X166227997Y-117232000D02*
X167528003Y-117232000D01*
G75*
G02*
X167778000Y-117481997I0J-249997D01*
G01*
X167778000Y-118307003D01*
G75*
G02*
X167528003Y-118557000I-249997J0D01*
G01*
X166227997Y-118557000D01*
G75*
G02*
X165978000Y-118307003I0J249997D01*
G01*
X165978000Y-117481997D01*
G75*
G02*
X166227997Y-117232000I249997J0D01*
G01*
G37*
G36*
G01*
X166227997Y-114107000D02*
X167528003Y-114107000D01*
G75*
G02*
X167778000Y-114356997I0J-249997D01*
G01*
X167778000Y-115182003D01*
G75*
G02*
X167528003Y-115432000I-249997J0D01*
G01*
X166227997Y-115432000D01*
G75*
G02*
X165978000Y-115182003I0J249997D01*
G01*
X165978000Y-114356997D01*
G75*
G02*
X166227997Y-114107000I249997J0D01*
G01*
G37*
G36*
G01*
X122544000Y-119237997D02*
X122544000Y-120538003D01*
G75*
G02*
X122294003Y-120788000I-249997J0D01*
G01*
X121468997Y-120788000D01*
G75*
G02*
X121219000Y-120538003I0J249997D01*
G01*
X121219000Y-119237997D01*
G75*
G02*
X121468997Y-118988000I249997J0D01*
G01*
X122294003Y-118988000D01*
G75*
G02*
X122544000Y-119237997I0J-249997D01*
G01*
G37*
G36*
G01*
X125669000Y-119237997D02*
X125669000Y-120538003D01*
G75*
G02*
X125419003Y-120788000I-249997J0D01*
G01*
X124593997Y-120788000D01*
G75*
G02*
X124344000Y-120538003I0J249997D01*
G01*
X124344000Y-119237997D01*
G75*
G02*
X124593997Y-118988000I249997J0D01*
G01*
X125419003Y-118988000D01*
G75*
G02*
X125669000Y-119237997I0J-249997D01*
G01*
G37*
G36*
G01*
X164026000Y-104869000D02*
X164026000Y-103919000D01*
G75*
G02*
X164276000Y-103669000I250000J0D01*
G01*
X164951000Y-103669000D01*
G75*
G02*
X165201000Y-103919000I0J-250000D01*
G01*
X165201000Y-104869000D01*
G75*
G02*
X164951000Y-105119000I-250000J0D01*
G01*
X164276000Y-105119000D01*
G75*
G02*
X164026000Y-104869000I0J250000D01*
G01*
G37*
G36*
G01*
X161951000Y-104869000D02*
X161951000Y-103919000D01*
G75*
G02*
X162201000Y-103669000I250000J0D01*
G01*
X162876000Y-103669000D01*
G75*
G02*
X163126000Y-103919000I0J-250000D01*
G01*
X163126000Y-104869000D01*
G75*
G02*
X162876000Y-105119000I-250000J0D01*
G01*
X162201000Y-105119000D01*
G75*
G02*
X161951000Y-104869000I0J250000D01*
G01*
G37*
G36*
G01*
X157538000Y-99093000D02*
X157538000Y-100043000D01*
G75*
G02*
X157288000Y-100293000I-250000J0D01*
G01*
X156613000Y-100293000D01*
G75*
G02*
X156363000Y-100043000I0J250000D01*
G01*
X156363000Y-99093000D01*
G75*
G02*
X156613000Y-98843000I250000J0D01*
G01*
X157288000Y-98843000D01*
G75*
G02*
X157538000Y-99093000I0J-250000D01*
G01*
G37*
G36*
G01*
X159613000Y-99093000D02*
X159613000Y-100043000D01*
G75*
G02*
X159363000Y-100293000I-250000J0D01*
G01*
X158688000Y-100293000D01*
G75*
G02*
X158438000Y-100043000I0J250000D01*
G01*
X158438000Y-99093000D01*
G75*
G02*
X158688000Y-98843000I250000J0D01*
G01*
X159363000Y-98843000D01*
G75*
G02*
X159613000Y-99093000I0J-250000D01*
G01*
G37*
D12*
X184014000Y-116840000D03*
X179714000Y-116840000D03*
G36*
G01*
X120338001Y-79356000D02*
X119437999Y-79356000D01*
G75*
G02*
X119188000Y-79106001I0J249999D01*
G01*
X119188000Y-78405999D01*
G75*
G02*
X119437999Y-78156000I249999J0D01*
G01*
X120338001Y-78156000D01*
G75*
G02*
X120588000Y-78405999I0J-249999D01*
G01*
X120588000Y-79106001D01*
G75*
G02*
X120338001Y-79356000I-249999J0D01*
G01*
G37*
G36*
G01*
X120338001Y-81356000D02*
X119437999Y-81356000D01*
G75*
G02*
X119188000Y-81106001I0J249999D01*
G01*
X119188000Y-80405999D01*
G75*
G02*
X119437999Y-80156000I249999J0D01*
G01*
X120338001Y-80156000D01*
G75*
G02*
X120588000Y-80405999I0J-249999D01*
G01*
X120588000Y-81106001D01*
G75*
G02*
X120338001Y-81356000I-249999J0D01*
G01*
G37*
G36*
G01*
X121953000Y-80206000D02*
X122903000Y-80206000D01*
G75*
G02*
X123153000Y-80456000I0J-250000D01*
G01*
X123153000Y-81131000D01*
G75*
G02*
X122903000Y-81381000I-250000J0D01*
G01*
X121953000Y-81381000D01*
G75*
G02*
X121703000Y-81131000I0J250000D01*
G01*
X121703000Y-80456000D01*
G75*
G02*
X121953000Y-80206000I250000J0D01*
G01*
G37*
G36*
G01*
X121953000Y-78131000D02*
X122903000Y-78131000D01*
G75*
G02*
X123153000Y-78381000I0J-250000D01*
G01*
X123153000Y-79056000D01*
G75*
G02*
X122903000Y-79306000I-250000J0D01*
G01*
X121953000Y-79306000D01*
G75*
G02*
X121703000Y-79056000I0J250000D01*
G01*
X121703000Y-78381000D01*
G75*
G02*
X121953000Y-78131000I250000J0D01*
G01*
G37*
D13*
X196596000Y-101600000D03*
X196596000Y-99060000D03*
D14*
X196596000Y-96520000D03*
D15*
X190260000Y-125984000D03*
X175260000Y-125984000D03*
D16*
X200660000Y-86360000D03*
X200660000Y-111760000D03*
G36*
G01*
X190324000Y-109451000D02*
X190324000Y-109751000D01*
G75*
G02*
X190174000Y-109901000I-150000J0D01*
G01*
X188724000Y-109901000D01*
G75*
G02*
X188574000Y-109751000I0J150000D01*
G01*
X188574000Y-109451000D01*
G75*
G02*
X188724000Y-109301000I150000J0D01*
G01*
X190174000Y-109301000D01*
G75*
G02*
X190324000Y-109451000I0J-150000D01*
G01*
G37*
G36*
G01*
X190324000Y-108181000D02*
X190324000Y-108481000D01*
G75*
G02*
X190174000Y-108631000I-150000J0D01*
G01*
X188724000Y-108631000D01*
G75*
G02*
X188574000Y-108481000I0J150000D01*
G01*
X188574000Y-108181000D01*
G75*
G02*
X188724000Y-108031000I150000J0D01*
G01*
X190174000Y-108031000D01*
G75*
G02*
X190324000Y-108181000I0J-150000D01*
G01*
G37*
G36*
G01*
X190324000Y-106911000D02*
X190324000Y-107211000D01*
G75*
G02*
X190174000Y-107361000I-150000J0D01*
G01*
X188724000Y-107361000D01*
G75*
G02*
X188574000Y-107211000I0J150000D01*
G01*
X188574000Y-106911000D01*
G75*
G02*
X188724000Y-106761000I150000J0D01*
G01*
X190174000Y-106761000D01*
G75*
G02*
X190324000Y-106911000I0J-150000D01*
G01*
G37*
G36*
G01*
X190324000Y-105641000D02*
X190324000Y-105941000D01*
G75*
G02*
X190174000Y-106091000I-150000J0D01*
G01*
X188724000Y-106091000D01*
G75*
G02*
X188574000Y-105941000I0J150000D01*
G01*
X188574000Y-105641000D01*
G75*
G02*
X188724000Y-105491000I150000J0D01*
G01*
X190174000Y-105491000D01*
G75*
G02*
X190324000Y-105641000I0J-150000D01*
G01*
G37*
G36*
G01*
X195474000Y-105641000D02*
X195474000Y-105941000D01*
G75*
G02*
X195324000Y-106091000I-150000J0D01*
G01*
X193874000Y-106091000D01*
G75*
G02*
X193724000Y-105941000I0J150000D01*
G01*
X193724000Y-105641000D01*
G75*
G02*
X193874000Y-105491000I150000J0D01*
G01*
X195324000Y-105491000D01*
G75*
G02*
X195474000Y-105641000I0J-150000D01*
G01*
G37*
G36*
G01*
X195474000Y-106911000D02*
X195474000Y-107211000D01*
G75*
G02*
X195324000Y-107361000I-150000J0D01*
G01*
X193874000Y-107361000D01*
G75*
G02*
X193724000Y-107211000I0J150000D01*
G01*
X193724000Y-106911000D01*
G75*
G02*
X193874000Y-106761000I150000J0D01*
G01*
X195324000Y-106761000D01*
G75*
G02*
X195474000Y-106911000I0J-150000D01*
G01*
G37*
G36*
G01*
X195474000Y-108181000D02*
X195474000Y-108481000D01*
G75*
G02*
X195324000Y-108631000I-150000J0D01*
G01*
X193874000Y-108631000D01*
G75*
G02*
X193724000Y-108481000I0J150000D01*
G01*
X193724000Y-108181000D01*
G75*
G02*
X193874000Y-108031000I150000J0D01*
G01*
X195324000Y-108031000D01*
G75*
G02*
X195474000Y-108181000I0J-150000D01*
G01*
G37*
G36*
G01*
X195474000Y-109451000D02*
X195474000Y-109751000D01*
G75*
G02*
X195324000Y-109901000I-150000J0D01*
G01*
X193874000Y-109901000D01*
G75*
G02*
X193724000Y-109751000I0J150000D01*
G01*
X193724000Y-109451000D01*
G75*
G02*
X193874000Y-109301000I150000J0D01*
G01*
X195324000Y-109301000D01*
G75*
G02*
X195474000Y-109451000I0J-150000D01*
G01*
G37*
G36*
G01*
X190950000Y-103599000D02*
X190950000Y-102649000D01*
G75*
G02*
X191200000Y-102399000I250000J0D01*
G01*
X191875000Y-102399000D01*
G75*
G02*
X192125000Y-102649000I0J-250000D01*
G01*
X192125000Y-103599000D01*
G75*
G02*
X191875000Y-103849000I-250000J0D01*
G01*
X191200000Y-103849000D01*
G75*
G02*
X190950000Y-103599000I0J250000D01*
G01*
G37*
G36*
G01*
X188875000Y-103599000D02*
X188875000Y-102649000D01*
G75*
G02*
X189125000Y-102399000I250000J0D01*
G01*
X189800000Y-102399000D01*
G75*
G02*
X190050000Y-102649000I0J-250000D01*
G01*
X190050000Y-103599000D01*
G75*
G02*
X189800000Y-103849000I-250000J0D01*
G01*
X189125000Y-103849000D01*
G75*
G02*
X188875000Y-103599000I0J250000D01*
G01*
G37*
D17*
X110372000Y-126740000D03*
X200372000Y-126740000D03*
X200372000Y-71740000D03*
X110372000Y-71740000D03*
D18*
X148184000Y-115800000D03*
X146844000Y-115800000D03*
X150844000Y-115800000D03*
X149504000Y-115800000D03*
X148184000Y-112800000D03*
X149504000Y-112800000D03*
X146844000Y-112800000D03*
X150844000Y-112800000D03*
G36*
G01*
X133038001Y-90532000D02*
X132137999Y-90532000D01*
G75*
G02*
X131888000Y-90282001I0J249999D01*
G01*
X131888000Y-89581999D01*
G75*
G02*
X132137999Y-89332000I249999J0D01*
G01*
X133038001Y-89332000D01*
G75*
G02*
X133288000Y-89581999I0J-249999D01*
G01*
X133288000Y-90282001D01*
G75*
G02*
X133038001Y-90532000I-249999J0D01*
G01*
G37*
G36*
G01*
X133038001Y-92532000D02*
X132137999Y-92532000D01*
G75*
G02*
X131888000Y-92282001I0J249999D01*
G01*
X131888000Y-91581999D01*
G75*
G02*
X132137999Y-91332000I249999J0D01*
G01*
X133038001Y-91332000D01*
G75*
G02*
X133288000Y-91581999I0J-249999D01*
G01*
X133288000Y-92282001D01*
G75*
G02*
X133038001Y-92532000I-249999J0D01*
G01*
G37*
G36*
G01*
X122461000Y-94938000D02*
X123411000Y-94938000D01*
G75*
G02*
X123661000Y-95188000I0J-250000D01*
G01*
X123661000Y-95863000D01*
G75*
G02*
X123411000Y-96113000I-250000J0D01*
G01*
X122461000Y-96113000D01*
G75*
G02*
X122211000Y-95863000I0J250000D01*
G01*
X122211000Y-95188000D01*
G75*
G02*
X122461000Y-94938000I250000J0D01*
G01*
G37*
G36*
G01*
X122461000Y-92863000D02*
X123411000Y-92863000D01*
G75*
G02*
X123661000Y-93113000I0J-250000D01*
G01*
X123661000Y-93788000D01*
G75*
G02*
X123411000Y-94038000I-250000J0D01*
G01*
X122461000Y-94038000D01*
G75*
G02*
X122211000Y-93788000I0J250000D01*
G01*
X122211000Y-93113000D01*
G75*
G02*
X122461000Y-92863000I250000J0D01*
G01*
G37*
X119898000Y-91366000D03*
X118558000Y-91366000D03*
X122558000Y-91366000D03*
X121218000Y-91366000D03*
X119898000Y-88366000D03*
X121218000Y-88366000D03*
X118558000Y-88366000D03*
X122558000Y-88366000D03*
G36*
G01*
X118397000Y-94938000D02*
X119347000Y-94938000D01*
G75*
G02*
X119597000Y-95188000I0J-250000D01*
G01*
X119597000Y-95863000D01*
G75*
G02*
X119347000Y-96113000I-250000J0D01*
G01*
X118397000Y-96113000D01*
G75*
G02*
X118147000Y-95863000I0J250000D01*
G01*
X118147000Y-95188000D01*
G75*
G02*
X118397000Y-94938000I250000J0D01*
G01*
G37*
G36*
G01*
X118397000Y-92863000D02*
X119347000Y-92863000D01*
G75*
G02*
X119597000Y-93113000I0J-250000D01*
G01*
X119597000Y-93788000D01*
G75*
G02*
X119347000Y-94038000I-250000J0D01*
G01*
X118397000Y-94038000D01*
G75*
G02*
X118147000Y-93788000I0J250000D01*
G01*
X118147000Y-93113000D01*
G75*
G02*
X118397000Y-92863000I250000J0D01*
G01*
G37*
G36*
G01*
X120429000Y-94938000D02*
X121379000Y-94938000D01*
G75*
G02*
X121629000Y-95188000I0J-250000D01*
G01*
X121629000Y-95863000D01*
G75*
G02*
X121379000Y-96113000I-250000J0D01*
G01*
X120429000Y-96113000D01*
G75*
G02*
X120179000Y-95863000I0J250000D01*
G01*
X120179000Y-95188000D01*
G75*
G02*
X120429000Y-94938000I250000J0D01*
G01*
G37*
G36*
G01*
X120429000Y-92863000D02*
X121379000Y-92863000D01*
G75*
G02*
X121629000Y-93113000I0J-250000D01*
G01*
X121629000Y-93788000D01*
G75*
G02*
X121379000Y-94038000I-250000J0D01*
G01*
X120429000Y-94038000D01*
G75*
G02*
X120179000Y-93788000I0J250000D01*
G01*
X120179000Y-93113000D01*
G75*
G02*
X120429000Y-92863000I250000J0D01*
G01*
G37*
G36*
G01*
X169564000Y-99002001D02*
X169564000Y-98101999D01*
G75*
G02*
X169813999Y-97852000I249999J0D01*
G01*
X170514001Y-97852000D01*
G75*
G02*
X170764000Y-98101999I0J-249999D01*
G01*
X170764000Y-99002001D01*
G75*
G02*
X170514001Y-99252000I-249999J0D01*
G01*
X169813999Y-99252000D01*
G75*
G02*
X169564000Y-99002001I0J249999D01*
G01*
G37*
G36*
G01*
X167564000Y-99002001D02*
X167564000Y-98101999D01*
G75*
G02*
X167813999Y-97852000I249999J0D01*
G01*
X168514001Y-97852000D01*
G75*
G02*
X168764000Y-98101999I0J-249999D01*
G01*
X168764000Y-99002001D01*
G75*
G02*
X168514001Y-99252000I-249999J0D01*
G01*
X167813999Y-99252000D01*
G75*
G02*
X167564000Y-99002001I0J249999D01*
G01*
G37*
G36*
G01*
X190950000Y-95471000D02*
X190950000Y-94521000D01*
G75*
G02*
X191200000Y-94271000I250000J0D01*
G01*
X191875000Y-94271000D01*
G75*
G02*
X192125000Y-94521000I0J-250000D01*
G01*
X192125000Y-95471000D01*
G75*
G02*
X191875000Y-95721000I-250000J0D01*
G01*
X191200000Y-95721000D01*
G75*
G02*
X190950000Y-95471000I0J250000D01*
G01*
G37*
G36*
G01*
X188875000Y-95471000D02*
X188875000Y-94521000D01*
G75*
G02*
X189125000Y-94271000I250000J0D01*
G01*
X189800000Y-94271000D01*
G75*
G02*
X190050000Y-94521000I0J-250000D01*
G01*
X190050000Y-95471000D01*
G75*
G02*
X189800000Y-95721000I-250000J0D01*
G01*
X189125000Y-95721000D01*
G75*
G02*
X188875000Y-95471000I0J250000D01*
G01*
G37*
G36*
G01*
X172662001Y-115424000D02*
X171761999Y-115424000D01*
G75*
G02*
X171512000Y-115174001I0J249999D01*
G01*
X171512000Y-114473999D01*
G75*
G02*
X171761999Y-114224000I249999J0D01*
G01*
X172662001Y-114224000D01*
G75*
G02*
X172912000Y-114473999I0J-249999D01*
G01*
X172912000Y-115174001D01*
G75*
G02*
X172662001Y-115424000I-249999J0D01*
G01*
G37*
G36*
G01*
X172662001Y-117424000D02*
X171761999Y-117424000D01*
G75*
G02*
X171512000Y-117174001I0J249999D01*
G01*
X171512000Y-116473999D01*
G75*
G02*
X171761999Y-116224000I249999J0D01*
G01*
X172662001Y-116224000D01*
G75*
G02*
X172912000Y-116473999I0J-249999D01*
G01*
X172912000Y-117174001D01*
G75*
G02*
X172662001Y-117424000I-249999J0D01*
G01*
G37*
G36*
G01*
X190324000Y-92179000D02*
X190324000Y-92479000D01*
G75*
G02*
X190174000Y-92629000I-150000J0D01*
G01*
X188724000Y-92629000D01*
G75*
G02*
X188574000Y-92479000I0J150000D01*
G01*
X188574000Y-92179000D01*
G75*
G02*
X188724000Y-92029000I150000J0D01*
G01*
X190174000Y-92029000D01*
G75*
G02*
X190324000Y-92179000I0J-150000D01*
G01*
G37*
G36*
G01*
X190324000Y-90909000D02*
X190324000Y-91209000D01*
G75*
G02*
X190174000Y-91359000I-150000J0D01*
G01*
X188724000Y-91359000D01*
G75*
G02*
X188574000Y-91209000I0J150000D01*
G01*
X188574000Y-90909000D01*
G75*
G02*
X188724000Y-90759000I150000J0D01*
G01*
X190174000Y-90759000D01*
G75*
G02*
X190324000Y-90909000I0J-150000D01*
G01*
G37*
G36*
G01*
X190324000Y-89639000D02*
X190324000Y-89939000D01*
G75*
G02*
X190174000Y-90089000I-150000J0D01*
G01*
X188724000Y-90089000D01*
G75*
G02*
X188574000Y-89939000I0J150000D01*
G01*
X188574000Y-89639000D01*
G75*
G02*
X188724000Y-89489000I150000J0D01*
G01*
X190174000Y-89489000D01*
G75*
G02*
X190324000Y-89639000I0J-150000D01*
G01*
G37*
G36*
G01*
X190324000Y-88369000D02*
X190324000Y-88669000D01*
G75*
G02*
X190174000Y-88819000I-150000J0D01*
G01*
X188724000Y-88819000D01*
G75*
G02*
X188574000Y-88669000I0J150000D01*
G01*
X188574000Y-88369000D01*
G75*
G02*
X188724000Y-88219000I150000J0D01*
G01*
X190174000Y-88219000D01*
G75*
G02*
X190324000Y-88369000I0J-150000D01*
G01*
G37*
G36*
G01*
X195474000Y-88369000D02*
X195474000Y-88669000D01*
G75*
G02*
X195324000Y-88819000I-150000J0D01*
G01*
X193874000Y-88819000D01*
G75*
G02*
X193724000Y-88669000I0J150000D01*
G01*
X193724000Y-88369000D01*
G75*
G02*
X193874000Y-88219000I150000J0D01*
G01*
X195324000Y-88219000D01*
G75*
G02*
X195474000Y-88369000I0J-150000D01*
G01*
G37*
G36*
G01*
X195474000Y-89639000D02*
X195474000Y-89939000D01*
G75*
G02*
X195324000Y-90089000I-150000J0D01*
G01*
X193874000Y-90089000D01*
G75*
G02*
X193724000Y-89939000I0J150000D01*
G01*
X193724000Y-89639000D01*
G75*
G02*
X193874000Y-89489000I150000J0D01*
G01*
X195324000Y-89489000D01*
G75*
G02*
X195474000Y-89639000I0J-150000D01*
G01*
G37*
G36*
G01*
X195474000Y-90909000D02*
X195474000Y-91209000D01*
G75*
G02*
X195324000Y-91359000I-150000J0D01*
G01*
X193874000Y-91359000D01*
G75*
G02*
X193724000Y-91209000I0J150000D01*
G01*
X193724000Y-90909000D01*
G75*
G02*
X193874000Y-90759000I150000J0D01*
G01*
X195324000Y-90759000D01*
G75*
G02*
X195474000Y-90909000I0J-150000D01*
G01*
G37*
G36*
G01*
X195474000Y-92179000D02*
X195474000Y-92479000D01*
G75*
G02*
X195324000Y-92629000I-150000J0D01*
G01*
X193874000Y-92629000D01*
G75*
G02*
X193724000Y-92479000I0J150000D01*
G01*
X193724000Y-92179000D01*
G75*
G02*
X193874000Y-92029000I150000J0D01*
G01*
X195324000Y-92029000D01*
G75*
G02*
X195474000Y-92179000I0J-150000D01*
G01*
G37*
D19*
X164592000Y-78740000D03*
X172212000Y-86360000D03*
X167132000Y-78740000D03*
X169672000Y-86360000D03*
X169672000Y-78740000D03*
X167132000Y-86360000D03*
X172212000Y-78740000D03*
D20*
X164592000Y-86360000D03*
D21*
X141140000Y-74386000D03*
X141140000Y-69886000D03*
X133180000Y-69886000D03*
X133180000Y-74386000D03*
X133180000Y-79030000D03*
X133180000Y-83530000D03*
X141140000Y-83530000D03*
X141140000Y-79030000D03*
D22*
X112388000Y-102108000D03*
X114888000Y-102108000D03*
X117388000Y-102108000D03*
G36*
G01*
X120738000Y-101383000D02*
X120738000Y-102833000D01*
G75*
G02*
X120488000Y-103083000I-250000J0D01*
G01*
X119288000Y-103083000D01*
G75*
G02*
X119038000Y-102833000I0J250000D01*
G01*
X119038000Y-101383000D01*
G75*
G02*
X119288000Y-101133000I250000J0D01*
G01*
X120488000Y-101133000D01*
G75*
G02*
X120738000Y-101383000I0J-250000D01*
G01*
G37*
G36*
G01*
X147864500Y-93251000D02*
X147864500Y-94201000D01*
G75*
G02*
X147614500Y-94451000I-250000J0D01*
G01*
X146939500Y-94451000D01*
G75*
G02*
X146689500Y-94201000I0J250000D01*
G01*
X146689500Y-93251000D01*
G75*
G02*
X146939500Y-93001000I250000J0D01*
G01*
X147614500Y-93001000D01*
G75*
G02*
X147864500Y-93251000I0J-250000D01*
G01*
G37*
G36*
G01*
X149939500Y-93251000D02*
X149939500Y-94201000D01*
G75*
G02*
X149689500Y-94451000I-250000J0D01*
G01*
X149014500Y-94451000D01*
G75*
G02*
X148764500Y-94201000I0J250000D01*
G01*
X148764500Y-93251000D01*
G75*
G02*
X149014500Y-93001000I250000J0D01*
G01*
X149689500Y-93001000D01*
G75*
G02*
X149939500Y-93251000I0J-250000D01*
G01*
G37*
G36*
G01*
X124517999Y-80156000D02*
X125418001Y-80156000D01*
G75*
G02*
X125668000Y-80405999I0J-249999D01*
G01*
X125668000Y-81106001D01*
G75*
G02*
X125418001Y-81356000I-249999J0D01*
G01*
X124517999Y-81356000D01*
G75*
G02*
X124268000Y-81106001I0J249999D01*
G01*
X124268000Y-80405999D01*
G75*
G02*
X124517999Y-80156000I249999J0D01*
G01*
G37*
G36*
G01*
X124517999Y-78156000D02*
X125418001Y-78156000D01*
G75*
G02*
X125668000Y-78405999I0J-249999D01*
G01*
X125668000Y-79106001D01*
G75*
G02*
X125418001Y-79356000I-249999J0D01*
G01*
X124517999Y-79356000D01*
G75*
G02*
X124268000Y-79106001I0J249999D01*
G01*
X124268000Y-78405999D01*
G75*
G02*
X124517999Y-78156000I249999J0D01*
G01*
G37*
G36*
G01*
X127958001Y-79356000D02*
X127057999Y-79356000D01*
G75*
G02*
X126808000Y-79106001I0J249999D01*
G01*
X126808000Y-78405999D01*
G75*
G02*
X127057999Y-78156000I249999J0D01*
G01*
X127958001Y-78156000D01*
G75*
G02*
X128208000Y-78405999I0J-249999D01*
G01*
X128208000Y-79106001D01*
G75*
G02*
X127958001Y-79356000I-249999J0D01*
G01*
G37*
G36*
G01*
X127958001Y-81356000D02*
X127057999Y-81356000D01*
G75*
G02*
X126808000Y-81106001I0J249999D01*
G01*
X126808000Y-80405999D01*
G75*
G02*
X127057999Y-80156000I249999J0D01*
G01*
X127958001Y-80156000D01*
G75*
G02*
X128208000Y-80405999I0J-249999D01*
G01*
X128208000Y-81106001D01*
G75*
G02*
X127958001Y-81356000I-249999J0D01*
G01*
G37*
D23*
X124928000Y-69596000D03*
G36*
G01*
X121578000Y-70346000D02*
X121578000Y-68846000D01*
G75*
G02*
X121828000Y-68596000I250000J0D01*
G01*
X123028000Y-68596000D01*
G75*
G02*
X123278000Y-68846000I0J-250000D01*
G01*
X123278000Y-70346000D01*
G75*
G02*
X123028000Y-70596000I-250000J0D01*
G01*
X121828000Y-70596000D01*
G75*
G02*
X121578000Y-70346000I0J250000D01*
G01*
G37*
D24*
X125492000Y-75692000D03*
X127492000Y-74742000D03*
X127492000Y-76642000D03*
D25*
X123162000Y-76200000D03*
X119662000Y-76200000D03*
D26*
X121626000Y-110170000D03*
X121626000Y-109220000D03*
X121626000Y-108270000D03*
X124246000Y-108270000D03*
X124246000Y-109220000D03*
X124246000Y-110170000D03*
D27*
X130302000Y-92428000D03*
X130302000Y-88928000D03*
G36*
G01*
X136201999Y-91332000D02*
X137102001Y-91332000D01*
G75*
G02*
X137352000Y-91581999I0J-249999D01*
G01*
X137352000Y-92282001D01*
G75*
G02*
X137102001Y-92532000I-249999J0D01*
G01*
X136201999Y-92532000D01*
G75*
G02*
X135952000Y-92282001I0J249999D01*
G01*
X135952000Y-91581999D01*
G75*
G02*
X136201999Y-91332000I249999J0D01*
G01*
G37*
G36*
G01*
X136201999Y-89332000D02*
X137102001Y-89332000D01*
G75*
G02*
X137352000Y-89581999I0J-249999D01*
G01*
X137352000Y-90282001D01*
G75*
G02*
X137102001Y-90532000I-249999J0D01*
G01*
X136201999Y-90532000D01*
G75*
G02*
X135952000Y-90282001I0J249999D01*
G01*
X135952000Y-89581999D01*
G75*
G02*
X136201999Y-89332000I249999J0D01*
G01*
G37*
G36*
G01*
X139134001Y-90548000D02*
X138233999Y-90548000D01*
G75*
G02*
X137984000Y-90298001I0J249999D01*
G01*
X137984000Y-89597999D01*
G75*
G02*
X138233999Y-89348000I249999J0D01*
G01*
X139134001Y-89348000D01*
G75*
G02*
X139384000Y-89597999I0J-249999D01*
G01*
X139384000Y-90298001D01*
G75*
G02*
X139134001Y-90548000I-249999J0D01*
G01*
G37*
G36*
G01*
X139134001Y-92548000D02*
X138233999Y-92548000D01*
G75*
G02*
X137984000Y-92298001I0J249999D01*
G01*
X137984000Y-91597999D01*
G75*
G02*
X138233999Y-91348000I249999J0D01*
G01*
X139134001Y-91348000D01*
G75*
G02*
X139384000Y-91597999I0J-249999D01*
G01*
X139384000Y-92298001D01*
G75*
G02*
X139134001Y-92548000I-249999J0D01*
G01*
G37*
G36*
G01*
X135095000Y-90482000D02*
X134145000Y-90482000D01*
G75*
G02*
X133895000Y-90232000I0J250000D01*
G01*
X133895000Y-89557000D01*
G75*
G02*
X134145000Y-89307000I250000J0D01*
G01*
X135095000Y-89307000D01*
G75*
G02*
X135345000Y-89557000I0J-250000D01*
G01*
X135345000Y-90232000D01*
G75*
G02*
X135095000Y-90482000I-250000J0D01*
G01*
G37*
G36*
G01*
X135095000Y-92557000D02*
X134145000Y-92557000D01*
G75*
G02*
X133895000Y-92307000I0J250000D01*
G01*
X133895000Y-91632000D01*
G75*
G02*
X134145000Y-91382000I250000J0D01*
G01*
X135095000Y-91382000D01*
G75*
G02*
X135345000Y-91632000I0J-250000D01*
G01*
X135345000Y-92307000D01*
G75*
G02*
X135095000Y-92557000I-250000J0D01*
G01*
G37*
G36*
G01*
X143223000Y-90482000D02*
X142273000Y-90482000D01*
G75*
G02*
X142023000Y-90232000I0J250000D01*
G01*
X142023000Y-89557000D01*
G75*
G02*
X142273000Y-89307000I250000J0D01*
G01*
X143223000Y-89307000D01*
G75*
G02*
X143473000Y-89557000I0J-250000D01*
G01*
X143473000Y-90232000D01*
G75*
G02*
X143223000Y-90482000I-250000J0D01*
G01*
G37*
G36*
G01*
X143223000Y-92557000D02*
X142273000Y-92557000D01*
G75*
G02*
X142023000Y-92307000I0J250000D01*
G01*
X142023000Y-91632000D01*
G75*
G02*
X142273000Y-91382000I250000J0D01*
G01*
X143223000Y-91382000D01*
G75*
G02*
X143473000Y-91632000I0J-250000D01*
G01*
X143473000Y-92307000D01*
G75*
G02*
X143223000Y-92557000I-250000J0D01*
G01*
G37*
G36*
G01*
X140265999Y-91373000D02*
X141166001Y-91373000D01*
G75*
G02*
X141416000Y-91622999I0J-249999D01*
G01*
X141416000Y-92273001D01*
G75*
G02*
X141166001Y-92523000I-249999J0D01*
G01*
X140265999Y-92523000D01*
G75*
G02*
X140016000Y-92273001I0J249999D01*
G01*
X140016000Y-91622999D01*
G75*
G02*
X140265999Y-91373000I249999J0D01*
G01*
G37*
G36*
G01*
X140265999Y-89323000D02*
X141166001Y-89323000D01*
G75*
G02*
X141416000Y-89572999I0J-249999D01*
G01*
X141416000Y-90223001D01*
G75*
G02*
X141166001Y-90473000I-249999J0D01*
G01*
X140265999Y-90473000D01*
G75*
G02*
X140016000Y-90223001I0J249999D01*
G01*
X140016000Y-89572999D01*
G75*
G02*
X140265999Y-89323000I249999J0D01*
G01*
G37*
G36*
G01*
X140266000Y-111539000D02*
X140266000Y-112489000D01*
G75*
G02*
X140016000Y-112739000I-250000J0D01*
G01*
X139341000Y-112739000D01*
G75*
G02*
X139091000Y-112489000I0J250000D01*
G01*
X139091000Y-111539000D01*
G75*
G02*
X139341000Y-111289000I250000J0D01*
G01*
X140016000Y-111289000D01*
G75*
G02*
X140266000Y-111539000I0J-250000D01*
G01*
G37*
G36*
G01*
X142341000Y-111539000D02*
X142341000Y-112489000D01*
G75*
G02*
X142091000Y-112739000I-250000J0D01*
G01*
X141416000Y-112739000D01*
G75*
G02*
X141166000Y-112489000I0J250000D01*
G01*
X141166000Y-111539000D01*
G75*
G02*
X141416000Y-111289000I250000J0D01*
G01*
X142091000Y-111289000D01*
G75*
G02*
X142341000Y-111539000I0J-250000D01*
G01*
G37*
G36*
G01*
X132138000Y-97569000D02*
X132138000Y-98519000D01*
G75*
G02*
X131888000Y-98769000I-250000J0D01*
G01*
X131213000Y-98769000D01*
G75*
G02*
X130963000Y-98519000I0J250000D01*
G01*
X130963000Y-97569000D01*
G75*
G02*
X131213000Y-97319000I250000J0D01*
G01*
X131888000Y-97319000D01*
G75*
G02*
X132138000Y-97569000I0J-250000D01*
G01*
G37*
G36*
G01*
X134213000Y-97569000D02*
X134213000Y-98519000D01*
G75*
G02*
X133963000Y-98769000I-250000J0D01*
G01*
X133288000Y-98769000D01*
G75*
G02*
X133038000Y-98519000I0J250000D01*
G01*
X133038000Y-97569000D01*
G75*
G02*
X133288000Y-97319000I250000J0D01*
G01*
X133963000Y-97319000D01*
G75*
G02*
X134213000Y-97569000I0J-250000D01*
G01*
G37*
G36*
G01*
X132138000Y-105697000D02*
X132138000Y-106647000D01*
G75*
G02*
X131888000Y-106897000I-250000J0D01*
G01*
X131213000Y-106897000D01*
G75*
G02*
X130963000Y-106647000I0J250000D01*
G01*
X130963000Y-105697000D01*
G75*
G02*
X131213000Y-105447000I250000J0D01*
G01*
X131888000Y-105447000D01*
G75*
G02*
X132138000Y-105697000I0J-250000D01*
G01*
G37*
G36*
G01*
X134213000Y-105697000D02*
X134213000Y-106647000D01*
G75*
G02*
X133963000Y-106897000I-250000J0D01*
G01*
X133288000Y-106897000D01*
G75*
G02*
X133038000Y-106647000I0J250000D01*
G01*
X133038000Y-105697000D01*
G75*
G02*
X133288000Y-105447000I250000J0D01*
G01*
X133963000Y-105447000D01*
G75*
G02*
X134213000Y-105697000I0J-250000D01*
G01*
G37*
D18*
X144424000Y-124230000D03*
X145764000Y-124230000D03*
X141764000Y-124230000D03*
X143104000Y-124230000D03*
X144424000Y-127230000D03*
X143104000Y-127230000D03*
X145764000Y-127230000D03*
X141764000Y-127230000D03*
G36*
G01*
X133546001Y-125534000D02*
X132645999Y-125534000D01*
G75*
G02*
X132396000Y-125284001I0J249999D01*
G01*
X132396000Y-124633999D01*
G75*
G02*
X132645999Y-124384000I249999J0D01*
G01*
X133546001Y-124384000D01*
G75*
G02*
X133796000Y-124633999I0J-249999D01*
G01*
X133796000Y-125284001D01*
G75*
G02*
X133546001Y-125534000I-249999J0D01*
G01*
G37*
G36*
G01*
X133546001Y-127584000D02*
X132645999Y-127584000D01*
G75*
G02*
X132396000Y-127334001I0J249999D01*
G01*
X132396000Y-126683999D01*
G75*
G02*
X132645999Y-126434000I249999J0D01*
G01*
X133546001Y-126434000D01*
G75*
G02*
X133796000Y-126683999I0J-249999D01*
G01*
X133796000Y-127334001D01*
G75*
G02*
X133546001Y-127584000I-249999J0D01*
G01*
G37*
G36*
G01*
X141166000Y-114775000D02*
X141166000Y-113825000D01*
G75*
G02*
X141416000Y-113575000I250000J0D01*
G01*
X142091000Y-113575000D01*
G75*
G02*
X142341000Y-113825000I0J-250000D01*
G01*
X142341000Y-114775000D01*
G75*
G02*
X142091000Y-115025000I-250000J0D01*
G01*
X141416000Y-115025000D01*
G75*
G02*
X141166000Y-114775000I0J250000D01*
G01*
G37*
G36*
G01*
X139091000Y-114775000D02*
X139091000Y-113825000D01*
G75*
G02*
X139341000Y-113575000I250000J0D01*
G01*
X140016000Y-113575000D01*
G75*
G02*
X140266000Y-113825000I0J-250000D01*
G01*
X140266000Y-114775000D01*
G75*
G02*
X140016000Y-115025000I-250000J0D01*
G01*
X139341000Y-115025000D01*
G75*
G02*
X139091000Y-114775000I0J250000D01*
G01*
G37*
G36*
G01*
X141166000Y-117061000D02*
X141166000Y-116111000D01*
G75*
G02*
X141416000Y-115861000I250000J0D01*
G01*
X142091000Y-115861000D01*
G75*
G02*
X142341000Y-116111000I0J-250000D01*
G01*
X142341000Y-117061000D01*
G75*
G02*
X142091000Y-117311000I-250000J0D01*
G01*
X141416000Y-117311000D01*
G75*
G02*
X141166000Y-117061000I0J250000D01*
G01*
G37*
G36*
G01*
X139091000Y-117061000D02*
X139091000Y-116111000D01*
G75*
G02*
X139341000Y-115861000I250000J0D01*
G01*
X140016000Y-115861000D01*
G75*
G02*
X140266000Y-116111000I0J-250000D01*
G01*
X140266000Y-117061000D01*
G75*
G02*
X140016000Y-117311000I-250000J0D01*
G01*
X139341000Y-117311000D01*
G75*
G02*
X139091000Y-117061000I0J250000D01*
G01*
G37*
G36*
G01*
X136086001Y-125534000D02*
X135185999Y-125534000D01*
G75*
G02*
X134936000Y-125284001I0J249999D01*
G01*
X134936000Y-124633999D01*
G75*
G02*
X135185999Y-124384000I249999J0D01*
G01*
X136086001Y-124384000D01*
G75*
G02*
X136336000Y-124633999I0J-249999D01*
G01*
X136336000Y-125284001D01*
G75*
G02*
X136086001Y-125534000I-249999J0D01*
G01*
G37*
G36*
G01*
X136086001Y-127584000D02*
X135185999Y-127584000D01*
G75*
G02*
X134936000Y-127334001I0J249999D01*
G01*
X134936000Y-126683999D01*
G75*
G02*
X135185999Y-126434000I249999J0D01*
G01*
X136086001Y-126434000D01*
G75*
G02*
X136336000Y-126683999I0J-249999D01*
G01*
X136336000Y-127334001D01*
G75*
G02*
X136086001Y-127584000I-249999J0D01*
G01*
G37*
G36*
G01*
X138626001Y-125534000D02*
X137725999Y-125534000D01*
G75*
G02*
X137476000Y-125284001I0J249999D01*
G01*
X137476000Y-124633999D01*
G75*
G02*
X137725999Y-124384000I249999J0D01*
G01*
X138626001Y-124384000D01*
G75*
G02*
X138876000Y-124633999I0J-249999D01*
G01*
X138876000Y-125284001D01*
G75*
G02*
X138626001Y-125534000I-249999J0D01*
G01*
G37*
G36*
G01*
X138626001Y-127584000D02*
X137725999Y-127584000D01*
G75*
G02*
X137476000Y-127334001I0J249999D01*
G01*
X137476000Y-126683999D01*
G75*
G02*
X137725999Y-126434000I249999J0D01*
G01*
X138626001Y-126434000D01*
G75*
G02*
X138876000Y-126683999I0J-249999D01*
G01*
X138876000Y-127334001D01*
G75*
G02*
X138626001Y-127584000I-249999J0D01*
G01*
G37*
D28*
X132080000Y-112468000D03*
X132080000Y-117348000D03*
D29*
X157099000Y-73914000D03*
X155829000Y-73914000D03*
X157099000Y-72644000D03*
X155829000Y-72644000D03*
X157099000Y-71374000D03*
X155829000Y-71374000D03*
D30*
X156464000Y-70104000D03*
X155448000Y-75184000D03*
X157480000Y-75184000D03*
D31*
X150368000Y-76200000D03*
X147828000Y-76200000D03*
X150368000Y-73660000D03*
X147828000Y-73660000D03*
X150368000Y-71120000D03*
D32*
X147828000Y-71120000D03*
G36*
G01*
X132138000Y-103665000D02*
X132138000Y-104615000D01*
G75*
G02*
X131888000Y-104865000I-250000J0D01*
G01*
X131213000Y-104865000D01*
G75*
G02*
X130963000Y-104615000I0J250000D01*
G01*
X130963000Y-103665000D01*
G75*
G02*
X131213000Y-103415000I250000J0D01*
G01*
X131888000Y-103415000D01*
G75*
G02*
X132138000Y-103665000I0J-250000D01*
G01*
G37*
G36*
G01*
X134213000Y-103665000D02*
X134213000Y-104615000D01*
G75*
G02*
X133963000Y-104865000I-250000J0D01*
G01*
X133288000Y-104865000D01*
G75*
G02*
X133038000Y-104615000I0J250000D01*
G01*
X133038000Y-103665000D01*
G75*
G02*
X133288000Y-103415000I250000J0D01*
G01*
X133963000Y-103415000D01*
G75*
G02*
X134213000Y-103665000I0J-250000D01*
G01*
G37*
D33*
X112130000Y-109062000D03*
X112130000Y-121102000D03*
D34*
X114840000Y-116332000D03*
X114840000Y-113832000D03*
X116840000Y-113832000D03*
D32*
X116840000Y-116332000D03*
D35*
X140070000Y-96616000D03*
X140870000Y-96616000D03*
X141670000Y-96616000D03*
X142470000Y-96616000D03*
X143270000Y-96616000D03*
X144070000Y-96616000D03*
X144870000Y-96616000D03*
X145670000Y-96616000D03*
X146470000Y-96616000D03*
X147270000Y-96616000D03*
X148070000Y-96616000D03*
D36*
X149770000Y-98316000D03*
X149770000Y-99116000D03*
X149770000Y-99916000D03*
X149770000Y-100716000D03*
X149770000Y-101516000D03*
X149770000Y-102316000D03*
X149770000Y-103116000D03*
X149770000Y-103916000D03*
X149770000Y-104716000D03*
X149770000Y-105516000D03*
X149770000Y-106316000D03*
D35*
X148070000Y-108016000D03*
X147270000Y-108016000D03*
X146470000Y-108016000D03*
X145670000Y-108016000D03*
X144870000Y-108016000D03*
X144070000Y-108016000D03*
X143270000Y-108016000D03*
X142470000Y-108016000D03*
X141670000Y-108016000D03*
X140870000Y-108016000D03*
X140070000Y-108016000D03*
D36*
X138370000Y-106316000D03*
X138370000Y-105516000D03*
X138370000Y-104716000D03*
X138370000Y-103916000D03*
X138370000Y-103116000D03*
X138370000Y-102316000D03*
X138370000Y-101516000D03*
X138370000Y-100716000D03*
X138370000Y-99916000D03*
X138370000Y-99116000D03*
X138370000Y-98316000D03*
G36*
G01*
X132988000Y-100526001D02*
X132988000Y-99625999D01*
G75*
G02*
X133237999Y-99376000I249999J0D01*
G01*
X133938001Y-99376000D01*
G75*
G02*
X134188000Y-99625999I0J-249999D01*
G01*
X134188000Y-100526001D01*
G75*
G02*
X133938001Y-100776000I-249999J0D01*
G01*
X133237999Y-100776000D01*
G75*
G02*
X132988000Y-100526001I0J249999D01*
G01*
G37*
G36*
G01*
X130988000Y-100526001D02*
X130988000Y-99625999D01*
G75*
G02*
X131237999Y-99376000I249999J0D01*
G01*
X131938001Y-99376000D01*
G75*
G02*
X132188000Y-99625999I0J-249999D01*
G01*
X132188000Y-100526001D01*
G75*
G02*
X131938001Y-100776000I-249999J0D01*
G01*
X131237999Y-100776000D01*
G75*
G02*
X130988000Y-100526001I0J249999D01*
G01*
G37*
G36*
G01*
X132988000Y-102558001D02*
X132988000Y-101657999D01*
G75*
G02*
X133237999Y-101408000I249999J0D01*
G01*
X133938001Y-101408000D01*
G75*
G02*
X134188000Y-101657999I0J-249999D01*
G01*
X134188000Y-102558001D01*
G75*
G02*
X133938001Y-102808000I-249999J0D01*
G01*
X133237999Y-102808000D01*
G75*
G02*
X132988000Y-102558001I0J249999D01*
G01*
G37*
G36*
G01*
X130988000Y-102558001D02*
X130988000Y-101657999D01*
G75*
G02*
X131237999Y-101408000I249999J0D01*
G01*
X131938001Y-101408000D01*
G75*
G02*
X132188000Y-101657999I0J-249999D01*
G01*
X132188000Y-102558001D01*
G75*
G02*
X131938001Y-102808000I-249999J0D01*
G01*
X131237999Y-102808000D01*
G75*
G02*
X130988000Y-102558001I0J249999D01*
G01*
G37*
G36*
G01*
X121361000Y-114881999D02*
X121361000Y-117782001D01*
G75*
G02*
X121111001Y-118032000I-249999J0D01*
G01*
X120310999Y-118032000D01*
G75*
G02*
X120061000Y-117782001I0J249999D01*
G01*
X120061000Y-114881999D01*
G75*
G02*
X120310999Y-114632000I249999J0D01*
G01*
X121111001Y-114632000D01*
G75*
G02*
X121361000Y-114881999I0J-249999D01*
G01*
G37*
G36*
G01*
X125811000Y-114881999D02*
X125811000Y-117782001D01*
G75*
G02*
X125561001Y-118032000I-249999J0D01*
G01*
X124760999Y-118032000D01*
G75*
G02*
X124511000Y-117782001I0J249999D01*
G01*
X124511000Y-114881999D01*
G75*
G02*
X124760999Y-114632000I249999J0D01*
G01*
X125561001Y-114632000D01*
G75*
G02*
X125811000Y-114881999I0J-249999D01*
G01*
G37*
G36*
G01*
X163993000Y-99011000D02*
X164143000Y-99011000D01*
G75*
G02*
X164218000Y-99086000I0J-75000D01*
G01*
X164218000Y-100386000D01*
G75*
G02*
X164143000Y-100461000I-75000J0D01*
G01*
X163993000Y-100461000D01*
G75*
G02*
X163918000Y-100386000I0J75000D01*
G01*
X163918000Y-99086000D01*
G75*
G02*
X163993000Y-99011000I75000J0D01*
G01*
G37*
G36*
G01*
X163493000Y-99011000D02*
X163643000Y-99011000D01*
G75*
G02*
X163718000Y-99086000I0J-75000D01*
G01*
X163718000Y-100386000D01*
G75*
G02*
X163643000Y-100461000I-75000J0D01*
G01*
X163493000Y-100461000D01*
G75*
G02*
X163418000Y-100386000I0J75000D01*
G01*
X163418000Y-99086000D01*
G75*
G02*
X163493000Y-99011000I75000J0D01*
G01*
G37*
G36*
G01*
X162993000Y-99011000D02*
X163143000Y-99011000D01*
G75*
G02*
X163218000Y-99086000I0J-75000D01*
G01*
X163218000Y-100386000D01*
G75*
G02*
X163143000Y-100461000I-75000J0D01*
G01*
X162993000Y-100461000D01*
G75*
G02*
X162918000Y-100386000I0J75000D01*
G01*
X162918000Y-99086000D01*
G75*
G02*
X162993000Y-99011000I75000J0D01*
G01*
G37*
G36*
G01*
X162493000Y-99011000D02*
X162643000Y-99011000D01*
G75*
G02*
X162718000Y-99086000I0J-75000D01*
G01*
X162718000Y-100386000D01*
G75*
G02*
X162643000Y-100461000I-75000J0D01*
G01*
X162493000Y-100461000D01*
G75*
G02*
X162418000Y-100386000I0J75000D01*
G01*
X162418000Y-99086000D01*
G75*
G02*
X162493000Y-99011000I75000J0D01*
G01*
G37*
G36*
G01*
X161993000Y-99011000D02*
X162143000Y-99011000D01*
G75*
G02*
X162218000Y-99086000I0J-75000D01*
G01*
X162218000Y-100386000D01*
G75*
G02*
X162143000Y-100461000I-75000J0D01*
G01*
X161993000Y-100461000D01*
G75*
G02*
X161918000Y-100386000I0J75000D01*
G01*
X161918000Y-99086000D01*
G75*
G02*
X161993000Y-99011000I75000J0D01*
G01*
G37*
G36*
G01*
X161993000Y-94611000D02*
X162143000Y-94611000D01*
G75*
G02*
X162218000Y-94686000I0J-75000D01*
G01*
X162218000Y-95986000D01*
G75*
G02*
X162143000Y-96061000I-75000J0D01*
G01*
X161993000Y-96061000D01*
G75*
G02*
X161918000Y-95986000I0J75000D01*
G01*
X161918000Y-94686000D01*
G75*
G02*
X161993000Y-94611000I75000J0D01*
G01*
G37*
G36*
G01*
X162493000Y-94611000D02*
X162643000Y-94611000D01*
G75*
G02*
X162718000Y-94686000I0J-75000D01*
G01*
X162718000Y-95986000D01*
G75*
G02*
X162643000Y-96061000I-75000J0D01*
G01*
X162493000Y-96061000D01*
G75*
G02*
X162418000Y-95986000I0J75000D01*
G01*
X162418000Y-94686000D01*
G75*
G02*
X162493000Y-94611000I75000J0D01*
G01*
G37*
G36*
G01*
X162993000Y-94611000D02*
X163143000Y-94611000D01*
G75*
G02*
X163218000Y-94686000I0J-75000D01*
G01*
X163218000Y-95986000D01*
G75*
G02*
X163143000Y-96061000I-75000J0D01*
G01*
X162993000Y-96061000D01*
G75*
G02*
X162918000Y-95986000I0J75000D01*
G01*
X162918000Y-94686000D01*
G75*
G02*
X162993000Y-94611000I75000J0D01*
G01*
G37*
G36*
G01*
X163493000Y-94611000D02*
X163643000Y-94611000D01*
G75*
G02*
X163718000Y-94686000I0J-75000D01*
G01*
X163718000Y-95986000D01*
G75*
G02*
X163643000Y-96061000I-75000J0D01*
G01*
X163493000Y-96061000D01*
G75*
G02*
X163418000Y-95986000I0J75000D01*
G01*
X163418000Y-94686000D01*
G75*
G02*
X163493000Y-94611000I75000J0D01*
G01*
G37*
G36*
G01*
X163993000Y-94611000D02*
X164143000Y-94611000D01*
G75*
G02*
X164218000Y-94686000I0J-75000D01*
G01*
X164218000Y-95986000D01*
G75*
G02*
X164143000Y-96061000I-75000J0D01*
G01*
X163993000Y-96061000D01*
G75*
G02*
X163918000Y-95986000I0J75000D01*
G01*
X163918000Y-94686000D01*
G75*
G02*
X163993000Y-94611000I75000J0D01*
G01*
G37*
G36*
G01*
X169564000Y-101034001D02*
X169564000Y-100133999D01*
G75*
G02*
X169813999Y-99884000I249999J0D01*
G01*
X170514001Y-99884000D01*
G75*
G02*
X170764000Y-100133999I0J-249999D01*
G01*
X170764000Y-101034001D01*
G75*
G02*
X170514001Y-101284000I-249999J0D01*
G01*
X169813999Y-101284000D01*
G75*
G02*
X169564000Y-101034001I0J249999D01*
G01*
G37*
G36*
G01*
X167564000Y-101034001D02*
X167564000Y-100133999D01*
G75*
G02*
X167813999Y-99884000I249999J0D01*
G01*
X168514001Y-99884000D01*
G75*
G02*
X168764000Y-100133999I0J-249999D01*
G01*
X168764000Y-101034001D01*
G75*
G02*
X168514001Y-101284000I-249999J0D01*
G01*
X167813999Y-101284000D01*
G75*
G02*
X167564000Y-101034001I0J249999D01*
G01*
G37*
G36*
G01*
X169564000Y-103066001D02*
X169564000Y-102165999D01*
G75*
G02*
X169813999Y-101916000I249999J0D01*
G01*
X170514001Y-101916000D01*
G75*
G02*
X170764000Y-102165999I0J-249999D01*
G01*
X170764000Y-103066001D01*
G75*
G02*
X170514001Y-103316000I-249999J0D01*
G01*
X169813999Y-103316000D01*
G75*
G02*
X169564000Y-103066001I0J249999D01*
G01*
G37*
G36*
G01*
X167564000Y-103066001D02*
X167564000Y-102165999D01*
G75*
G02*
X167813999Y-101916000I249999J0D01*
G01*
X168514001Y-101916000D01*
G75*
G02*
X168764000Y-102165999I0J-249999D01*
G01*
X168764000Y-103066001D01*
G75*
G02*
X168514001Y-103316000I-249999J0D01*
G01*
X167813999Y-103316000D01*
G75*
G02*
X167564000Y-103066001I0J249999D01*
G01*
G37*
G36*
G01*
X169614000Y-105123000D02*
X169614000Y-104173000D01*
G75*
G02*
X169864000Y-103923000I250000J0D01*
G01*
X170539000Y-103923000D01*
G75*
G02*
X170789000Y-104173000I0J-250000D01*
G01*
X170789000Y-105123000D01*
G75*
G02*
X170539000Y-105373000I-250000J0D01*
G01*
X169864000Y-105373000D01*
G75*
G02*
X169614000Y-105123000I0J250000D01*
G01*
G37*
G36*
G01*
X167539000Y-105123000D02*
X167539000Y-104173000D01*
G75*
G02*
X167789000Y-103923000I250000J0D01*
G01*
X168464000Y-103923000D01*
G75*
G02*
X168714000Y-104173000I0J-250000D01*
G01*
X168714000Y-105123000D01*
G75*
G02*
X168464000Y-105373000I-250000J0D01*
G01*
X167789000Y-105373000D01*
G75*
G02*
X167539000Y-105123000I0J250000D01*
G01*
G37*
G36*
G01*
X164026000Y-102837000D02*
X164026000Y-101887000D01*
G75*
G02*
X164276000Y-101637000I250000J0D01*
G01*
X164951000Y-101637000D01*
G75*
G02*
X165201000Y-101887000I0J-250000D01*
G01*
X165201000Y-102837000D01*
G75*
G02*
X164951000Y-103087000I-250000J0D01*
G01*
X164276000Y-103087000D01*
G75*
G02*
X164026000Y-102837000I0J250000D01*
G01*
G37*
G36*
G01*
X161951000Y-102837000D02*
X161951000Y-101887000D01*
G75*
G02*
X162201000Y-101637000I250000J0D01*
G01*
X162876000Y-101637000D01*
G75*
G02*
X163126000Y-101887000I0J-250000D01*
G01*
X163126000Y-102837000D01*
G75*
G02*
X162876000Y-103087000I-250000J0D01*
G01*
X162201000Y-103087000D01*
G75*
G02*
X161951000Y-102837000I0J250000D01*
G01*
G37*
D37*
X155626000Y-88080000D03*
X155626000Y-89030000D03*
X155626000Y-87130000D03*
X158326000Y-87130000D03*
X158326000Y-88080000D03*
X158326000Y-89030000D03*
G36*
G01*
X153637000Y-87434000D02*
X152687000Y-87434000D01*
G75*
G02*
X152437000Y-87184000I0J250000D01*
G01*
X152437000Y-86509000D01*
G75*
G02*
X152687000Y-86259000I250000J0D01*
G01*
X153637000Y-86259000D01*
G75*
G02*
X153887000Y-86509000I0J-250000D01*
G01*
X153887000Y-87184000D01*
G75*
G02*
X153637000Y-87434000I-250000J0D01*
G01*
G37*
G36*
G01*
X153637000Y-89509000D02*
X152687000Y-89509000D01*
G75*
G02*
X152437000Y-89259000I0J250000D01*
G01*
X152437000Y-88584000D01*
G75*
G02*
X152687000Y-88334000I250000J0D01*
G01*
X153637000Y-88334000D01*
G75*
G02*
X153887000Y-88584000I0J-250000D01*
G01*
X153887000Y-89259000D01*
G75*
G02*
X153637000Y-89509000I-250000J0D01*
G01*
G37*
G36*
G01*
X161257000Y-87434000D02*
X160307000Y-87434000D01*
G75*
G02*
X160057000Y-87184000I0J250000D01*
G01*
X160057000Y-86509000D01*
G75*
G02*
X160307000Y-86259000I250000J0D01*
G01*
X161257000Y-86259000D01*
G75*
G02*
X161507000Y-86509000I0J-250000D01*
G01*
X161507000Y-87184000D01*
G75*
G02*
X161257000Y-87434000I-250000J0D01*
G01*
G37*
G36*
G01*
X161257000Y-89509000D02*
X160307000Y-89509000D01*
G75*
G02*
X160057000Y-89259000I0J250000D01*
G01*
X160057000Y-88584000D01*
G75*
G02*
X160307000Y-88334000I250000J0D01*
G01*
X161257000Y-88334000D01*
G75*
G02*
X161507000Y-88584000I0J-250000D01*
G01*
X161507000Y-89259000D01*
G75*
G02*
X161257000Y-89509000I-250000J0D01*
G01*
G37*
D38*
X157988000Y-92122000D03*
X157038000Y-92122000D03*
X158938000Y-92122000D03*
X158938000Y-94822000D03*
X157988000Y-94822000D03*
X157038000Y-94822000D03*
G36*
G01*
X157538000Y-96553000D02*
X157538000Y-97503000D01*
G75*
G02*
X157288000Y-97753000I-250000J0D01*
G01*
X156613000Y-97753000D01*
G75*
G02*
X156363000Y-97503000I0J250000D01*
G01*
X156363000Y-96553000D01*
G75*
G02*
X156613000Y-96303000I250000J0D01*
G01*
X157288000Y-96303000D01*
G75*
G02*
X157538000Y-96553000I0J-250000D01*
G01*
G37*
G36*
G01*
X159613000Y-96553000D02*
X159613000Y-97503000D01*
G75*
G02*
X159363000Y-97753000I-250000J0D01*
G01*
X158688000Y-97753000D01*
G75*
G02*
X158438000Y-97503000I0J250000D01*
G01*
X158438000Y-96553000D01*
G75*
G02*
X158688000Y-96303000I250000J0D01*
G01*
X159363000Y-96303000D01*
G75*
G02*
X159613000Y-96553000I0J-250000D01*
G01*
G37*
G36*
G01*
X161069000Y-80206000D02*
X162019000Y-80206000D01*
G75*
G02*
X162269000Y-80456000I0J-250000D01*
G01*
X162269000Y-81131000D01*
G75*
G02*
X162019000Y-81381000I-250000J0D01*
G01*
X161069000Y-81381000D01*
G75*
G02*
X160819000Y-81131000I0J250000D01*
G01*
X160819000Y-80456000D01*
G75*
G02*
X161069000Y-80206000I250000J0D01*
G01*
G37*
G36*
G01*
X161069000Y-78131000D02*
X162019000Y-78131000D01*
G75*
G02*
X162269000Y-78381000I0J-250000D01*
G01*
X162269000Y-79056000D01*
G75*
G02*
X162019000Y-79306000I-250000J0D01*
G01*
X161069000Y-79306000D01*
G75*
G02*
X160819000Y-79056000I0J250000D01*
G01*
X160819000Y-78381000D01*
G75*
G02*
X161069000Y-78131000I250000J0D01*
G01*
G37*
G36*
G01*
X169564000Y-96970001D02*
X169564000Y-96069999D01*
G75*
G02*
X169813999Y-95820000I249999J0D01*
G01*
X170514001Y-95820000D01*
G75*
G02*
X170764000Y-96069999I0J-249999D01*
G01*
X170764000Y-96970001D01*
G75*
G02*
X170514001Y-97220000I-249999J0D01*
G01*
X169813999Y-97220000D01*
G75*
G02*
X169564000Y-96970001I0J249999D01*
G01*
G37*
G36*
G01*
X167564000Y-96970001D02*
X167564000Y-96069999D01*
G75*
G02*
X167813999Y-95820000I249999J0D01*
G01*
X168514001Y-95820000D01*
G75*
G02*
X168764000Y-96069999I0J-249999D01*
G01*
X168764000Y-96970001D01*
G75*
G02*
X168514001Y-97220000I-249999J0D01*
G01*
X167813999Y-97220000D01*
G75*
G02*
X167564000Y-96970001I0J249999D01*
G01*
G37*
G36*
G01*
X169564000Y-94938001D02*
X169564000Y-94037999D01*
G75*
G02*
X169813999Y-93788000I249999J0D01*
G01*
X170514001Y-93788000D01*
G75*
G02*
X170764000Y-94037999I0J-249999D01*
G01*
X170764000Y-94938001D01*
G75*
G02*
X170514001Y-95188000I-249999J0D01*
G01*
X169813999Y-95188000D01*
G75*
G02*
X169564000Y-94938001I0J249999D01*
G01*
G37*
G36*
G01*
X167564000Y-94938001D02*
X167564000Y-94037999D01*
G75*
G02*
X167813999Y-93788000I249999J0D01*
G01*
X168514001Y-93788000D01*
G75*
G02*
X168764000Y-94037999I0J-249999D01*
G01*
X168764000Y-94938001D01*
G75*
G02*
X168514001Y-95188000I-249999J0D01*
G01*
X167813999Y-95188000D01*
G75*
G02*
X167564000Y-94938001I0J249999D01*
G01*
G37*
G36*
G01*
X168764000Y-92005999D02*
X168764000Y-92906001D01*
G75*
G02*
X168514001Y-93156000I-249999J0D01*
G01*
X167813999Y-93156000D01*
G75*
G02*
X167564000Y-92906001I0J249999D01*
G01*
X167564000Y-92005999D01*
G75*
G02*
X167813999Y-91756000I249999J0D01*
G01*
X168514001Y-91756000D01*
G75*
G02*
X168764000Y-92005999I0J-249999D01*
G01*
G37*
G36*
G01*
X170764000Y-92005999D02*
X170764000Y-92906001D01*
G75*
G02*
X170514001Y-93156000I-249999J0D01*
G01*
X169813999Y-93156000D01*
G75*
G02*
X169564000Y-92906001I0J249999D01*
G01*
X169564000Y-92005999D01*
G75*
G02*
X169813999Y-91756000I249999J0D01*
G01*
X170514001Y-91756000D01*
G75*
G02*
X170764000Y-92005999I0J-249999D01*
G01*
G37*
G36*
G01*
X168764000Y-89973999D02*
X168764000Y-90874001D01*
G75*
G02*
X168514001Y-91124000I-249999J0D01*
G01*
X167813999Y-91124000D01*
G75*
G02*
X167564000Y-90874001I0J249999D01*
G01*
X167564000Y-89973999D01*
G75*
G02*
X167813999Y-89724000I249999J0D01*
G01*
X168514001Y-89724000D01*
G75*
G02*
X168764000Y-89973999I0J-249999D01*
G01*
G37*
G36*
G01*
X170764000Y-89973999D02*
X170764000Y-90874001D01*
G75*
G02*
X170514001Y-91124000I-249999J0D01*
G01*
X169813999Y-91124000D01*
G75*
G02*
X169564000Y-90874001I0J249999D01*
G01*
X169564000Y-89973999D01*
G75*
G02*
X169813999Y-89724000I249999J0D01*
G01*
X170514001Y-89724000D01*
G75*
G02*
X170764000Y-89973999I0J-249999D01*
G01*
G37*
G36*
G01*
X170122001Y-115424000D02*
X169221999Y-115424000D01*
G75*
G02*
X168972000Y-115174001I0J249999D01*
G01*
X168972000Y-114473999D01*
G75*
G02*
X169221999Y-114224000I249999J0D01*
G01*
X170122001Y-114224000D01*
G75*
G02*
X170372000Y-114473999I0J-249999D01*
G01*
X170372000Y-115174001D01*
G75*
G02*
X170122001Y-115424000I-249999J0D01*
G01*
G37*
G36*
G01*
X170122001Y-117424000D02*
X169221999Y-117424000D01*
G75*
G02*
X168972000Y-117174001I0J249999D01*
G01*
X168972000Y-116473999D01*
G75*
G02*
X169221999Y-116224000I249999J0D01*
G01*
X170122001Y-116224000D01*
G75*
G02*
X170372000Y-116473999I0J-249999D01*
G01*
X170372000Y-117174001D01*
G75*
G02*
X170122001Y-117424000I-249999J0D01*
G01*
G37*
D39*
X163068000Y-127936000D03*
D40*
X163068000Y-122936000D03*
G36*
G01*
X177482000Y-70710999D02*
X177482000Y-73561001D01*
G75*
G02*
X177232001Y-73811000I-249999J0D01*
G01*
X176331999Y-73811000D01*
G75*
G02*
X176082000Y-73561001I0J249999D01*
G01*
X176082000Y-70710999D01*
G75*
G02*
X176331999Y-70461000I249999J0D01*
G01*
X177232001Y-70461000D01*
G75*
G02*
X177482000Y-70710999I0J-249999D01*
G01*
G37*
G36*
G01*
X183582000Y-70710999D02*
X183582000Y-73561001D01*
G75*
G02*
X183332001Y-73811000I-249999J0D01*
G01*
X182431999Y-73811000D01*
G75*
G02*
X182182000Y-73561001I0J249999D01*
G01*
X182182000Y-70710999D01*
G75*
G02*
X182431999Y-70461000I249999J0D01*
G01*
X183332001Y-70461000D01*
G75*
G02*
X183582000Y-70710999I0J-249999D01*
G01*
G37*
G36*
G01*
X177482000Y-74774999D02*
X177482000Y-77625001D01*
G75*
G02*
X177232001Y-77875000I-249999J0D01*
G01*
X176331999Y-77875000D01*
G75*
G02*
X176082000Y-77625001I0J249999D01*
G01*
X176082000Y-74774999D01*
G75*
G02*
X176331999Y-74525000I249999J0D01*
G01*
X177232001Y-74525000D01*
G75*
G02*
X177482000Y-74774999I0J-249999D01*
G01*
G37*
G36*
G01*
X183582000Y-74774999D02*
X183582000Y-77625001D01*
G75*
G02*
X183332001Y-77875000I-249999J0D01*
G01*
X182431999Y-77875000D01*
G75*
G02*
X182182000Y-77625001I0J249999D01*
G01*
X182182000Y-74774999D01*
G75*
G02*
X182431999Y-74525000I249999J0D01*
G01*
X183332001Y-74525000D01*
G75*
G02*
X183582000Y-74774999I0J-249999D01*
G01*
G37*
G36*
G01*
X170796000Y-74225999D02*
X170796000Y-75126001D01*
G75*
G02*
X170546001Y-75376000I-249999J0D01*
G01*
X169845999Y-75376000D01*
G75*
G02*
X169596000Y-75126001I0J249999D01*
G01*
X169596000Y-74225999D01*
G75*
G02*
X169845999Y-73976000I249999J0D01*
G01*
X170546001Y-73976000D01*
G75*
G02*
X170796000Y-74225999I0J-249999D01*
G01*
G37*
G36*
G01*
X172796000Y-74225999D02*
X172796000Y-75126001D01*
G75*
G02*
X172546001Y-75376000I-249999J0D01*
G01*
X171845999Y-75376000D01*
G75*
G02*
X171596000Y-75126001I0J249999D01*
G01*
X171596000Y-74225999D01*
G75*
G02*
X171845999Y-73976000I249999J0D01*
G01*
X172546001Y-73976000D01*
G75*
G02*
X172796000Y-74225999I0J-249999D01*
G01*
G37*
G36*
G01*
X177482000Y-78838999D02*
X177482000Y-81689001D01*
G75*
G02*
X177232001Y-81939000I-249999J0D01*
G01*
X176331999Y-81939000D01*
G75*
G02*
X176082000Y-81689001I0J249999D01*
G01*
X176082000Y-78838999D01*
G75*
G02*
X176331999Y-78589000I249999J0D01*
G01*
X177232001Y-78589000D01*
G75*
G02*
X177482000Y-78838999I0J-249999D01*
G01*
G37*
G36*
G01*
X183582000Y-78838999D02*
X183582000Y-81689001D01*
G75*
G02*
X183332001Y-81939000I-249999J0D01*
G01*
X182431999Y-81939000D01*
G75*
G02*
X182182000Y-81689001I0J249999D01*
G01*
X182182000Y-78838999D01*
G75*
G02*
X182431999Y-78589000I249999J0D01*
G01*
X183332001Y-78589000D01*
G75*
G02*
X183582000Y-78838999I0J-249999D01*
G01*
G37*
G36*
G01*
X171596000Y-70554001D02*
X171596000Y-69653999D01*
G75*
G02*
X171845999Y-69404000I249999J0D01*
G01*
X172546001Y-69404000D01*
G75*
G02*
X172796000Y-69653999I0J-249999D01*
G01*
X172796000Y-70554001D01*
G75*
G02*
X172546001Y-70804000I-249999J0D01*
G01*
X171845999Y-70804000D01*
G75*
G02*
X171596000Y-70554001I0J249999D01*
G01*
G37*
G36*
G01*
X169596000Y-70554001D02*
X169596000Y-69653999D01*
G75*
G02*
X169845999Y-69404000I249999J0D01*
G01*
X170546001Y-69404000D01*
G75*
G02*
X170796000Y-69653999I0J-249999D01*
G01*
X170796000Y-70554001D01*
G75*
G02*
X170546001Y-70804000I-249999J0D01*
G01*
X169845999Y-70804000D01*
G75*
G02*
X169596000Y-70554001I0J249999D01*
G01*
G37*
G36*
G01*
X177482000Y-82902999D02*
X177482000Y-85753001D01*
G75*
G02*
X177232001Y-86003000I-249999J0D01*
G01*
X176331999Y-86003000D01*
G75*
G02*
X176082000Y-85753001I0J249999D01*
G01*
X176082000Y-82902999D01*
G75*
G02*
X176331999Y-82653000I249999J0D01*
G01*
X177232001Y-82653000D01*
G75*
G02*
X177482000Y-82902999I0J-249999D01*
G01*
G37*
G36*
G01*
X183582000Y-82902999D02*
X183582000Y-85753001D01*
G75*
G02*
X183332001Y-86003000I-249999J0D01*
G01*
X182431999Y-86003000D01*
G75*
G02*
X182182000Y-85753001I0J249999D01*
G01*
X182182000Y-82902999D01*
G75*
G02*
X182431999Y-82653000I249999J0D01*
G01*
X183332001Y-82653000D01*
G75*
G02*
X183582000Y-82902999I0J-249999D01*
G01*
G37*
G36*
G01*
X177482000Y-86966999D02*
X177482000Y-89817001D01*
G75*
G02*
X177232001Y-90067000I-249999J0D01*
G01*
X176331999Y-90067000D01*
G75*
G02*
X176082000Y-89817001I0J249999D01*
G01*
X176082000Y-86966999D01*
G75*
G02*
X176331999Y-86717000I249999J0D01*
G01*
X177232001Y-86717000D01*
G75*
G02*
X177482000Y-86966999I0J-249999D01*
G01*
G37*
G36*
G01*
X183582000Y-86966999D02*
X183582000Y-89817001D01*
G75*
G02*
X183332001Y-90067000I-249999J0D01*
G01*
X182431999Y-90067000D01*
G75*
G02*
X182182000Y-89817001I0J249999D01*
G01*
X182182000Y-86966999D01*
G75*
G02*
X182431999Y-86717000I249999J0D01*
G01*
X183332001Y-86717000D01*
G75*
G02*
X183582000Y-86966999I0J-249999D01*
G01*
G37*
G36*
G01*
X177482000Y-91030999D02*
X177482000Y-93881001D01*
G75*
G02*
X177232001Y-94131000I-249999J0D01*
G01*
X176331999Y-94131000D01*
G75*
G02*
X176082000Y-93881001I0J249999D01*
G01*
X176082000Y-91030999D01*
G75*
G02*
X176331999Y-90781000I249999J0D01*
G01*
X177232001Y-90781000D01*
G75*
G02*
X177482000Y-91030999I0J-249999D01*
G01*
G37*
G36*
G01*
X183582000Y-91030999D02*
X183582000Y-93881001D01*
G75*
G02*
X183332001Y-94131000I-249999J0D01*
G01*
X182431999Y-94131000D01*
G75*
G02*
X182182000Y-93881001I0J249999D01*
G01*
X182182000Y-91030999D01*
G75*
G02*
X182431999Y-90781000I249999J0D01*
G01*
X183332001Y-90781000D01*
G75*
G02*
X183582000Y-91030999I0J-249999D01*
G01*
G37*
G36*
G01*
X177482000Y-95094999D02*
X177482000Y-97945001D01*
G75*
G02*
X177232001Y-98195000I-249999J0D01*
G01*
X176331999Y-98195000D01*
G75*
G02*
X176082000Y-97945001I0J249999D01*
G01*
X176082000Y-95094999D01*
G75*
G02*
X176331999Y-94845000I249999J0D01*
G01*
X177232001Y-94845000D01*
G75*
G02*
X177482000Y-95094999I0J-249999D01*
G01*
G37*
G36*
G01*
X183582000Y-95094999D02*
X183582000Y-97945001D01*
G75*
G02*
X183332001Y-98195000I-249999J0D01*
G01*
X182431999Y-98195000D01*
G75*
G02*
X182182000Y-97945001I0J249999D01*
G01*
X182182000Y-95094999D01*
G75*
G02*
X182431999Y-94845000I249999J0D01*
G01*
X183332001Y-94845000D01*
G75*
G02*
X183582000Y-95094999I0J-249999D01*
G01*
G37*
G36*
G01*
X177482000Y-99158999D02*
X177482000Y-102009001D01*
G75*
G02*
X177232001Y-102259000I-249999J0D01*
G01*
X176331999Y-102259000D01*
G75*
G02*
X176082000Y-102009001I0J249999D01*
G01*
X176082000Y-99158999D01*
G75*
G02*
X176331999Y-98909000I249999J0D01*
G01*
X177232001Y-98909000D01*
G75*
G02*
X177482000Y-99158999I0J-249999D01*
G01*
G37*
G36*
G01*
X183582000Y-99158999D02*
X183582000Y-102009001D01*
G75*
G02*
X183332001Y-102259000I-249999J0D01*
G01*
X182431999Y-102259000D01*
G75*
G02*
X182182000Y-102009001I0J249999D01*
G01*
X182182000Y-99158999D01*
G75*
G02*
X182431999Y-98909000I249999J0D01*
G01*
X183332001Y-98909000D01*
G75*
G02*
X183582000Y-99158999I0J-249999D01*
G01*
G37*
G36*
G01*
X177482000Y-103222999D02*
X177482000Y-106073001D01*
G75*
G02*
X177232001Y-106323000I-249999J0D01*
G01*
X176331999Y-106323000D01*
G75*
G02*
X176082000Y-106073001I0J249999D01*
G01*
X176082000Y-103222999D01*
G75*
G02*
X176331999Y-102973000I249999J0D01*
G01*
X177232001Y-102973000D01*
G75*
G02*
X177482000Y-103222999I0J-249999D01*
G01*
G37*
G36*
G01*
X183582000Y-103222999D02*
X183582000Y-106073001D01*
G75*
G02*
X183332001Y-106323000I-249999J0D01*
G01*
X182431999Y-106323000D01*
G75*
G02*
X182182000Y-106073001I0J249999D01*
G01*
X182182000Y-103222999D01*
G75*
G02*
X182431999Y-102973000I249999J0D01*
G01*
X183332001Y-102973000D01*
G75*
G02*
X183582000Y-103222999I0J-249999D01*
G01*
G37*
G36*
G01*
X177482000Y-107286999D02*
X177482000Y-110137001D01*
G75*
G02*
X177232001Y-110387000I-249999J0D01*
G01*
X176331999Y-110387000D01*
G75*
G02*
X176082000Y-110137001I0J249999D01*
G01*
X176082000Y-107286999D01*
G75*
G02*
X176331999Y-107037000I249999J0D01*
G01*
X177232001Y-107037000D01*
G75*
G02*
X177482000Y-107286999I0J-249999D01*
G01*
G37*
G36*
G01*
X183582000Y-107286999D02*
X183582000Y-110137001D01*
G75*
G02*
X183332001Y-110387000I-249999J0D01*
G01*
X182431999Y-110387000D01*
G75*
G02*
X182182000Y-110137001I0J249999D01*
G01*
X182182000Y-107286999D01*
G75*
G02*
X182431999Y-107037000I249999J0D01*
G01*
X183332001Y-107037000D01*
G75*
G02*
X183582000Y-107286999I0J-249999D01*
G01*
G37*
G36*
G01*
X170746000Y-71915000D02*
X170746000Y-72865000D01*
G75*
G02*
X170496000Y-73115000I-250000J0D01*
G01*
X169821000Y-73115000D01*
G75*
G02*
X169571000Y-72865000I0J250000D01*
G01*
X169571000Y-71915000D01*
G75*
G02*
X169821000Y-71665000I250000J0D01*
G01*
X170496000Y-71665000D01*
G75*
G02*
X170746000Y-71915000I0J-250000D01*
G01*
G37*
G36*
G01*
X172821000Y-71915000D02*
X172821000Y-72865000D01*
G75*
G02*
X172571000Y-73115000I-250000J0D01*
G01*
X171896000Y-73115000D01*
G75*
G02*
X171646000Y-72865000I0J250000D01*
G01*
X171646000Y-71915000D01*
G75*
G02*
X171896000Y-71665000I250000J0D01*
G01*
X172571000Y-71665000D01*
G75*
G02*
X172821000Y-71915000I0J-250000D01*
G01*
G37*
M02*
