G04 #@! TF.GenerationSoftware,KiCad,Pcbnew,(5.1.9)-1*
G04 #@! TF.CreationDate,2021-08-12T22:57:42-04:00*
G04 #@! TF.ProjectId,ElectronicLoad,456c6563-7472-46f6-9e69-634c6f61642e,A*
G04 #@! TF.SameCoordinates,Original*
G04 #@! TF.FileFunction,Copper,L4,Bot*
G04 #@! TF.FilePolarity,Positive*
%FSLAX46Y46*%
G04 Gerber Fmt 4.6, Leading zero omitted, Abs format (unit mm)*
G04 Created by KiCad (PCBNEW (5.1.9)-1) date 2021-08-12 22:57:42*
%MOMM*%
%LPD*%
G01*
G04 APERTURE LIST*
G04 #@! TA.AperFunction,ComponentPad*
%ADD10C,2.100000*%
G04 #@! TD*
G04 #@! TA.AperFunction,ComponentPad*
%ADD11R,3.000000X2.500000*%
G04 #@! TD*
G04 #@! TA.AperFunction,ComponentPad*
%ADD12O,2.000000X1.905000*%
G04 #@! TD*
G04 #@! TA.AperFunction,ComponentPad*
%ADD13R,2.000000X1.905000*%
G04 #@! TD*
G04 #@! TA.AperFunction,ComponentPad*
%ADD14C,3.000000*%
G04 #@! TD*
G04 #@! TA.AperFunction,ComponentPad*
%ADD15C,3.686000*%
G04 #@! TD*
G04 #@! TA.AperFunction,ComponentPad*
%ADD16C,5.700000*%
G04 #@! TD*
G04 #@! TA.AperFunction,ComponentPad*
%ADD17O,1.600000X2.400000*%
G04 #@! TD*
G04 #@! TA.AperFunction,ComponentPad*
%ADD18R,1.600000X2.400000*%
G04 #@! TD*
G04 #@! TA.AperFunction,ComponentPad*
%ADD19O,1.700000X1.950000*%
G04 #@! TD*
G04 #@! TA.AperFunction,ComponentPad*
%ADD20O,1.700000X2.000000*%
G04 #@! TD*
G04 #@! TA.AperFunction,ComponentPad*
%ADD21C,1.500000*%
G04 #@! TD*
G04 #@! TA.AperFunction,ComponentPad*
%ADD22O,1.700000X1.700000*%
G04 #@! TD*
G04 #@! TA.AperFunction,ComponentPad*
%ADD23R,1.700000X1.700000*%
G04 #@! TD*
G04 #@! TA.AperFunction,ComponentPad*
%ADD24C,3.500000*%
G04 #@! TD*
G04 #@! TA.AperFunction,ComponentPad*
%ADD25C,1.700000*%
G04 #@! TD*
G04 #@! TA.AperFunction,ComponentPad*
%ADD26C,2.600000*%
G04 #@! TD*
G04 #@! TA.AperFunction,ComponentPad*
%ADD27R,2.600000X2.600000*%
G04 #@! TD*
G04 #@! TA.AperFunction,ViaPad*
%ADD28C,0.800000*%
G04 #@! TD*
G04 #@! TA.AperFunction,ViaPad*
%ADD29C,1.000000*%
G04 #@! TD*
G04 #@! TA.AperFunction,Conductor*
%ADD30C,2.500000*%
G04 #@! TD*
G04 #@! TA.AperFunction,Conductor*
%ADD31C,0.250000*%
G04 #@! TD*
G04 #@! TA.AperFunction,Conductor*
%ADD32C,0.254000*%
G04 #@! TD*
G04 #@! TA.AperFunction,Conductor*
%ADD33C,0.100000*%
G04 #@! TD*
G04 APERTURE END LIST*
D10*
X109676000Y-80344000D03*
X109676000Y-90344000D03*
X109676000Y-85344000D03*
D11*
X112776000Y-93444000D03*
X112776000Y-77244000D03*
D10*
X112276000Y-82844000D03*
X112276000Y-87844000D03*
D12*
X196596000Y-101600000D03*
X196596000Y-99060000D03*
D13*
X196596000Y-96520000D03*
D14*
X190260000Y-125984000D03*
X175260000Y-125984000D03*
D15*
X200660000Y-86360000D03*
X200660000Y-111760000D03*
D16*
X110372000Y-126740000D03*
X200372000Y-126740000D03*
X200372000Y-71740000D03*
X110372000Y-71740000D03*
D17*
X164592000Y-78740000D03*
X172212000Y-86360000D03*
X167132000Y-78740000D03*
X169672000Y-86360000D03*
X169672000Y-78740000D03*
X167132000Y-86360000D03*
X172212000Y-78740000D03*
D18*
X164592000Y-86360000D03*
D19*
X112388000Y-102108000D03*
X114888000Y-102108000D03*
X117388000Y-102108000D03*
G04 #@! TA.AperFunction,ComponentPad*
G36*
G01*
X120738000Y-101383000D02*
X120738000Y-102833000D01*
G75*
G02*
X120488000Y-103083000I-250000J0D01*
G01*
X119288000Y-103083000D01*
G75*
G02*
X119038000Y-102833000I0J250000D01*
G01*
X119038000Y-101383000D01*
G75*
G02*
X119288000Y-101133000I250000J0D01*
G01*
X120488000Y-101133000D01*
G75*
G02*
X120738000Y-101383000I0J-250000D01*
G01*
G37*
G04 #@! TD.AperFunction*
D20*
X124928000Y-69596000D03*
G04 #@! TA.AperFunction,ComponentPad*
G36*
G01*
X121578000Y-70346000D02*
X121578000Y-68846000D01*
G75*
G02*
X121828000Y-68596000I250000J0D01*
G01*
X123028000Y-68596000D01*
G75*
G02*
X123278000Y-68846000I0J-250000D01*
G01*
X123278000Y-70346000D01*
G75*
G02*
X123028000Y-70596000I-250000J0D01*
G01*
X121828000Y-70596000D01*
G75*
G02*
X121578000Y-70346000I0J250000D01*
G01*
G37*
G04 #@! TD.AperFunction*
D21*
X132080000Y-112468000D03*
X132080000Y-117348000D03*
D22*
X150368000Y-76200000D03*
X147828000Y-76200000D03*
X150368000Y-73660000D03*
X147828000Y-73660000D03*
X150368000Y-71120000D03*
D23*
X147828000Y-71120000D03*
D24*
X112130000Y-109062000D03*
X112130000Y-121102000D03*
D25*
X114840000Y-116332000D03*
X114840000Y-113832000D03*
X116840000Y-113832000D03*
D23*
X116840000Y-116332000D03*
D26*
X163068000Y-127936000D03*
D27*
X163068000Y-122936000D03*
D28*
X136398000Y-101346000D03*
X139700000Y-127000000D03*
D29*
X121920000Y-121920000D03*
X154178000Y-103632000D03*
X151384000Y-86868000D03*
X147574000Y-91948000D03*
X178816000Y-72136000D03*
X178816000Y-76200000D03*
X178816000Y-80264000D03*
X178816000Y-84328000D03*
X178816000Y-88392000D03*
X178816000Y-74168000D03*
X178816000Y-92456000D03*
X174752000Y-74168000D03*
X174752000Y-72136000D03*
X178816000Y-78232000D03*
X178816000Y-96520000D03*
X174752000Y-78232000D03*
X174752000Y-76200000D03*
X178816000Y-82296000D03*
X178816000Y-94488000D03*
X178816000Y-98552000D03*
X178816000Y-100584000D03*
X174752000Y-98552000D03*
X174752000Y-94488000D03*
X174752000Y-82296000D03*
X174752000Y-80264000D03*
X174752000Y-96520000D03*
X178816000Y-86360000D03*
X178816000Y-90424000D03*
X178816000Y-102616000D03*
X178816000Y-106680000D03*
X178816000Y-104648000D03*
X174752000Y-106680000D03*
X174752000Y-102616000D03*
X174752000Y-84328000D03*
X174752000Y-92456000D03*
X174752000Y-100584000D03*
X174752000Y-86360000D03*
X174752000Y-90424000D03*
X178816000Y-108712000D03*
X174752000Y-104648000D03*
X174752000Y-108712000D03*
D28*
X161544000Y-82296000D03*
X157734000Y-85852000D03*
X158750000Y-73914000D03*
D29*
X174752000Y-88392000D03*
X174752000Y-110744000D03*
X178816000Y-110744000D03*
X147828000Y-105664000D03*
X137922000Y-112014000D03*
X137922000Y-114300000D03*
X137922000Y-116586000D03*
X122428000Y-82296000D03*
X123698000Y-82296000D03*
X124968000Y-82296000D03*
X126238000Y-73406000D03*
X127508000Y-73406000D03*
X127508000Y-72136000D03*
X126238000Y-72136000D03*
X126238000Y-109220000D03*
X175768000Y-114808000D03*
X174498000Y-114808000D03*
X131572000Y-107886990D03*
X164592000Y-106426000D03*
X156972000Y-101346000D03*
X142748000Y-88392000D03*
X133858000Y-88392000D03*
X124481500Y-95525500D03*
X131572000Y-96520000D03*
X142494000Y-106172000D03*
X141224000Y-94742000D03*
X193040000Y-94996000D03*
X187452000Y-89408000D03*
X196596000Y-88392000D03*
X166878008Y-96520000D03*
X166877994Y-94488000D03*
X166878000Y-98552000D03*
X193548005Y-103657498D03*
X165036990Y-94488000D03*
X150876000Y-117094000D03*
X187452046Y-105791000D03*
X117856000Y-81788000D03*
X117856000Y-79756000D03*
X127000000Y-119888000D03*
X127000000Y-117856000D03*
X127000000Y-113538002D03*
X124754491Y-121706509D03*
X151384000Y-88900000D03*
X128524000Y-88900000D03*
D28*
X158750000Y-71374000D03*
X161544000Y-77216000D03*
D29*
X127000000Y-121666000D03*
X127000000Y-115824000D03*
X125161000Y-113599012D03*
X151638000Y-103632000D03*
X149352000Y-91948000D03*
X118364000Y-85852000D03*
X119888000Y-85852000D03*
X121412000Y-85852000D03*
X133604000Y-107886990D03*
X162560000Y-106426000D03*
X140716000Y-88392000D03*
X135382000Y-88392000D03*
X119888000Y-89916000D03*
X133604000Y-96520000D03*
X147320000Y-127254000D03*
X159004000Y-101346000D03*
X142748000Y-110490000D03*
X187960000Y-94996000D03*
X187960000Y-103124000D03*
D28*
X163068000Y-97790016D03*
X192278000Y-92964000D03*
X162564653Y-93730653D03*
X150229000Y-111438000D03*
X192048500Y-107925500D03*
X149860000Y-114300000D03*
X160274000Y-91948000D03*
X192024000Y-105664000D03*
X148336000Y-111252000D03*
X192024010Y-91440000D03*
X161544000Y-92964000D03*
X157988000Y-90678000D03*
X158750000Y-72644000D03*
X135890000Y-105918000D03*
X139899441Y-100844246D03*
X135890000Y-107188000D03*
X140716000Y-80772000D03*
X151384000Y-100584004D03*
X139446000Y-84582000D03*
X151384000Y-98298000D03*
X193040000Y-106172000D03*
X137885010Y-96149821D03*
X141105998Y-99542722D03*
X135890012Y-97536000D03*
X144572652Y-104093332D03*
X126238000Y-93472006D03*
X145542000Y-114046000D03*
X146812000Y-114046000D03*
D30*
X196596000Y-99060000D02*
X200152000Y-99060000D01*
X200152000Y-99060000D02*
X200660000Y-99568000D01*
X200660000Y-106886358D02*
X197104000Y-110442358D01*
X200660000Y-99568000D02*
X200660000Y-106886358D01*
X197104000Y-119140000D02*
X190260000Y-125984000D01*
X197104000Y-110442358D02*
X197104000Y-119140000D01*
D31*
X163068000Y-101034998D02*
X163068000Y-97790016D01*
X173793002Y-111760000D02*
X163068000Y-101034998D01*
X197104000Y-111760000D02*
X173793002Y-111760000D01*
X162823306Y-93472000D02*
X162564653Y-93730653D01*
X191770000Y-93472000D02*
X162823306Y-93472000D01*
X192278000Y-92964000D02*
X191770000Y-93472000D01*
X191008000Y-106885000D02*
X192048500Y-107925500D01*
X192278000Y-92964000D02*
X191008000Y-94234000D01*
X191008000Y-94234000D02*
X191008000Y-106885000D01*
X112388000Y-102108000D02*
X112388000Y-101899000D01*
X150182000Y-111438000D02*
X150229000Y-111438000D01*
X162564653Y-93730653D02*
X162315306Y-93980000D01*
X160786653Y-93730653D02*
X162564653Y-93730653D01*
X160274000Y-93218000D02*
X160786653Y-93730653D01*
X160274000Y-91948000D02*
X160274000Y-93218000D01*
X160274000Y-91948000D02*
X160274000Y-92964000D01*
X155644010Y-97593990D02*
X155644010Y-98240010D01*
X157480000Y-91948000D02*
X160274000Y-91948000D01*
X155644010Y-93783990D02*
X157480000Y-91948000D01*
X155644010Y-98240010D02*
X155644010Y-93783990D01*
X148336000Y-115824000D02*
X149860000Y-114300000D01*
X143505770Y-115824000D02*
X148336000Y-115824000D01*
X130948023Y-110628023D02*
X138309793Y-110628023D01*
X125418009Y-105098009D02*
X130948023Y-110628023D01*
X115378009Y-105098009D02*
X125418009Y-105098009D01*
X138309793Y-110628023D02*
X143505770Y-115824000D01*
X112388000Y-102108000D02*
X115378009Y-105098009D01*
X152908000Y-109728000D02*
X151939000Y-109728000D01*
X155644010Y-106991990D02*
X152908000Y-109728000D01*
X151939000Y-109728000D02*
X150229000Y-111438000D01*
X155644010Y-98240010D02*
X155644010Y-106991990D01*
X114888000Y-102108000D02*
X114888000Y-101899000D01*
X192024000Y-94291002D02*
X193185999Y-93129003D01*
X193185999Y-92601989D02*
X192024010Y-91440000D01*
X192024000Y-105664000D02*
X192024000Y-94291002D01*
X193185999Y-93129003D02*
X193185999Y-92601989D01*
X163068000Y-91440000D02*
X161544000Y-92964000D01*
X192024010Y-91440000D02*
X163068000Y-91440000D01*
X161544000Y-91948000D02*
X161544000Y-92964000D01*
X160274000Y-90678000D02*
X161544000Y-91948000D01*
X157988000Y-90678000D02*
X160274000Y-90678000D01*
X155194000Y-106554410D02*
X155194000Y-93472000D01*
X155194000Y-93472000D02*
X157988000Y-90678000D01*
X151441991Y-109162009D02*
X152586401Y-109162009D01*
X149352000Y-111252000D02*
X151441991Y-109162009D01*
X152586401Y-109162009D02*
X155194000Y-106554410D01*
X148336000Y-111252000D02*
X149352000Y-111252000D01*
X131134421Y-110178012D02*
X125604409Y-104647999D01*
X114888000Y-103333000D02*
X114888000Y-102108000D01*
X116202999Y-104647999D02*
X114888000Y-103333000D01*
X125604409Y-104647999D02*
X116202999Y-104647999D01*
X138496192Y-110178012D02*
X131134421Y-110178012D01*
X147324660Y-115320660D02*
X143638840Y-115320660D01*
X148336000Y-114309320D02*
X147324660Y-115320660D01*
X143638840Y-115320660D02*
X138496192Y-110178012D01*
X148336000Y-111252000D02*
X148336000Y-114309320D01*
X151384000Y-72644000D02*
X150368000Y-73660000D01*
X158750000Y-72644000D02*
X151384000Y-72644000D01*
X150368000Y-73660000D02*
X149098000Y-72390000D01*
X135165011Y-105193011D02*
X135890000Y-105918000D01*
X136709989Y-95574422D02*
X135165011Y-97119399D01*
X135165011Y-97119399D02*
X135165011Y-105193011D01*
X136709989Y-75254420D02*
X136709989Y-95574422D01*
X139574410Y-72390000D02*
X136709989Y-75254420D01*
X149098000Y-72390000D02*
X139574410Y-72390000D01*
X137160000Y-98104805D02*
X139899441Y-100844246D01*
X137160000Y-75440820D02*
X137160000Y-98104805D01*
X139702820Y-72898000D02*
X137160000Y-75440820D01*
X147066000Y-72898000D02*
X139702820Y-72898000D01*
X147828000Y-73660000D02*
X147066000Y-72898000D01*
X147066000Y-71882000D02*
X147828000Y-71120000D01*
X139445998Y-71882000D02*
X147066000Y-71882000D01*
X136259978Y-75068020D02*
X139445998Y-71882000D01*
X136259978Y-95388022D02*
X136259978Y-75068020D01*
X134620000Y-97028000D02*
X136259978Y-95388022D01*
X134620000Y-105918000D02*
X134620000Y-97028000D01*
X135890000Y-107188000D02*
X134620000Y-105918000D01*
X140716000Y-80772000D02*
X152291999Y-92347999D01*
X152291999Y-92347999D02*
X152291999Y-99676005D01*
X152291999Y-99676005D02*
X151384000Y-100584004D01*
X139446000Y-84582000D02*
X143889590Y-84582000D01*
X151384000Y-92076410D02*
X151384000Y-98298000D01*
X143889590Y-84582000D02*
X151384000Y-92076410D01*
X194564000Y-104648000D02*
X193040000Y-106172000D01*
X194564000Y-98552000D02*
X194564000Y-104648000D01*
X196596000Y-96520000D02*
X194564000Y-98552000D01*
X167132000Y-78740000D02*
X169672000Y-78740000D01*
X139674722Y-99542722D02*
X141105998Y-99542722D01*
X137885010Y-97753010D02*
X139674722Y-99542722D01*
X137885010Y-96149821D02*
X137885010Y-97753010D01*
X135890012Y-97536000D02*
X135890012Y-98101685D01*
X135890012Y-98101685D02*
X141881659Y-104093332D01*
X141881659Y-104093332D02*
X144572652Y-104093332D01*
X131507221Y-109277990D02*
X138868990Y-109277990D01*
X126238000Y-93472006D02*
X126238000Y-104008769D01*
X138868990Y-109277990D02*
X143637000Y-114046000D01*
X126238000Y-104008769D02*
X131507221Y-109277990D01*
X143637000Y-114046000D02*
X145542000Y-114046000D01*
D30*
X173308000Y-127936000D02*
X175260000Y-125984000D01*
X163068000Y-127936000D02*
X173308000Y-127936000D01*
D31*
X138682591Y-109728001D02*
X143725591Y-114771001D01*
X112276000Y-87844000D02*
X125730000Y-101298000D01*
X125730000Y-101298000D02*
X125730000Y-104137180D01*
X125730000Y-104137180D02*
X131320821Y-109728001D01*
X146086999Y-114771001D02*
X146812000Y-114046000D01*
X131320821Y-109728001D02*
X138682591Y-109728001D01*
X143725591Y-114771001D02*
X146086999Y-114771001D01*
D32*
X116205000Y-84836000D02*
X116207440Y-84860776D01*
X116214667Y-84884601D01*
X116226403Y-84906557D01*
X116242197Y-84925803D01*
X116261443Y-84941597D01*
X116283399Y-84953333D01*
X116307224Y-84960560D01*
X116332000Y-84963000D01*
X117651537Y-84963000D01*
X117640480Y-84970388D01*
X117482388Y-85128480D01*
X117358176Y-85314376D01*
X117272617Y-85520933D01*
X117229000Y-85740212D01*
X117229000Y-85963788D01*
X117272617Y-86183067D01*
X117358176Y-86389624D01*
X117482388Y-86575520D01*
X117640480Y-86733612D01*
X117826376Y-86857824D01*
X118032933Y-86943383D01*
X118252212Y-86987000D01*
X118475788Y-86987000D01*
X118695067Y-86943383D01*
X118901624Y-86857824D01*
X119087520Y-86733612D01*
X119126000Y-86695132D01*
X119164480Y-86733612D01*
X119350376Y-86857824D01*
X119556933Y-86943383D01*
X119776212Y-86987000D01*
X119999788Y-86987000D01*
X120219067Y-86943383D01*
X120425624Y-86857824D01*
X120611520Y-86733612D01*
X120650000Y-86695132D01*
X120688480Y-86733612D01*
X120874376Y-86857824D01*
X121080933Y-86943383D01*
X121300212Y-86987000D01*
X121523788Y-86987000D01*
X121743067Y-86943383D01*
X121949624Y-86857824D01*
X122135520Y-86733612D01*
X122293612Y-86575520D01*
X122417824Y-86389624D01*
X122503383Y-86183067D01*
X122547000Y-85963788D01*
X122547000Y-85740212D01*
X122503383Y-85520933D01*
X122417824Y-85314376D01*
X122293612Y-85128480D01*
X122135520Y-84970388D01*
X122124463Y-84963000D01*
X130556000Y-84963000D01*
X130580776Y-84960560D01*
X130604601Y-84953333D01*
X130626557Y-84941597D01*
X130645803Y-84925803D01*
X130661597Y-84906557D01*
X130673333Y-84884601D01*
X130680560Y-84860776D01*
X130683000Y-84836000D01*
X130683000Y-67400000D01*
X202839721Y-67400000D01*
X203228775Y-67438147D01*
X203571967Y-67541763D01*
X203888489Y-67710062D01*
X204166299Y-67936637D01*
X204394806Y-68212856D01*
X204565310Y-68528197D01*
X204671319Y-68870656D01*
X204712001Y-69257722D01*
X204712000Y-129207721D01*
X204673853Y-129596776D01*
X204570238Y-129939964D01*
X204401939Y-130256489D01*
X204175365Y-130534296D01*
X203899146Y-130762805D01*
X203583803Y-130933310D01*
X203241344Y-131039319D01*
X202854288Y-131080000D01*
X107904279Y-131080000D01*
X107515224Y-131041853D01*
X107172036Y-130938238D01*
X106855511Y-130769939D01*
X106577704Y-130543365D01*
X106349195Y-130267146D01*
X106178690Y-129951803D01*
X106072681Y-129609344D01*
X106032000Y-129222288D01*
X106032000Y-129192033D01*
X108099572Y-129192033D01*
X108417757Y-129645850D01*
X109022210Y-129971269D01*
X109678535Y-130172512D01*
X110361510Y-130241845D01*
X111044888Y-130176605D01*
X111702407Y-129979298D01*
X112308799Y-129657506D01*
X112326243Y-129645850D01*
X112644428Y-129192033D01*
X110372000Y-126919605D01*
X108099572Y-129192033D01*
X106032000Y-129192033D01*
X106032000Y-126729510D01*
X106870155Y-126729510D01*
X106935395Y-127412888D01*
X107132702Y-128070407D01*
X107454494Y-128676799D01*
X107466150Y-128694243D01*
X107919967Y-129012428D01*
X110192395Y-126740000D01*
X110551605Y-126740000D01*
X112824033Y-129012428D01*
X113277850Y-128694243D01*
X113603269Y-128089790D01*
X113804512Y-127433465D01*
X113834078Y-127142212D01*
X146185000Y-127142212D01*
X146185000Y-127365788D01*
X146228617Y-127585067D01*
X146314176Y-127791624D01*
X146438388Y-127977520D01*
X146596480Y-128135612D01*
X146782376Y-128259824D01*
X146988933Y-128345383D01*
X147208212Y-128389000D01*
X147431788Y-128389000D01*
X147651067Y-128345383D01*
X147857624Y-128259824D01*
X148043520Y-128135612D01*
X148201612Y-127977520D01*
X148325824Y-127791624D01*
X148344962Y-127745419D01*
X161133000Y-127745419D01*
X161133000Y-128126581D01*
X161207361Y-128500419D01*
X161353225Y-128852566D01*
X161564987Y-129169491D01*
X161834509Y-129439013D01*
X162151434Y-129650775D01*
X162503581Y-129796639D01*
X162877419Y-129871000D01*
X163258581Y-129871000D01*
X163509948Y-129821000D01*
X173215411Y-129821000D01*
X173308000Y-129830119D01*
X173400589Y-129821000D01*
X173400597Y-129821000D01*
X173677524Y-129793725D01*
X174032848Y-129685939D01*
X174360317Y-129510903D01*
X174647345Y-129275345D01*
X174706374Y-129203418D01*
X174717759Y-129192033D01*
X198099572Y-129192033D01*
X198417757Y-129645850D01*
X199022210Y-129971269D01*
X199678535Y-130172512D01*
X200361510Y-130241845D01*
X201044888Y-130176605D01*
X201702407Y-129979298D01*
X202308799Y-129657506D01*
X202326243Y-129645850D01*
X202644428Y-129192033D01*
X200372000Y-126919605D01*
X198099572Y-129192033D01*
X174717759Y-129192033D01*
X175870377Y-128039415D01*
X175882756Y-128036953D01*
X176271302Y-127876012D01*
X176620983Y-127642363D01*
X176918363Y-127344983D01*
X177152012Y-126995302D01*
X177312953Y-126606756D01*
X177395000Y-126194279D01*
X177395000Y-125773721D01*
X177312953Y-125361244D01*
X177152012Y-124972698D01*
X176918363Y-124623017D01*
X176620983Y-124325637D01*
X176271302Y-124091988D01*
X175882756Y-123931047D01*
X175470279Y-123849000D01*
X175049721Y-123849000D01*
X174637244Y-123931047D01*
X174248698Y-124091988D01*
X173899017Y-124325637D01*
X173601637Y-124623017D01*
X173367988Y-124972698D01*
X173207047Y-125361244D01*
X173204585Y-125373623D01*
X172527208Y-126051000D01*
X163509948Y-126051000D01*
X163258581Y-126001000D01*
X162877419Y-126001000D01*
X162503581Y-126075361D01*
X162151434Y-126221225D01*
X161834509Y-126432987D01*
X161564987Y-126702509D01*
X161353225Y-127019434D01*
X161207361Y-127371581D01*
X161133000Y-127745419D01*
X148344962Y-127745419D01*
X148411383Y-127585067D01*
X148455000Y-127365788D01*
X148455000Y-127142212D01*
X148411383Y-126922933D01*
X148325824Y-126716376D01*
X148201612Y-126530480D01*
X148043520Y-126372388D01*
X147857624Y-126248176D01*
X147651067Y-126162617D01*
X147431788Y-126119000D01*
X147208212Y-126119000D01*
X146988933Y-126162617D01*
X146782376Y-126248176D01*
X146596480Y-126372388D01*
X146438388Y-126530480D01*
X146314176Y-126716376D01*
X146228617Y-126922933D01*
X146185000Y-127142212D01*
X113834078Y-127142212D01*
X113873845Y-126750490D01*
X113808605Y-126067112D01*
X113611298Y-125409593D01*
X113289506Y-124803201D01*
X113277850Y-124785757D01*
X112824033Y-124467572D01*
X110551605Y-126740000D01*
X110192395Y-126740000D01*
X107919967Y-124467572D01*
X107466150Y-124785757D01*
X107140731Y-125390210D01*
X106939488Y-126046535D01*
X106870155Y-126729510D01*
X106032000Y-126729510D01*
X106032000Y-124287967D01*
X108099572Y-124287967D01*
X110372000Y-126560395D01*
X112644428Y-124287967D01*
X112607993Y-124236000D01*
X161129928Y-124236000D01*
X161142188Y-124360482D01*
X161178498Y-124480180D01*
X161237463Y-124590494D01*
X161316815Y-124687185D01*
X161413506Y-124766537D01*
X161523820Y-124825502D01*
X161643518Y-124861812D01*
X161768000Y-124874072D01*
X162782250Y-124871000D01*
X162941000Y-124712250D01*
X162941000Y-123063000D01*
X163195000Y-123063000D01*
X163195000Y-124712250D01*
X163353750Y-124871000D01*
X164368000Y-124874072D01*
X164492482Y-124861812D01*
X164612180Y-124825502D01*
X164722494Y-124766537D01*
X164819185Y-124687185D01*
X164898537Y-124590494D01*
X164957502Y-124480180D01*
X164993812Y-124360482D01*
X165006072Y-124236000D01*
X165003000Y-123221750D01*
X164844250Y-123063000D01*
X163195000Y-123063000D01*
X162941000Y-123063000D01*
X161291750Y-123063000D01*
X161133000Y-123221750D01*
X161129928Y-124236000D01*
X112607993Y-124236000D01*
X112326243Y-123834150D01*
X111721790Y-123508731D01*
X111065465Y-123307488D01*
X110382490Y-123238155D01*
X109699112Y-123303395D01*
X109041593Y-123500702D01*
X108435201Y-123822494D01*
X108417757Y-123834150D01*
X108099572Y-124287967D01*
X106032000Y-124287967D01*
X106032000Y-122771609D01*
X110639997Y-122771609D01*
X110826073Y-123112766D01*
X111243409Y-123328513D01*
X111694815Y-123458696D01*
X112162946Y-123498313D01*
X112629811Y-123445842D01*
X113077468Y-123303297D01*
X113433927Y-123112766D01*
X113620003Y-122771609D01*
X112130000Y-121281605D01*
X110639997Y-122771609D01*
X106032000Y-122771609D01*
X106032000Y-121134946D01*
X109733687Y-121134946D01*
X109786158Y-121601811D01*
X109928703Y-122049468D01*
X110119234Y-122405927D01*
X110460391Y-122592003D01*
X111950395Y-121102000D01*
X112309605Y-121102000D01*
X113799609Y-122592003D01*
X114140766Y-122405927D01*
X114356513Y-121988591D01*
X114470102Y-121594721D01*
X123619491Y-121594721D01*
X123619491Y-121818297D01*
X123663108Y-122037576D01*
X123748667Y-122244133D01*
X123872879Y-122430029D01*
X124030971Y-122588121D01*
X124216867Y-122712333D01*
X124423424Y-122797892D01*
X124642703Y-122841509D01*
X124866279Y-122841509D01*
X125085558Y-122797892D01*
X125292115Y-122712333D01*
X125478011Y-122588121D01*
X125636103Y-122430029D01*
X125760315Y-122244133D01*
X125845874Y-122037576D01*
X125881274Y-121859605D01*
X125908617Y-121997067D01*
X125994176Y-122203624D01*
X126118388Y-122389520D01*
X126276480Y-122547612D01*
X126462376Y-122671824D01*
X126668933Y-122757383D01*
X126888212Y-122801000D01*
X127111788Y-122801000D01*
X127331067Y-122757383D01*
X127537624Y-122671824D01*
X127723520Y-122547612D01*
X127881612Y-122389520D01*
X128005824Y-122203624D01*
X128091383Y-121997067D01*
X128135000Y-121777788D01*
X128135000Y-121636000D01*
X161129928Y-121636000D01*
X161133000Y-122650250D01*
X161291750Y-122809000D01*
X162941000Y-122809000D01*
X162941000Y-121159750D01*
X163195000Y-121159750D01*
X163195000Y-122809000D01*
X164844250Y-122809000D01*
X165003000Y-122650250D01*
X165006072Y-121636000D01*
X164993812Y-121511518D01*
X164957502Y-121391820D01*
X164898537Y-121281506D01*
X164819185Y-121184815D01*
X164722494Y-121105463D01*
X164612180Y-121046498D01*
X164492482Y-121010188D01*
X164368000Y-120997928D01*
X163353750Y-121001000D01*
X163195000Y-121159750D01*
X162941000Y-121159750D01*
X162782250Y-121001000D01*
X161768000Y-120997928D01*
X161643518Y-121010188D01*
X161523820Y-121046498D01*
X161413506Y-121105463D01*
X161316815Y-121184815D01*
X161237463Y-121281506D01*
X161178498Y-121391820D01*
X161142188Y-121511518D01*
X161129928Y-121636000D01*
X128135000Y-121636000D01*
X128135000Y-121554212D01*
X128091383Y-121334933D01*
X128005824Y-121128376D01*
X127881612Y-120942480D01*
X127723520Y-120784388D01*
X127712463Y-120777000D01*
X127723520Y-120769612D01*
X127881612Y-120611520D01*
X128005824Y-120425624D01*
X128091383Y-120219067D01*
X128135000Y-119999788D01*
X128135000Y-119776212D01*
X128091383Y-119556933D01*
X128005824Y-119350376D01*
X127881612Y-119164480D01*
X127723520Y-119006388D01*
X127537624Y-118882176D01*
X127513057Y-118872000D01*
X127537624Y-118861824D01*
X127723520Y-118737612D01*
X127881612Y-118579520D01*
X128005824Y-118393624D01*
X128091383Y-118187067D01*
X128135000Y-117967788D01*
X128135000Y-117744212D01*
X128091383Y-117524933D01*
X128005824Y-117318376D01*
X127934472Y-117211589D01*
X130695000Y-117211589D01*
X130695000Y-117484411D01*
X130748225Y-117751989D01*
X130852629Y-118004043D01*
X131004201Y-118230886D01*
X131197114Y-118423799D01*
X131423957Y-118575371D01*
X131676011Y-118679775D01*
X131943589Y-118733000D01*
X132216411Y-118733000D01*
X132483989Y-118679775D01*
X132736043Y-118575371D01*
X132962886Y-118423799D01*
X133155799Y-118230886D01*
X133307371Y-118004043D01*
X133411775Y-117751989D01*
X133465000Y-117484411D01*
X133465000Y-117211589D01*
X133419374Y-116982212D01*
X149741000Y-116982212D01*
X149741000Y-117205788D01*
X149784617Y-117425067D01*
X149870176Y-117631624D01*
X149994388Y-117817520D01*
X150152480Y-117975612D01*
X150338376Y-118099824D01*
X150544933Y-118185383D01*
X150764212Y-118229000D01*
X150987788Y-118229000D01*
X151207067Y-118185383D01*
X151413624Y-118099824D01*
X151599520Y-117975612D01*
X151757612Y-117817520D01*
X151881824Y-117631624D01*
X151967383Y-117425067D01*
X152011000Y-117205788D01*
X152011000Y-116982212D01*
X151967383Y-116762933D01*
X151881824Y-116556376D01*
X151757612Y-116370480D01*
X151599520Y-116212388D01*
X151413624Y-116088176D01*
X151207067Y-116002617D01*
X150987788Y-115959000D01*
X150764212Y-115959000D01*
X150544933Y-116002617D01*
X150338376Y-116088176D01*
X150152480Y-116212388D01*
X149994388Y-116370480D01*
X149870176Y-116556376D01*
X149784617Y-116762933D01*
X149741000Y-116982212D01*
X133419374Y-116982212D01*
X133411775Y-116944011D01*
X133307371Y-116691957D01*
X133155799Y-116465114D01*
X132962886Y-116272201D01*
X132736043Y-116120629D01*
X132483989Y-116016225D01*
X132216411Y-115963000D01*
X131943589Y-115963000D01*
X131676011Y-116016225D01*
X131423957Y-116120629D01*
X131197114Y-116272201D01*
X131004201Y-116465114D01*
X130852629Y-116691957D01*
X130748225Y-116944011D01*
X130695000Y-117211589D01*
X127934472Y-117211589D01*
X127881612Y-117132480D01*
X127723520Y-116974388D01*
X127537624Y-116850176D01*
X127513057Y-116840000D01*
X127537624Y-116829824D01*
X127723520Y-116705612D01*
X127881612Y-116547520D01*
X128005824Y-116361624D01*
X128091383Y-116155067D01*
X128135000Y-115935788D01*
X128135000Y-115712212D01*
X128091383Y-115492933D01*
X128005824Y-115286376D01*
X127881612Y-115100480D01*
X127723520Y-114942388D01*
X127537624Y-114818176D01*
X127331067Y-114732617D01*
X127111788Y-114689000D01*
X126888212Y-114689000D01*
X126668933Y-114732617D01*
X126462376Y-114818176D01*
X126276480Y-114942388D01*
X126118388Y-115100480D01*
X125994176Y-115286376D01*
X125908617Y-115492933D01*
X125865000Y-115712212D01*
X125865000Y-115935788D01*
X125908617Y-116155067D01*
X125994176Y-116361624D01*
X126118388Y-116547520D01*
X126276480Y-116705612D01*
X126462376Y-116829824D01*
X126486943Y-116840000D01*
X126462376Y-116850176D01*
X126276480Y-116974388D01*
X126118388Y-117132480D01*
X125994176Y-117318376D01*
X125908617Y-117524933D01*
X125865000Y-117744212D01*
X125865000Y-117967788D01*
X125908617Y-118187067D01*
X125994176Y-118393624D01*
X126118388Y-118579520D01*
X126276480Y-118737612D01*
X126462376Y-118861824D01*
X126486943Y-118872000D01*
X126462376Y-118882176D01*
X126276480Y-119006388D01*
X126118388Y-119164480D01*
X125994176Y-119350376D01*
X125908617Y-119556933D01*
X125865000Y-119776212D01*
X125865000Y-119999788D01*
X125908617Y-120219067D01*
X125994176Y-120425624D01*
X126118388Y-120611520D01*
X126276480Y-120769612D01*
X126287537Y-120777000D01*
X126276480Y-120784388D01*
X126118388Y-120942480D01*
X125994176Y-121128376D01*
X125908617Y-121334933D01*
X125873217Y-121512904D01*
X125845874Y-121375442D01*
X125760315Y-121168885D01*
X125636103Y-120982989D01*
X125478011Y-120824897D01*
X125292115Y-120700685D01*
X125085558Y-120615126D01*
X124866279Y-120571509D01*
X124642703Y-120571509D01*
X124423424Y-120615126D01*
X124216867Y-120700685D01*
X124030971Y-120824897D01*
X123872879Y-120982989D01*
X123748667Y-121168885D01*
X123663108Y-121375442D01*
X123619491Y-121594721D01*
X114470102Y-121594721D01*
X114486696Y-121537185D01*
X114526313Y-121069054D01*
X114473842Y-120602189D01*
X114331297Y-120154532D01*
X114140766Y-119798073D01*
X113799609Y-119611997D01*
X112309605Y-121102000D01*
X111950395Y-121102000D01*
X110460391Y-119611997D01*
X110119234Y-119798073D01*
X109903487Y-120215409D01*
X109773304Y-120666815D01*
X109733687Y-121134946D01*
X106032000Y-121134946D01*
X106032000Y-119432391D01*
X110639997Y-119432391D01*
X112130000Y-120922395D01*
X113620003Y-119432391D01*
X113433927Y-119091234D01*
X113016591Y-118875487D01*
X112565185Y-118745304D01*
X112097054Y-118705687D01*
X111630189Y-118758158D01*
X111182532Y-118900703D01*
X110826073Y-119091234D01*
X110639997Y-119432391D01*
X106032000Y-119432391D01*
X106032000Y-116400531D01*
X113349389Y-116400531D01*
X113391401Y-116690019D01*
X113489081Y-116965747D01*
X113562528Y-117103157D01*
X113811603Y-117180792D01*
X114660395Y-116332000D01*
X113811603Y-115483208D01*
X113562528Y-115560843D01*
X113436629Y-115824883D01*
X113364661Y-116108411D01*
X113349389Y-116400531D01*
X106032000Y-116400531D01*
X106032000Y-113685740D01*
X113355000Y-113685740D01*
X113355000Y-113978260D01*
X113412068Y-114265158D01*
X113524010Y-114535411D01*
X113686525Y-114778632D01*
X113893368Y-114985475D01*
X114056410Y-115094416D01*
X113991208Y-115303603D01*
X114840000Y-116152395D01*
X114854143Y-116138253D01*
X115033748Y-116317858D01*
X115019605Y-116332000D01*
X115033748Y-116346143D01*
X114854143Y-116525748D01*
X114840000Y-116511605D01*
X113991208Y-117360397D01*
X114068843Y-117609472D01*
X114332883Y-117735371D01*
X114616411Y-117807339D01*
X114908531Y-117822611D01*
X115198019Y-117780599D01*
X115473747Y-117682919D01*
X115549850Y-117642241D01*
X115635506Y-117712537D01*
X115745820Y-117771502D01*
X115865518Y-117807812D01*
X115990000Y-117820072D01*
X117690000Y-117820072D01*
X117814482Y-117807812D01*
X117934180Y-117771502D01*
X118044494Y-117712537D01*
X118141185Y-117633185D01*
X118220537Y-117536494D01*
X118279502Y-117426180D01*
X118315812Y-117306482D01*
X118328072Y-117182000D01*
X118328072Y-115482000D01*
X118315812Y-115357518D01*
X118279502Y-115237820D01*
X118220537Y-115127506D01*
X118141185Y-115030815D01*
X118044494Y-114951463D01*
X117934180Y-114892498D01*
X117892310Y-114879797D01*
X117993475Y-114778632D01*
X118155990Y-114535411D01*
X118267932Y-114265158D01*
X118325000Y-113978260D01*
X118325000Y-113685740D01*
X118285513Y-113487224D01*
X124026000Y-113487224D01*
X124026000Y-113710800D01*
X124069617Y-113930079D01*
X124155176Y-114136636D01*
X124279388Y-114322532D01*
X124437480Y-114480624D01*
X124623376Y-114604836D01*
X124829933Y-114690395D01*
X125049212Y-114734012D01*
X125272788Y-114734012D01*
X125492067Y-114690395D01*
X125698624Y-114604836D01*
X125884520Y-114480624D01*
X126042612Y-114322532D01*
X126100883Y-114235324D01*
X126118388Y-114261522D01*
X126276480Y-114419614D01*
X126462376Y-114543826D01*
X126668933Y-114629385D01*
X126888212Y-114673002D01*
X127111788Y-114673002D01*
X127331067Y-114629385D01*
X127537624Y-114543826D01*
X127723520Y-114419614D01*
X127881612Y-114261522D01*
X128005824Y-114075626D01*
X128091383Y-113869069D01*
X128135000Y-113649790D01*
X128135000Y-113426214D01*
X128091383Y-113206935D01*
X128005824Y-113000378D01*
X127881612Y-112814482D01*
X127723520Y-112656390D01*
X127537624Y-112532178D01*
X127331067Y-112446619D01*
X127111788Y-112403002D01*
X126888212Y-112403002D01*
X126668933Y-112446619D01*
X126462376Y-112532178D01*
X126276480Y-112656390D01*
X126118388Y-112814482D01*
X126060117Y-112901690D01*
X126042612Y-112875492D01*
X125884520Y-112717400D01*
X125698624Y-112593188D01*
X125492067Y-112507629D01*
X125272788Y-112464012D01*
X125049212Y-112464012D01*
X124829933Y-112507629D01*
X124623376Y-112593188D01*
X124437480Y-112717400D01*
X124279388Y-112875492D01*
X124155176Y-113061388D01*
X124069617Y-113267945D01*
X124026000Y-113487224D01*
X118285513Y-113487224D01*
X118267932Y-113398842D01*
X118155990Y-113128589D01*
X117993475Y-112885368D01*
X117786632Y-112678525D01*
X117543411Y-112516010D01*
X117273158Y-112404068D01*
X116986260Y-112347000D01*
X116693740Y-112347000D01*
X116406842Y-112404068D01*
X116136589Y-112516010D01*
X115893368Y-112678525D01*
X115840000Y-112731893D01*
X115786632Y-112678525D01*
X115543411Y-112516010D01*
X115273158Y-112404068D01*
X114986260Y-112347000D01*
X114693740Y-112347000D01*
X114406842Y-112404068D01*
X114136589Y-112516010D01*
X113893368Y-112678525D01*
X113686525Y-112885368D01*
X113524010Y-113128589D01*
X113412068Y-113398842D01*
X113355000Y-113685740D01*
X106032000Y-113685740D01*
X106032000Y-110731609D01*
X110639997Y-110731609D01*
X110826073Y-111072766D01*
X111243409Y-111288513D01*
X111694815Y-111418696D01*
X112162946Y-111458313D01*
X112629811Y-111405842D01*
X113077468Y-111263297D01*
X113433927Y-111072766D01*
X113620003Y-110731609D01*
X112130000Y-109241605D01*
X110639997Y-110731609D01*
X106032000Y-110731609D01*
X106032000Y-109094946D01*
X109733687Y-109094946D01*
X109786158Y-109561811D01*
X109928703Y-110009468D01*
X110119234Y-110365927D01*
X110460391Y-110552003D01*
X111950395Y-109062000D01*
X112309605Y-109062000D01*
X113799609Y-110552003D01*
X114140766Y-110365927D01*
X114356513Y-109948591D01*
X114486696Y-109497185D01*
X114526313Y-109029054D01*
X114473842Y-108562189D01*
X114331297Y-108114532D01*
X114140766Y-107758073D01*
X113799609Y-107571997D01*
X112309605Y-109062000D01*
X111950395Y-109062000D01*
X110460391Y-107571997D01*
X110119234Y-107758073D01*
X109903487Y-108175409D01*
X109773304Y-108626815D01*
X109733687Y-109094946D01*
X106032000Y-109094946D01*
X106032000Y-107392391D01*
X110639997Y-107392391D01*
X112130000Y-108882395D01*
X113620003Y-107392391D01*
X113433927Y-107051234D01*
X113016591Y-106835487D01*
X112565185Y-106705304D01*
X112097054Y-106665687D01*
X111630189Y-106718158D01*
X111182532Y-106860703D01*
X110826073Y-107051234D01*
X110639997Y-107392391D01*
X106032000Y-107392391D01*
X106032000Y-92194000D01*
X110637928Y-92194000D01*
X110637928Y-94694000D01*
X110650188Y-94818482D01*
X110686498Y-94938180D01*
X110745463Y-95048494D01*
X110824815Y-95145185D01*
X110921506Y-95224537D01*
X111031820Y-95283502D01*
X111151518Y-95319812D01*
X111276000Y-95332072D01*
X114276000Y-95332072D01*
X114400482Y-95319812D01*
X114520180Y-95283502D01*
X114630494Y-95224537D01*
X114727185Y-95145185D01*
X114806537Y-95048494D01*
X114865502Y-94938180D01*
X114901812Y-94818482D01*
X114914072Y-94694000D01*
X114914072Y-92194000D01*
X114901812Y-92069518D01*
X114865502Y-91949820D01*
X114806537Y-91839506D01*
X114727185Y-91742815D01*
X114630494Y-91663463D01*
X114520180Y-91604498D01*
X114400482Y-91568188D01*
X114276000Y-91555928D01*
X111276000Y-91555928D01*
X111151518Y-91568188D01*
X111031820Y-91604498D01*
X110921506Y-91663463D01*
X110824815Y-91742815D01*
X110745463Y-91839506D01*
X110686498Y-91949820D01*
X110650188Y-92069518D01*
X110637928Y-92194000D01*
X106032000Y-92194000D01*
X106032000Y-91515066D01*
X108684539Y-91515066D01*
X108786339Y-91784579D01*
X109084477Y-91930463D01*
X109405346Y-92015380D01*
X109736617Y-92036066D01*
X110065557Y-91991728D01*
X110379527Y-91884069D01*
X110565661Y-91784579D01*
X110667461Y-91515066D01*
X109676000Y-90523605D01*
X108684539Y-91515066D01*
X106032000Y-91515066D01*
X106032000Y-90404617D01*
X107983934Y-90404617D01*
X108028272Y-90733557D01*
X108135931Y-91047527D01*
X108235421Y-91233661D01*
X108504934Y-91335461D01*
X109496395Y-90344000D01*
X109855605Y-90344000D01*
X110847066Y-91335461D01*
X111116579Y-91233661D01*
X111262463Y-90935523D01*
X111347380Y-90614654D01*
X111368066Y-90283383D01*
X111323728Y-89954443D01*
X111216069Y-89640473D01*
X111116579Y-89454339D01*
X110847066Y-89352539D01*
X109855605Y-90344000D01*
X109496395Y-90344000D01*
X108504934Y-89352539D01*
X108235421Y-89454339D01*
X108089537Y-89752477D01*
X108004620Y-90073346D01*
X107983934Y-90404617D01*
X106032000Y-90404617D01*
X106032000Y-89172934D01*
X108684539Y-89172934D01*
X109676000Y-90164395D01*
X110667461Y-89172934D01*
X110565661Y-88903421D01*
X110267523Y-88757537D01*
X109946654Y-88672620D01*
X109615383Y-88651934D01*
X109286443Y-88696272D01*
X108972473Y-88803931D01*
X108786339Y-88903421D01*
X108684539Y-89172934D01*
X106032000Y-89172934D01*
X106032000Y-87678042D01*
X110591000Y-87678042D01*
X110591000Y-88009958D01*
X110655754Y-88335496D01*
X110782772Y-88642147D01*
X110967175Y-88918125D01*
X111201875Y-89152825D01*
X111477853Y-89337228D01*
X111784504Y-89464246D01*
X112110042Y-89529000D01*
X112441958Y-89529000D01*
X112767496Y-89464246D01*
X112805644Y-89448445D01*
X124970000Y-101612802D01*
X124970001Y-103887999D01*
X116517802Y-103887999D01*
X115929294Y-103299492D01*
X115943134Y-103288134D01*
X116128706Y-103062014D01*
X116142462Y-103036278D01*
X116298951Y-103242429D01*
X116516807Y-103435496D01*
X116768142Y-103582352D01*
X117031110Y-103674476D01*
X117261000Y-103553155D01*
X117261000Y-102235000D01*
X117241000Y-102235000D01*
X117241000Y-101981000D01*
X117261000Y-101981000D01*
X117261000Y-100662845D01*
X117515000Y-100662845D01*
X117515000Y-101981000D01*
X117535000Y-101981000D01*
X117535000Y-102235000D01*
X117515000Y-102235000D01*
X117515000Y-103553155D01*
X117744890Y-103674476D01*
X118007858Y-103582352D01*
X118259193Y-103435496D01*
X118477049Y-103242429D01*
X118493286Y-103221039D01*
X118549595Y-103326386D01*
X118660038Y-103460962D01*
X118794614Y-103571405D01*
X118948150Y-103653472D01*
X119114746Y-103704008D01*
X119288000Y-103721072D01*
X120488000Y-103721072D01*
X120661254Y-103704008D01*
X120827850Y-103653472D01*
X120981386Y-103571405D01*
X121115962Y-103460962D01*
X121226405Y-103326386D01*
X121308472Y-103172850D01*
X121359008Y-103006254D01*
X121376072Y-102833000D01*
X121376072Y-101383000D01*
X121359008Y-101209746D01*
X121308472Y-101043150D01*
X121226405Y-100889614D01*
X121115962Y-100755038D01*
X120981386Y-100644595D01*
X120827850Y-100562528D01*
X120661254Y-100511992D01*
X120488000Y-100494928D01*
X119288000Y-100494928D01*
X119114746Y-100511992D01*
X118948150Y-100562528D01*
X118794614Y-100644595D01*
X118660038Y-100755038D01*
X118549595Y-100889614D01*
X118493286Y-100994961D01*
X118477049Y-100973571D01*
X118259193Y-100780504D01*
X118007858Y-100633648D01*
X117744890Y-100541524D01*
X117515000Y-100662845D01*
X117261000Y-100662845D01*
X117031110Y-100541524D01*
X116768142Y-100633648D01*
X116516807Y-100780504D01*
X116298951Y-100973571D01*
X116142462Y-101179722D01*
X116128706Y-101153986D01*
X115943134Y-100927866D01*
X115717014Y-100742294D01*
X115459034Y-100604401D01*
X115179111Y-100519487D01*
X114888000Y-100490815D01*
X114596890Y-100519487D01*
X114316967Y-100604401D01*
X114058987Y-100742294D01*
X113832866Y-100927866D01*
X113647294Y-101153986D01*
X113638000Y-101171374D01*
X113628706Y-101153986D01*
X113443134Y-100927866D01*
X113217014Y-100742294D01*
X112959034Y-100604401D01*
X112679111Y-100519487D01*
X112388000Y-100490815D01*
X112096890Y-100519487D01*
X111816967Y-100604401D01*
X111558987Y-100742294D01*
X111332866Y-100927866D01*
X111147294Y-101153986D01*
X111009401Y-101411966D01*
X110924487Y-101691889D01*
X110903000Y-101910050D01*
X110903000Y-102305949D01*
X110924487Y-102524110D01*
X111009401Y-102804033D01*
X111147294Y-103062013D01*
X111332866Y-103288134D01*
X111558986Y-103473706D01*
X111816966Y-103611599D01*
X112096889Y-103696513D01*
X112388000Y-103725185D01*
X112679110Y-103696513D01*
X112849902Y-103644704D01*
X114814209Y-105609011D01*
X114838008Y-105638010D01*
X114953733Y-105732983D01*
X115085762Y-105803555D01*
X115229023Y-105847012D01*
X115340676Y-105858009D01*
X115340685Y-105858009D01*
X115378008Y-105861685D01*
X115415331Y-105858009D01*
X125103208Y-105858009D01*
X130384223Y-111139025D01*
X130408022Y-111168024D01*
X130523747Y-111262997D01*
X130655776Y-111333569D01*
X130799037Y-111377026D01*
X130910690Y-111388023D01*
X130910698Y-111388023D01*
X130948023Y-111391699D01*
X130985348Y-111388023D01*
X131203367Y-111388023D01*
X131197114Y-111392201D01*
X131004201Y-111585114D01*
X130852629Y-111811957D01*
X130748225Y-112064011D01*
X130695000Y-112331589D01*
X130695000Y-112604411D01*
X130748225Y-112871989D01*
X130852629Y-113124043D01*
X131004201Y-113350886D01*
X131197114Y-113543799D01*
X131423957Y-113695371D01*
X131676011Y-113799775D01*
X131943589Y-113853000D01*
X132216411Y-113853000D01*
X132483989Y-113799775D01*
X132736043Y-113695371D01*
X132962886Y-113543799D01*
X133155799Y-113350886D01*
X133307371Y-113124043D01*
X133411775Y-112871989D01*
X133465000Y-112604411D01*
X133465000Y-112331589D01*
X133411775Y-112064011D01*
X133307371Y-111811957D01*
X133155799Y-111585114D01*
X132962886Y-111392201D01*
X132956633Y-111388023D01*
X137994992Y-111388023D01*
X142941971Y-116335003D01*
X142965769Y-116364001D01*
X142994767Y-116387799D01*
X143081493Y-116458974D01*
X143179958Y-116511605D01*
X143213523Y-116529546D01*
X143356784Y-116573003D01*
X143468437Y-116584000D01*
X143468446Y-116584000D01*
X143505769Y-116587676D01*
X143543092Y-116584000D01*
X148298678Y-116584000D01*
X148336000Y-116587676D01*
X148373322Y-116584000D01*
X148373333Y-116584000D01*
X148484986Y-116573003D01*
X148628247Y-116529546D01*
X148760276Y-116458974D01*
X148876001Y-116364001D01*
X148899803Y-116334998D01*
X149899802Y-115335000D01*
X149961939Y-115335000D01*
X150161898Y-115295226D01*
X150350256Y-115217205D01*
X150519774Y-115103937D01*
X150663937Y-114959774D01*
X150777205Y-114790256D01*
X150855226Y-114601898D01*
X150895000Y-114401939D01*
X150895000Y-114198061D01*
X150855226Y-113998102D01*
X150777205Y-113809744D01*
X150663937Y-113640226D01*
X150519774Y-113496063D01*
X150350256Y-113382795D01*
X150161898Y-113304774D01*
X149961939Y-113265000D01*
X149758061Y-113265000D01*
X149558102Y-113304774D01*
X149369744Y-113382795D01*
X149200226Y-113496063D01*
X149096000Y-113600289D01*
X149096000Y-112012000D01*
X149314678Y-112012000D01*
X149352000Y-112015676D01*
X149369083Y-112013993D01*
X149425063Y-112097774D01*
X149569226Y-112241937D01*
X149738744Y-112355205D01*
X149927102Y-112433226D01*
X150127061Y-112473000D01*
X150330939Y-112473000D01*
X150530898Y-112433226D01*
X150719256Y-112355205D01*
X150888774Y-112241937D01*
X151032937Y-112097774D01*
X151146205Y-111928256D01*
X151224226Y-111739898D01*
X151264000Y-111539939D01*
X151264000Y-111477801D01*
X152253802Y-110488000D01*
X152870678Y-110488000D01*
X152908000Y-110491676D01*
X152945322Y-110488000D01*
X152945333Y-110488000D01*
X153056986Y-110477003D01*
X153200247Y-110433546D01*
X153332276Y-110362974D01*
X153448001Y-110268001D01*
X153471804Y-110238997D01*
X156155018Y-107555785D01*
X156184011Y-107531991D01*
X156207805Y-107502998D01*
X156207809Y-107502994D01*
X156278983Y-107416267D01*
X156278984Y-107416266D01*
X156349556Y-107284237D01*
X156393013Y-107140976D01*
X156404010Y-107029323D01*
X156404010Y-107029314D01*
X156407686Y-106991991D01*
X156404010Y-106954668D01*
X156404010Y-106314212D01*
X161425000Y-106314212D01*
X161425000Y-106537788D01*
X161468617Y-106757067D01*
X161554176Y-106963624D01*
X161678388Y-107149520D01*
X161836480Y-107307612D01*
X162022376Y-107431824D01*
X162228933Y-107517383D01*
X162448212Y-107561000D01*
X162671788Y-107561000D01*
X162891067Y-107517383D01*
X163097624Y-107431824D01*
X163283520Y-107307612D01*
X163441612Y-107149520D01*
X163565824Y-106963624D01*
X163651383Y-106757067D01*
X163695000Y-106537788D01*
X163695000Y-106314212D01*
X163651383Y-106094933D01*
X163565824Y-105888376D01*
X163441612Y-105702480D01*
X163283520Y-105544388D01*
X163097624Y-105420176D01*
X162891067Y-105334617D01*
X162671788Y-105291000D01*
X162448212Y-105291000D01*
X162228933Y-105334617D01*
X162022376Y-105420176D01*
X161836480Y-105544388D01*
X161678388Y-105702480D01*
X161554176Y-105888376D01*
X161468617Y-106094933D01*
X161425000Y-106314212D01*
X156404010Y-106314212D01*
X156404010Y-101234212D01*
X157869000Y-101234212D01*
X157869000Y-101457788D01*
X157912617Y-101677067D01*
X157998176Y-101883624D01*
X158122388Y-102069520D01*
X158280480Y-102227612D01*
X158466376Y-102351824D01*
X158672933Y-102437383D01*
X158892212Y-102481000D01*
X159115788Y-102481000D01*
X159335067Y-102437383D01*
X159541624Y-102351824D01*
X159727520Y-102227612D01*
X159885612Y-102069520D01*
X160009824Y-101883624D01*
X160095383Y-101677067D01*
X160139000Y-101457788D01*
X160139000Y-101234212D01*
X160095383Y-101014933D01*
X160009824Y-100808376D01*
X159885612Y-100622480D01*
X159727520Y-100464388D01*
X159541624Y-100340176D01*
X159335067Y-100254617D01*
X159115788Y-100211000D01*
X158892212Y-100211000D01*
X158672933Y-100254617D01*
X158466376Y-100340176D01*
X158280480Y-100464388D01*
X158122388Y-100622480D01*
X157998176Y-100808376D01*
X157912617Y-101014933D01*
X157869000Y-101234212D01*
X156404010Y-101234212D01*
X156404010Y-94098791D01*
X157794802Y-92708000D01*
X159514001Y-92708000D01*
X159514001Y-93180668D01*
X159510324Y-93218000D01*
X159514001Y-93255333D01*
X159524998Y-93366986D01*
X159538180Y-93410442D01*
X159568454Y-93510246D01*
X159639026Y-93642276D01*
X159697070Y-93713002D01*
X159734000Y-93758001D01*
X159762998Y-93781799D01*
X160222853Y-94241655D01*
X160246652Y-94270654D01*
X160362377Y-94365627D01*
X160494406Y-94436199D01*
X160637667Y-94479656D01*
X160749320Y-94490653D01*
X160749330Y-94490653D01*
X160786653Y-94494329D01*
X160823976Y-94490653D01*
X161751220Y-94490653D01*
X161775305Y-94520001D01*
X161891030Y-94614974D01*
X162023060Y-94685546D01*
X162166321Y-94729002D01*
X162315306Y-94743676D01*
X162340000Y-94741244D01*
X162462714Y-94765653D01*
X162666592Y-94765653D01*
X162866551Y-94725879D01*
X163054909Y-94647858D01*
X163224427Y-94534590D01*
X163368590Y-94390427D01*
X163474447Y-94232000D01*
X187118868Y-94232000D01*
X187078388Y-94272480D01*
X186954176Y-94458376D01*
X186868617Y-94664933D01*
X186825000Y-94884212D01*
X186825000Y-95107788D01*
X186868617Y-95327067D01*
X186954176Y-95533624D01*
X187078388Y-95719520D01*
X187236480Y-95877612D01*
X187422376Y-96001824D01*
X187628933Y-96087383D01*
X187848212Y-96131000D01*
X188071788Y-96131000D01*
X188291067Y-96087383D01*
X188497624Y-96001824D01*
X188683520Y-95877612D01*
X188841612Y-95719520D01*
X188965824Y-95533624D01*
X189051383Y-95327067D01*
X189095000Y-95107788D01*
X189095000Y-94884212D01*
X189051383Y-94664933D01*
X188965824Y-94458376D01*
X188841612Y-94272480D01*
X188801132Y-94232000D01*
X190244521Y-94232000D01*
X190244324Y-94234000D01*
X190248000Y-94271322D01*
X190248001Y-106847668D01*
X190244324Y-106885000D01*
X190248001Y-106922333D01*
X190251022Y-106953000D01*
X190258998Y-107033985D01*
X190302454Y-107177246D01*
X190373026Y-107309276D01*
X190444201Y-107396002D01*
X190468000Y-107425001D01*
X190496998Y-107448799D01*
X191013500Y-107965302D01*
X191013500Y-108027439D01*
X191053274Y-108227398D01*
X191131295Y-108415756D01*
X191244563Y-108585274D01*
X191388726Y-108729437D01*
X191558244Y-108842705D01*
X191746602Y-108920726D01*
X191946561Y-108960500D01*
X192150439Y-108960500D01*
X192350398Y-108920726D01*
X192538756Y-108842705D01*
X192708274Y-108729437D01*
X192852437Y-108585274D01*
X192965705Y-108415756D01*
X193043726Y-108227398D01*
X193083500Y-108027439D01*
X193083500Y-107823561D01*
X193043726Y-107623602D01*
X192965705Y-107435244D01*
X192852437Y-107265726D01*
X192757869Y-107171158D01*
X192938061Y-107207000D01*
X193141939Y-107207000D01*
X193341898Y-107167226D01*
X193530256Y-107089205D01*
X193699774Y-106975937D01*
X193843937Y-106831774D01*
X193957205Y-106662256D01*
X194035226Y-106473898D01*
X194075000Y-106273939D01*
X194075000Y-106211802D01*
X195075008Y-105211795D01*
X195104001Y-105188001D01*
X195127795Y-105159008D01*
X195127799Y-105159004D01*
X195198973Y-105072277D01*
X195198974Y-105072276D01*
X195269546Y-104940247D01*
X195313003Y-104796986D01*
X195324000Y-104685333D01*
X195324000Y-104685324D01*
X195327676Y-104648001D01*
X195324000Y-104610678D01*
X195324000Y-102610333D01*
X195420537Y-102727963D01*
X195662265Y-102926345D01*
X195938051Y-103073755D01*
X196237296Y-103164530D01*
X196470514Y-103187500D01*
X196721486Y-103187500D01*
X196954704Y-103164530D01*
X197253949Y-103073755D01*
X197529735Y-102926345D01*
X197771463Y-102727963D01*
X197969845Y-102486235D01*
X198117255Y-102210449D01*
X198208030Y-101911204D01*
X198238681Y-101600000D01*
X198208030Y-101288796D01*
X198117255Y-100989551D01*
X198093442Y-100945000D01*
X198775000Y-100945000D01*
X198775001Y-106105565D01*
X195836582Y-109043984D01*
X195764655Y-109103013D01*
X195529097Y-109390041D01*
X195354061Y-109717511D01*
X195290912Y-109925685D01*
X195262228Y-110020246D01*
X195246275Y-110072835D01*
X195219000Y-110349762D01*
X195219000Y-110349769D01*
X195209881Y-110442358D01*
X195219000Y-110534947D01*
X195219000Y-111000000D01*
X174107804Y-111000000D01*
X166120016Y-103012212D01*
X186825000Y-103012212D01*
X186825000Y-103235788D01*
X186868617Y-103455067D01*
X186954176Y-103661624D01*
X187078388Y-103847520D01*
X187236480Y-104005612D01*
X187422376Y-104129824D01*
X187628933Y-104215383D01*
X187848212Y-104259000D01*
X188071788Y-104259000D01*
X188291067Y-104215383D01*
X188497624Y-104129824D01*
X188683520Y-104005612D01*
X188841612Y-103847520D01*
X188965824Y-103661624D01*
X189051383Y-103455067D01*
X189095000Y-103235788D01*
X189095000Y-103012212D01*
X189051383Y-102792933D01*
X188965824Y-102586376D01*
X188841612Y-102400480D01*
X188683520Y-102242388D01*
X188497624Y-102118176D01*
X188291067Y-102032617D01*
X188071788Y-101989000D01*
X187848212Y-101989000D01*
X187628933Y-102032617D01*
X187422376Y-102118176D01*
X187236480Y-102242388D01*
X187078388Y-102400480D01*
X186954176Y-102586376D01*
X186868617Y-102792933D01*
X186825000Y-103012212D01*
X166120016Y-103012212D01*
X163828000Y-100720197D01*
X163828000Y-98493727D01*
X163871937Y-98449790D01*
X163985205Y-98280272D01*
X164063226Y-98091914D01*
X164103000Y-97891955D01*
X164103000Y-97688077D01*
X164063226Y-97488118D01*
X163985205Y-97299760D01*
X163871937Y-97130242D01*
X163727774Y-96986079D01*
X163558256Y-96872811D01*
X163369898Y-96794790D01*
X163169939Y-96755016D01*
X162966061Y-96755016D01*
X162766102Y-96794790D01*
X162577744Y-96872811D01*
X162408226Y-96986079D01*
X162264063Y-97130242D01*
X162150795Y-97299760D01*
X162072774Y-97488118D01*
X162033000Y-97688077D01*
X162033000Y-97891955D01*
X162072774Y-98091914D01*
X162150795Y-98280272D01*
X162264063Y-98449790D01*
X162308001Y-98493728D01*
X162308000Y-100997675D01*
X162304324Y-101034998D01*
X162308000Y-101072320D01*
X162308000Y-101072330D01*
X162318997Y-101183983D01*
X162350791Y-101288796D01*
X162362454Y-101327244D01*
X162433026Y-101459274D01*
X162467442Y-101501209D01*
X162527999Y-101574999D01*
X162557003Y-101598802D01*
X173229203Y-112271003D01*
X173253001Y-112300001D01*
X173368726Y-112394974D01*
X173500755Y-112465546D01*
X173644016Y-112509003D01*
X173755669Y-112520000D01*
X173755678Y-112520000D01*
X173793001Y-112523676D01*
X173830324Y-112520000D01*
X195219000Y-112520000D01*
X195219001Y-118359206D01*
X189649623Y-123928585D01*
X189637244Y-123931047D01*
X189248698Y-124091988D01*
X188899017Y-124325637D01*
X188601637Y-124623017D01*
X188367988Y-124972698D01*
X188207047Y-125361244D01*
X188125000Y-125773721D01*
X188125000Y-126194279D01*
X188207047Y-126606756D01*
X188367988Y-126995302D01*
X188601637Y-127344983D01*
X188899017Y-127642363D01*
X189248698Y-127876012D01*
X189637244Y-128036953D01*
X190049721Y-128119000D01*
X190470279Y-128119000D01*
X190882756Y-128036953D01*
X191271302Y-127876012D01*
X191620983Y-127642363D01*
X191918363Y-127344983D01*
X192152012Y-126995302D01*
X192262106Y-126729510D01*
X196870155Y-126729510D01*
X196935395Y-127412888D01*
X197132702Y-128070407D01*
X197454494Y-128676799D01*
X197466150Y-128694243D01*
X197919967Y-129012428D01*
X200192395Y-126740000D01*
X200551605Y-126740000D01*
X202824033Y-129012428D01*
X203277850Y-128694243D01*
X203603269Y-128089790D01*
X203804512Y-127433465D01*
X203873845Y-126750490D01*
X203808605Y-126067112D01*
X203611298Y-125409593D01*
X203289506Y-124803201D01*
X203277850Y-124785757D01*
X202824033Y-124467572D01*
X200551605Y-126740000D01*
X200192395Y-126740000D01*
X197919967Y-124467572D01*
X197466150Y-124785757D01*
X197140731Y-125390210D01*
X196939488Y-126046535D01*
X196870155Y-126729510D01*
X192262106Y-126729510D01*
X192312953Y-126606756D01*
X192315415Y-126594377D01*
X194621825Y-124287967D01*
X198099572Y-124287967D01*
X200372000Y-126560395D01*
X202644428Y-124287967D01*
X202326243Y-123834150D01*
X201721790Y-123508731D01*
X201065465Y-123307488D01*
X200382490Y-123238155D01*
X199699112Y-123303395D01*
X199041593Y-123500702D01*
X198435201Y-123822494D01*
X198417757Y-123834150D01*
X198099572Y-124287967D01*
X194621825Y-124287967D01*
X198371423Y-120538370D01*
X198443345Y-120479345D01*
X198678903Y-120192317D01*
X198853939Y-119864848D01*
X198961725Y-119509524D01*
X198989000Y-119232597D01*
X198998120Y-119140000D01*
X198989000Y-119047403D01*
X198989000Y-113609508D01*
X198989550Y-113610058D01*
X199103816Y-113495792D01*
X199301071Y-113846471D01*
X199734232Y-114071495D01*
X200202971Y-114207688D01*
X200689274Y-114249818D01*
X201174451Y-114196266D01*
X201639858Y-114049090D01*
X202018929Y-113846471D01*
X202216185Y-113495790D01*
X200660000Y-111939605D01*
X200645858Y-111953748D01*
X200466253Y-111774143D01*
X200480395Y-111760000D01*
X200839605Y-111760000D01*
X202395790Y-113316185D01*
X202746471Y-113118929D01*
X202971495Y-112685768D01*
X203107688Y-112217029D01*
X203149818Y-111730726D01*
X203096266Y-111245549D01*
X202949090Y-110780142D01*
X202746471Y-110401071D01*
X202395790Y-110203815D01*
X200839605Y-111760000D01*
X200480395Y-111760000D01*
X200466253Y-111745858D01*
X200645858Y-111566253D01*
X200660000Y-111580395D01*
X202216185Y-110024210D01*
X202018929Y-109673529D01*
X201585768Y-109448505D01*
X201117029Y-109312312D01*
X200917154Y-109294996D01*
X201927418Y-108284732D01*
X201999345Y-108225703D01*
X202234903Y-107938675D01*
X202409939Y-107611206D01*
X202517725Y-107255882D01*
X202545000Y-106978955D01*
X202545000Y-106978946D01*
X202554119Y-106886359D01*
X202545000Y-106793772D01*
X202545000Y-99660586D01*
X202554119Y-99567999D01*
X202545000Y-99475412D01*
X202545000Y-99475403D01*
X202517725Y-99198476D01*
X202409939Y-98843152D01*
X202234903Y-98515683D01*
X201999345Y-98228655D01*
X201927413Y-98169622D01*
X201550375Y-97792583D01*
X201491345Y-97720655D01*
X201204317Y-97485097D01*
X200876848Y-97310061D01*
X200521524Y-97202275D01*
X200244597Y-97175000D01*
X200244589Y-97175000D01*
X200152000Y-97165881D01*
X200059411Y-97175000D01*
X198234072Y-97175000D01*
X198234072Y-95567500D01*
X198221812Y-95443018D01*
X198185502Y-95323320D01*
X198126537Y-95213006D01*
X198047185Y-95116315D01*
X197950494Y-95036963D01*
X197840180Y-94977998D01*
X197720482Y-94941688D01*
X197596000Y-94929428D01*
X195596000Y-94929428D01*
X195471518Y-94941688D01*
X195351820Y-94977998D01*
X195241506Y-95036963D01*
X195144815Y-95116315D01*
X195065463Y-95213006D01*
X195006498Y-95323320D01*
X194970188Y-95443018D01*
X194957928Y-95567500D01*
X194957928Y-97083271D01*
X194053003Y-97988196D01*
X194023999Y-98011999D01*
X193982963Y-98062002D01*
X193929026Y-98127724D01*
X193892499Y-98196061D01*
X193858454Y-98259754D01*
X193814997Y-98403015D01*
X193804000Y-98514668D01*
X193804000Y-98514678D01*
X193800324Y-98552000D01*
X193804000Y-98589323D01*
X193804001Y-104333196D01*
X193000198Y-105137000D01*
X192938061Y-105137000D01*
X192919165Y-105140759D01*
X192827937Y-105004226D01*
X192784000Y-104960289D01*
X192784000Y-94605803D01*
X193697003Y-93692801D01*
X193726000Y-93669004D01*
X193820973Y-93553279D01*
X193891545Y-93421250D01*
X193935002Y-93277989D01*
X193945999Y-93166336D01*
X193945999Y-93166328D01*
X193949675Y-93129003D01*
X193945999Y-93091678D01*
X193945999Y-92639322D01*
X193949676Y-92601989D01*
X193935002Y-92453003D01*
X193891545Y-92309742D01*
X193820973Y-92177713D01*
X193749798Y-92090986D01*
X193726000Y-92061988D01*
X193697002Y-92038190D01*
X193059010Y-91400199D01*
X193059010Y-91338061D01*
X193019236Y-91138102D01*
X192941215Y-90949744D01*
X192827947Y-90780226D01*
X192683784Y-90636063D01*
X192514266Y-90522795D01*
X192325908Y-90444774D01*
X192125949Y-90405000D01*
X191922071Y-90405000D01*
X191722112Y-90444774D01*
X191533754Y-90522795D01*
X191364236Y-90636063D01*
X191320299Y-90680000D01*
X163105322Y-90680000D01*
X163067999Y-90676324D01*
X163030676Y-90680000D01*
X163030667Y-90680000D01*
X162919014Y-90690997D01*
X162775753Y-90734454D01*
X162643724Y-90805026D01*
X162643722Y-90805027D01*
X162643723Y-90805027D01*
X162556996Y-90876201D01*
X162556992Y-90876205D01*
X162527999Y-90899999D01*
X162504205Y-90928992D01*
X162052000Y-91381198D01*
X160837804Y-90167003D01*
X160814001Y-90137999D01*
X160698276Y-90043026D01*
X160566247Y-89972454D01*
X160422986Y-89928997D01*
X160311333Y-89918000D01*
X160311322Y-89918000D01*
X160274000Y-89914324D01*
X160236678Y-89918000D01*
X158691711Y-89918000D01*
X158647774Y-89874063D01*
X158478256Y-89760795D01*
X158289898Y-89682774D01*
X158089939Y-89643000D01*
X157886061Y-89643000D01*
X157686102Y-89682774D01*
X157497744Y-89760795D01*
X157328226Y-89874063D01*
X157184063Y-90018226D01*
X157070795Y-90187744D01*
X156992774Y-90376102D01*
X156953000Y-90576061D01*
X156953000Y-90638198D01*
X154682998Y-92908201D01*
X154654000Y-92931999D01*
X154630202Y-92960997D01*
X154630201Y-92960998D01*
X154559026Y-93047724D01*
X154488454Y-93179754D01*
X154465251Y-93256247D01*
X154444998Y-93323014D01*
X154434583Y-93428755D01*
X154430324Y-93472000D01*
X154434001Y-93509332D01*
X154434000Y-106239608D01*
X152271600Y-108402009D01*
X151479324Y-108402009D01*
X151441991Y-108398332D01*
X151404658Y-108402009D01*
X151293005Y-108413006D01*
X151149744Y-108456463D01*
X151017715Y-108527035D01*
X150901990Y-108622008D01*
X150878192Y-108651006D01*
X149038455Y-110490744D01*
X148995774Y-110448063D01*
X148826256Y-110334795D01*
X148637898Y-110256774D01*
X148437939Y-110217000D01*
X148234061Y-110217000D01*
X148034102Y-110256774D01*
X147845744Y-110334795D01*
X147676226Y-110448063D01*
X147532063Y-110592226D01*
X147418795Y-110761744D01*
X147340774Y-110950102D01*
X147301000Y-111150061D01*
X147301000Y-111353939D01*
X147340774Y-111553898D01*
X147418795Y-111742256D01*
X147532063Y-111911774D01*
X147576000Y-111955711D01*
X147576001Y-113346290D01*
X147471774Y-113242063D01*
X147302256Y-113128795D01*
X147113898Y-113050774D01*
X146913939Y-113011000D01*
X146710061Y-113011000D01*
X146510102Y-113050774D01*
X146321744Y-113128795D01*
X146177000Y-113225510D01*
X146032256Y-113128795D01*
X145843898Y-113050774D01*
X145643939Y-113011000D01*
X145440061Y-113011000D01*
X145240102Y-113050774D01*
X145051744Y-113128795D01*
X144882226Y-113242063D01*
X144838289Y-113286000D01*
X143951803Y-113286000D01*
X142063459Y-111397657D01*
X142210376Y-111495824D01*
X142416933Y-111581383D01*
X142636212Y-111625000D01*
X142859788Y-111625000D01*
X143079067Y-111581383D01*
X143285624Y-111495824D01*
X143471520Y-111371612D01*
X143629612Y-111213520D01*
X143753824Y-111027624D01*
X143839383Y-110821067D01*
X143883000Y-110601788D01*
X143883000Y-110378212D01*
X143839383Y-110158933D01*
X143753824Y-109952376D01*
X143629612Y-109766480D01*
X143471520Y-109608388D01*
X143285624Y-109484176D01*
X143079067Y-109398617D01*
X142859788Y-109355000D01*
X142636212Y-109355000D01*
X142416933Y-109398617D01*
X142210376Y-109484176D01*
X142024480Y-109608388D01*
X141866388Y-109766480D01*
X141742176Y-109952376D01*
X141656617Y-110158933D01*
X141613000Y-110378212D01*
X141613000Y-110601788D01*
X141656617Y-110821067D01*
X141742176Y-111027624D01*
X141840343Y-111174541D01*
X139432794Y-108766993D01*
X139408991Y-108737989D01*
X139293266Y-108643016D01*
X139161237Y-108572444D01*
X139017976Y-108528987D01*
X138906323Y-108517990D01*
X138906312Y-108517990D01*
X138868990Y-108514314D01*
X138831668Y-108517990D01*
X134547432Y-108517990D01*
X134609824Y-108424614D01*
X134695383Y-108218057D01*
X134739000Y-107998778D01*
X134739000Y-107775202D01*
X134695383Y-107555923D01*
X134609824Y-107349366D01*
X134485612Y-107163470D01*
X134327520Y-107005378D01*
X134141624Y-106881166D01*
X133935067Y-106795607D01*
X133715788Y-106751990D01*
X133492212Y-106751990D01*
X133272933Y-106795607D01*
X133066376Y-106881166D01*
X132880480Y-107005378D01*
X132722388Y-107163470D01*
X132598176Y-107349366D01*
X132512617Y-107555923D01*
X132469000Y-107775202D01*
X132469000Y-107998778D01*
X132512617Y-108218057D01*
X132598176Y-108424614D01*
X132660568Y-108517990D01*
X131822023Y-108517990D01*
X126998000Y-103693968D01*
X126998000Y-96408212D01*
X132469000Y-96408212D01*
X132469000Y-96631788D01*
X132512617Y-96851067D01*
X132598176Y-97057624D01*
X132722388Y-97243520D01*
X132880480Y-97401612D01*
X133066376Y-97525824D01*
X133272933Y-97611383D01*
X133492212Y-97655000D01*
X133715788Y-97655000D01*
X133860001Y-97626314D01*
X133860000Y-105880678D01*
X133856324Y-105918000D01*
X133860000Y-105955322D01*
X133860000Y-105955332D01*
X133870997Y-106066985D01*
X133905114Y-106179454D01*
X133914454Y-106210246D01*
X133985026Y-106342276D01*
X134019320Y-106384063D01*
X134079999Y-106458001D01*
X134109003Y-106481804D01*
X134855000Y-107227802D01*
X134855000Y-107289939D01*
X134894774Y-107489898D01*
X134972795Y-107678256D01*
X135086063Y-107847774D01*
X135230226Y-107991937D01*
X135399744Y-108105205D01*
X135588102Y-108183226D01*
X135788061Y-108223000D01*
X135991939Y-108223000D01*
X136191898Y-108183226D01*
X136380256Y-108105205D01*
X136549774Y-107991937D01*
X136693937Y-107847774D01*
X136807205Y-107678256D01*
X136885226Y-107489898D01*
X136925000Y-107289939D01*
X136925000Y-107086061D01*
X136885226Y-106886102D01*
X136807205Y-106697744D01*
X136710490Y-106553000D01*
X136807205Y-106408256D01*
X136885226Y-106219898D01*
X136925000Y-106019939D01*
X136925000Y-105816061D01*
X136885226Y-105616102D01*
X136807205Y-105427744D01*
X136693937Y-105258226D01*
X136549774Y-105114063D01*
X136380256Y-105000795D01*
X136191898Y-104922774D01*
X135991939Y-104883000D01*
X135929801Y-104883000D01*
X135925011Y-104878210D01*
X135925011Y-99211485D01*
X141317864Y-104604340D01*
X141341658Y-104633333D01*
X141370651Y-104657127D01*
X141370655Y-104657131D01*
X141405020Y-104685333D01*
X141457383Y-104728306D01*
X141589412Y-104798878D01*
X141732673Y-104842335D01*
X141844326Y-104853332D01*
X141844335Y-104853332D01*
X141881658Y-104857008D01*
X141918981Y-104853332D01*
X143868941Y-104853332D01*
X143912878Y-104897269D01*
X144082396Y-105010537D01*
X144270754Y-105088558D01*
X144470713Y-105128332D01*
X144674591Y-105128332D01*
X144874550Y-105088558D01*
X145062908Y-105010537D01*
X145232426Y-104897269D01*
X145376589Y-104753106D01*
X145489857Y-104583588D01*
X145567878Y-104395230D01*
X145607652Y-104195271D01*
X145607652Y-103991393D01*
X145567878Y-103791434D01*
X145489857Y-103603076D01*
X145434490Y-103520212D01*
X150503000Y-103520212D01*
X150503000Y-103743788D01*
X150546617Y-103963067D01*
X150632176Y-104169624D01*
X150756388Y-104355520D01*
X150914480Y-104513612D01*
X151100376Y-104637824D01*
X151306933Y-104723383D01*
X151526212Y-104767000D01*
X151749788Y-104767000D01*
X151969067Y-104723383D01*
X152175624Y-104637824D01*
X152361520Y-104513612D01*
X152519612Y-104355520D01*
X152643824Y-104169624D01*
X152729383Y-103963067D01*
X152773000Y-103743788D01*
X152773000Y-103520212D01*
X152729383Y-103300933D01*
X152643824Y-103094376D01*
X152519612Y-102908480D01*
X152361520Y-102750388D01*
X152175624Y-102626176D01*
X151969067Y-102540617D01*
X151749788Y-102497000D01*
X151526212Y-102497000D01*
X151306933Y-102540617D01*
X151100376Y-102626176D01*
X150914480Y-102750388D01*
X150756388Y-102908480D01*
X150632176Y-103094376D01*
X150546617Y-103300933D01*
X150503000Y-103520212D01*
X145434490Y-103520212D01*
X145376589Y-103433558D01*
X145232426Y-103289395D01*
X145062908Y-103176127D01*
X144874550Y-103098106D01*
X144674591Y-103058332D01*
X144470713Y-103058332D01*
X144270754Y-103098106D01*
X144082396Y-103176127D01*
X143912878Y-103289395D01*
X143868941Y-103333332D01*
X142196462Y-103333332D01*
X140530499Y-101667370D01*
X140559215Y-101648183D01*
X140703378Y-101504020D01*
X140816646Y-101334502D01*
X140894667Y-101146144D01*
X140934441Y-100946185D01*
X140934441Y-100742307D01*
X140897487Y-100556524D01*
X141004059Y-100577722D01*
X141207937Y-100577722D01*
X141407896Y-100537948D01*
X141596254Y-100459927D01*
X141765772Y-100346659D01*
X141909935Y-100202496D01*
X142023203Y-100032978D01*
X142101224Y-99844620D01*
X142140998Y-99644661D01*
X142140998Y-99440783D01*
X142101224Y-99240824D01*
X142023203Y-99052466D01*
X141909935Y-98882948D01*
X141765772Y-98738785D01*
X141596254Y-98625517D01*
X141407896Y-98547496D01*
X141207937Y-98507722D01*
X141004059Y-98507722D01*
X140804100Y-98547496D01*
X140615742Y-98625517D01*
X140446224Y-98738785D01*
X140402287Y-98782722D01*
X139989524Y-98782722D01*
X138645010Y-97438209D01*
X138645010Y-96853532D01*
X138688947Y-96809595D01*
X138802215Y-96640077D01*
X138880236Y-96451719D01*
X138920010Y-96251760D01*
X138920010Y-96047882D01*
X138880236Y-95847923D01*
X138802215Y-95659565D01*
X138688947Y-95490047D01*
X138544784Y-95345884D01*
X138375266Y-95232616D01*
X138186908Y-95154595D01*
X137986949Y-95114821D01*
X137920000Y-95114821D01*
X137920000Y-88280212D01*
X139581000Y-88280212D01*
X139581000Y-88503788D01*
X139624617Y-88723067D01*
X139710176Y-88929624D01*
X139834388Y-89115520D01*
X139992480Y-89273612D01*
X140178376Y-89397824D01*
X140384933Y-89483383D01*
X140604212Y-89527000D01*
X140827788Y-89527000D01*
X141047067Y-89483383D01*
X141253624Y-89397824D01*
X141439520Y-89273612D01*
X141597612Y-89115520D01*
X141721824Y-88929624D01*
X141807383Y-88723067D01*
X141851000Y-88503788D01*
X141851000Y-88280212D01*
X141807383Y-88060933D01*
X141721824Y-87854376D01*
X141597612Y-87668480D01*
X141439520Y-87510388D01*
X141253624Y-87386176D01*
X141047067Y-87300617D01*
X140827788Y-87257000D01*
X140604212Y-87257000D01*
X140384933Y-87300617D01*
X140178376Y-87386176D01*
X139992480Y-87510388D01*
X139834388Y-87668480D01*
X139710176Y-87854376D01*
X139624617Y-88060933D01*
X139581000Y-88280212D01*
X137920000Y-88280212D01*
X137920000Y-84480061D01*
X138411000Y-84480061D01*
X138411000Y-84683939D01*
X138450774Y-84883898D01*
X138528795Y-85072256D01*
X138642063Y-85241774D01*
X138786226Y-85385937D01*
X138955744Y-85499205D01*
X139144102Y-85577226D01*
X139344061Y-85617000D01*
X139547939Y-85617000D01*
X139747898Y-85577226D01*
X139936256Y-85499205D01*
X140105774Y-85385937D01*
X140149711Y-85342000D01*
X143574789Y-85342000D01*
X149078045Y-90845257D01*
X149020933Y-90856617D01*
X148814376Y-90942176D01*
X148628480Y-91066388D01*
X148470388Y-91224480D01*
X148346176Y-91410376D01*
X148260617Y-91616933D01*
X148217000Y-91836212D01*
X148217000Y-92059788D01*
X148260617Y-92279067D01*
X148346176Y-92485624D01*
X148470388Y-92671520D01*
X148628480Y-92829612D01*
X148814376Y-92953824D01*
X149020933Y-93039383D01*
X149240212Y-93083000D01*
X149463788Y-93083000D01*
X149683067Y-93039383D01*
X149889624Y-92953824D01*
X150075520Y-92829612D01*
X150233612Y-92671520D01*
X150357824Y-92485624D01*
X150443383Y-92279067D01*
X150454743Y-92221955D01*
X150624000Y-92391212D01*
X150624001Y-97594288D01*
X150580063Y-97638226D01*
X150466795Y-97807744D01*
X150388774Y-97996102D01*
X150349000Y-98196061D01*
X150349000Y-98399939D01*
X150388774Y-98599898D01*
X150466795Y-98788256D01*
X150580063Y-98957774D01*
X150724226Y-99101937D01*
X150893744Y-99215205D01*
X151082102Y-99293226D01*
X151282061Y-99333000D01*
X151485939Y-99333000D01*
X151532000Y-99323838D01*
X151532000Y-99361202D01*
X151344198Y-99549004D01*
X151282061Y-99549004D01*
X151082102Y-99588778D01*
X150893744Y-99666799D01*
X150724226Y-99780067D01*
X150580063Y-99924230D01*
X150466795Y-100093748D01*
X150388774Y-100282106D01*
X150349000Y-100482065D01*
X150349000Y-100685943D01*
X150388774Y-100885902D01*
X150466795Y-101074260D01*
X150580063Y-101243778D01*
X150724226Y-101387941D01*
X150893744Y-101501209D01*
X151082102Y-101579230D01*
X151282061Y-101619004D01*
X151485939Y-101619004D01*
X151685898Y-101579230D01*
X151874256Y-101501209D01*
X152043774Y-101387941D01*
X152187937Y-101243778D01*
X152301205Y-101074260D01*
X152379226Y-100885902D01*
X152419000Y-100685943D01*
X152419000Y-100623806D01*
X152803002Y-100239804D01*
X152832000Y-100216006D01*
X152926973Y-100100281D01*
X152997545Y-99968252D01*
X153041002Y-99824991D01*
X153051999Y-99713338D01*
X153055676Y-99676005D01*
X153051999Y-99638672D01*
X153051999Y-92385324D01*
X153055675Y-92347999D01*
X153051999Y-92310674D01*
X153051999Y-92310666D01*
X153041002Y-92199013D01*
X152997545Y-92055752D01*
X152926973Y-91923723D01*
X152832000Y-91807998D01*
X152803003Y-91784201D01*
X150979957Y-89961155D01*
X151052933Y-89991383D01*
X151272212Y-90035000D01*
X151495788Y-90035000D01*
X151715067Y-89991383D01*
X151921624Y-89905824D01*
X152107520Y-89781612D01*
X152265612Y-89623520D01*
X152389824Y-89437624D01*
X152475383Y-89231067D01*
X152519000Y-89011788D01*
X152519000Y-88788212D01*
X152475383Y-88568933D01*
X152389824Y-88362376D01*
X152265612Y-88176480D01*
X152107520Y-88018388D01*
X151921624Y-87894176D01*
X151715067Y-87808617D01*
X151495788Y-87765000D01*
X151272212Y-87765000D01*
X151052933Y-87808617D01*
X150846376Y-87894176D01*
X150660480Y-88018388D01*
X150502388Y-88176480D01*
X150378176Y-88362376D01*
X150292617Y-88568933D01*
X150249000Y-88788212D01*
X150249000Y-89011788D01*
X150292617Y-89231067D01*
X150322845Y-89304043D01*
X146178802Y-85160000D01*
X163153928Y-85160000D01*
X163153928Y-87560000D01*
X163166188Y-87684482D01*
X163202498Y-87804180D01*
X163261463Y-87914494D01*
X163340815Y-88011185D01*
X163437506Y-88090537D01*
X163547820Y-88149502D01*
X163667518Y-88185812D01*
X163792000Y-88198072D01*
X165392000Y-88198072D01*
X165516482Y-88185812D01*
X165636180Y-88149502D01*
X165746494Y-88090537D01*
X165843185Y-88011185D01*
X165922537Y-87914494D01*
X165981502Y-87804180D01*
X166017812Y-87684482D01*
X166019581Y-87666517D01*
X166112393Y-87779608D01*
X166330900Y-87958932D01*
X166580193Y-88092182D01*
X166850692Y-88174236D01*
X167132000Y-88201943D01*
X167413309Y-88174236D01*
X167683808Y-88092182D01*
X167933101Y-87958932D01*
X168151608Y-87779608D01*
X168330932Y-87561101D01*
X168402000Y-87428142D01*
X168473068Y-87561101D01*
X168652393Y-87779608D01*
X168870900Y-87958932D01*
X169120193Y-88092182D01*
X169390692Y-88174236D01*
X169672000Y-88201943D01*
X169953309Y-88174236D01*
X170223808Y-88092182D01*
X170473101Y-87958932D01*
X170691608Y-87779608D01*
X170870932Y-87561101D01*
X170939265Y-87433259D01*
X171089399Y-87662839D01*
X171287105Y-87864500D01*
X171520354Y-88023715D01*
X171780182Y-88134367D01*
X171862961Y-88151904D01*
X172085000Y-88029915D01*
X172085000Y-86487000D01*
X172339000Y-86487000D01*
X172339000Y-88029915D01*
X172561039Y-88151904D01*
X172643818Y-88134367D01*
X172734402Y-88095790D01*
X199103815Y-88095790D01*
X199301071Y-88446471D01*
X199734232Y-88671495D01*
X200202971Y-88807688D01*
X200689274Y-88849818D01*
X201174451Y-88796266D01*
X201639858Y-88649090D01*
X202018929Y-88446471D01*
X202216185Y-88095790D01*
X200660000Y-86539605D01*
X199103815Y-88095790D01*
X172734402Y-88095790D01*
X172903646Y-88023715D01*
X173136895Y-87864500D01*
X173334601Y-87662839D01*
X173489166Y-87426483D01*
X173594650Y-87164514D01*
X173647000Y-86887000D01*
X173647000Y-86487000D01*
X172339000Y-86487000D01*
X172085000Y-86487000D01*
X172065000Y-86487000D01*
X172065000Y-86389274D01*
X198170182Y-86389274D01*
X198223734Y-86874451D01*
X198370910Y-87339858D01*
X198573529Y-87718929D01*
X198924210Y-87916185D01*
X200480395Y-86360000D01*
X200839605Y-86360000D01*
X202395790Y-87916185D01*
X202746471Y-87718929D01*
X202971495Y-87285768D01*
X203107688Y-86817029D01*
X203149818Y-86330726D01*
X203096266Y-85845549D01*
X202949090Y-85380142D01*
X202746471Y-85001071D01*
X202395790Y-84803815D01*
X200839605Y-86360000D01*
X200480395Y-86360000D01*
X198924210Y-84803815D01*
X198573529Y-85001071D01*
X198348505Y-85434232D01*
X198212312Y-85902971D01*
X198170182Y-86389274D01*
X172065000Y-86389274D01*
X172065000Y-86233000D01*
X172085000Y-86233000D01*
X172085000Y-84690085D01*
X172339000Y-84690085D01*
X172339000Y-86233000D01*
X173647000Y-86233000D01*
X173647000Y-85833000D01*
X173594650Y-85555486D01*
X173489166Y-85293517D01*
X173334601Y-85057161D01*
X173136895Y-84855500D01*
X172903646Y-84696285D01*
X172734403Y-84624210D01*
X199103815Y-84624210D01*
X200660000Y-86180395D01*
X202216185Y-84624210D01*
X202018929Y-84273529D01*
X201585768Y-84048505D01*
X201117029Y-83912312D01*
X200630726Y-83870182D01*
X200145549Y-83923734D01*
X199680142Y-84070910D01*
X199301071Y-84273529D01*
X199103815Y-84624210D01*
X172734403Y-84624210D01*
X172643818Y-84585633D01*
X172561039Y-84568096D01*
X172339000Y-84690085D01*
X172085000Y-84690085D01*
X171862961Y-84568096D01*
X171780182Y-84585633D01*
X171520354Y-84696285D01*
X171287105Y-84855500D01*
X171089399Y-85057161D01*
X170939265Y-85286741D01*
X170870932Y-85158899D01*
X170691607Y-84940392D01*
X170473100Y-84761068D01*
X170223807Y-84627818D01*
X169953308Y-84545764D01*
X169672000Y-84518057D01*
X169390691Y-84545764D01*
X169120192Y-84627818D01*
X168870899Y-84761068D01*
X168652392Y-84940393D01*
X168473068Y-85158900D01*
X168402000Y-85291858D01*
X168330932Y-85158899D01*
X168151607Y-84940392D01*
X167933100Y-84761068D01*
X167683807Y-84627818D01*
X167413308Y-84545764D01*
X167132000Y-84518057D01*
X166850691Y-84545764D01*
X166580192Y-84627818D01*
X166330899Y-84761068D01*
X166112392Y-84940393D01*
X166019581Y-85053483D01*
X166017812Y-85035518D01*
X165981502Y-84915820D01*
X165922537Y-84805506D01*
X165843185Y-84708815D01*
X165746494Y-84629463D01*
X165636180Y-84570498D01*
X165516482Y-84534188D01*
X165392000Y-84521928D01*
X163792000Y-84521928D01*
X163667518Y-84534188D01*
X163547820Y-84570498D01*
X163437506Y-84629463D01*
X163340815Y-84708815D01*
X163261463Y-84805506D01*
X163202498Y-84915820D01*
X163166188Y-85035518D01*
X163153928Y-85160000D01*
X146178802Y-85160000D01*
X141751000Y-80732199D01*
X141751000Y-80670061D01*
X141711226Y-80470102D01*
X141633205Y-80281744D01*
X141519937Y-80112226D01*
X141375774Y-79968063D01*
X141206256Y-79854795D01*
X141017898Y-79776774D01*
X140817939Y-79737000D01*
X140614061Y-79737000D01*
X140414102Y-79776774D01*
X140225744Y-79854795D01*
X140056226Y-79968063D01*
X139912063Y-80112226D01*
X139798795Y-80281744D01*
X139720774Y-80470102D01*
X139681000Y-80670061D01*
X139681000Y-80873939D01*
X139720774Y-81073898D01*
X139798795Y-81262256D01*
X139912063Y-81431774D01*
X140056226Y-81575937D01*
X140225744Y-81689205D01*
X140414102Y-81767226D01*
X140614061Y-81807000D01*
X140676199Y-81807000D01*
X142691199Y-83822000D01*
X140149711Y-83822000D01*
X140105774Y-83778063D01*
X139936256Y-83664795D01*
X139747898Y-83586774D01*
X139547939Y-83547000D01*
X139344061Y-83547000D01*
X139144102Y-83586774D01*
X138955744Y-83664795D01*
X138786226Y-83778063D01*
X138642063Y-83922226D01*
X138528795Y-84091744D01*
X138450774Y-84280102D01*
X138411000Y-84480061D01*
X137920000Y-84480061D01*
X137920000Y-78269509D01*
X163157000Y-78269509D01*
X163157000Y-79210492D01*
X163177764Y-79421309D01*
X163259818Y-79691808D01*
X163393068Y-79941101D01*
X163572393Y-80159608D01*
X163790900Y-80338932D01*
X164040193Y-80472182D01*
X164310692Y-80554236D01*
X164592000Y-80581943D01*
X164873309Y-80554236D01*
X165143808Y-80472182D01*
X165393101Y-80338932D01*
X165611608Y-80159608D01*
X165790932Y-79941101D01*
X165862000Y-79808142D01*
X165933068Y-79941101D01*
X166112393Y-80159608D01*
X166330900Y-80338932D01*
X166580193Y-80472182D01*
X166850692Y-80554236D01*
X167132000Y-80581943D01*
X167413309Y-80554236D01*
X167683808Y-80472182D01*
X167933101Y-80338932D01*
X168151608Y-80159608D01*
X168330932Y-79941101D01*
X168402000Y-79808142D01*
X168473068Y-79941101D01*
X168652393Y-80159608D01*
X168870900Y-80338932D01*
X169120193Y-80472182D01*
X169390692Y-80554236D01*
X169672000Y-80581943D01*
X169953309Y-80554236D01*
X170223808Y-80472182D01*
X170473101Y-80338932D01*
X170691608Y-80159608D01*
X170870932Y-79941101D01*
X170942000Y-79808142D01*
X171013068Y-79941101D01*
X171192393Y-80159608D01*
X171410900Y-80338932D01*
X171660193Y-80472182D01*
X171930692Y-80554236D01*
X172212000Y-80581943D01*
X172493309Y-80554236D01*
X172763808Y-80472182D01*
X173013101Y-80338932D01*
X173231608Y-80159608D01*
X173410932Y-79941101D01*
X173544182Y-79691808D01*
X173626236Y-79421309D01*
X173647000Y-79210491D01*
X173647000Y-78269508D01*
X173626236Y-78058691D01*
X173544182Y-77788192D01*
X173410932Y-77538899D01*
X173231607Y-77320392D01*
X173013100Y-77141068D01*
X172763807Y-77007818D01*
X172493308Y-76925764D01*
X172212000Y-76898057D01*
X171930691Y-76925764D01*
X171660192Y-77007818D01*
X171410899Y-77141068D01*
X171192392Y-77320393D01*
X171013068Y-77538900D01*
X170942000Y-77671858D01*
X170870932Y-77538899D01*
X170691607Y-77320392D01*
X170473100Y-77141068D01*
X170223807Y-77007818D01*
X169953308Y-76925764D01*
X169672000Y-76898057D01*
X169390691Y-76925764D01*
X169120192Y-77007818D01*
X168870899Y-77141068D01*
X168652392Y-77320393D01*
X168473068Y-77538900D01*
X168402000Y-77671858D01*
X168330932Y-77538899D01*
X168151607Y-77320392D01*
X167933100Y-77141068D01*
X167683807Y-77007818D01*
X167413308Y-76925764D01*
X167132000Y-76898057D01*
X166850691Y-76925764D01*
X166580192Y-77007818D01*
X166330899Y-77141068D01*
X166112392Y-77320393D01*
X165933068Y-77538900D01*
X165862000Y-77671858D01*
X165790932Y-77538899D01*
X165611607Y-77320392D01*
X165393100Y-77141068D01*
X165143807Y-77007818D01*
X164873308Y-76925764D01*
X164592000Y-76898057D01*
X164310691Y-76925764D01*
X164040192Y-77007818D01*
X163790899Y-77141068D01*
X163572392Y-77320393D01*
X163393068Y-77538900D01*
X163259818Y-77788193D01*
X163177764Y-78058692D01*
X163157000Y-78269509D01*
X137920000Y-78269509D01*
X137920000Y-75755621D01*
X140017622Y-73658000D01*
X146343000Y-73658000D01*
X146343000Y-73806260D01*
X146400068Y-74093158D01*
X146512010Y-74363411D01*
X146674525Y-74606632D01*
X146881368Y-74813475D01*
X147055760Y-74930000D01*
X146881368Y-75046525D01*
X146674525Y-75253368D01*
X146512010Y-75496589D01*
X146400068Y-75766842D01*
X146343000Y-76053740D01*
X146343000Y-76346260D01*
X146400068Y-76633158D01*
X146512010Y-76903411D01*
X146674525Y-77146632D01*
X146881368Y-77353475D01*
X147124589Y-77515990D01*
X147394842Y-77627932D01*
X147681740Y-77685000D01*
X147974260Y-77685000D01*
X148261158Y-77627932D01*
X148531411Y-77515990D01*
X148774632Y-77353475D01*
X148981475Y-77146632D01*
X149099100Y-76970594D01*
X149270412Y-77200269D01*
X149486645Y-77395178D01*
X149736748Y-77544157D01*
X150011109Y-77641481D01*
X150241000Y-77520814D01*
X150241000Y-76327000D01*
X150495000Y-76327000D01*
X150495000Y-77520814D01*
X150724891Y-77641481D01*
X150999252Y-77544157D01*
X151249355Y-77395178D01*
X151465588Y-77200269D01*
X151529889Y-77114061D01*
X160509000Y-77114061D01*
X160509000Y-77317939D01*
X160548774Y-77517898D01*
X160626795Y-77706256D01*
X160740063Y-77875774D01*
X160884226Y-78019937D01*
X161053744Y-78133205D01*
X161242102Y-78211226D01*
X161442061Y-78251000D01*
X161645939Y-78251000D01*
X161845898Y-78211226D01*
X162034256Y-78133205D01*
X162203774Y-78019937D01*
X162347937Y-77875774D01*
X162461205Y-77706256D01*
X162539226Y-77517898D01*
X162579000Y-77317939D01*
X162579000Y-77114061D01*
X162539226Y-76914102D01*
X162461205Y-76725744D01*
X162347937Y-76556226D01*
X162203774Y-76412063D01*
X162034256Y-76298795D01*
X161845898Y-76220774D01*
X161645939Y-76181000D01*
X161442061Y-76181000D01*
X161242102Y-76220774D01*
X161053744Y-76298795D01*
X160884226Y-76412063D01*
X160740063Y-76556226D01*
X160626795Y-76725744D01*
X160548774Y-76914102D01*
X160509000Y-77114061D01*
X151529889Y-77114061D01*
X151639641Y-76966920D01*
X151764825Y-76704099D01*
X151809476Y-76556890D01*
X151688155Y-76327000D01*
X150495000Y-76327000D01*
X150241000Y-76327000D01*
X150221000Y-76327000D01*
X150221000Y-76073000D01*
X150241000Y-76073000D01*
X150241000Y-76053000D01*
X150495000Y-76053000D01*
X150495000Y-76073000D01*
X151688155Y-76073000D01*
X151809476Y-75843110D01*
X151764825Y-75695901D01*
X151639641Y-75433080D01*
X151465588Y-75199731D01*
X151324632Y-75072675D01*
X154317700Y-75072675D01*
X154317700Y-75295325D01*
X154361137Y-75513696D01*
X154446341Y-75719398D01*
X154570039Y-75904524D01*
X154727476Y-76061961D01*
X154912602Y-76185659D01*
X155118304Y-76270863D01*
X155336675Y-76314300D01*
X155559325Y-76314300D01*
X155777696Y-76270863D01*
X155983398Y-76185659D01*
X156168524Y-76061961D01*
X156325961Y-75904524D01*
X156449659Y-75719398D01*
X156464000Y-75684776D01*
X156478341Y-75719398D01*
X156602039Y-75904524D01*
X156759476Y-76061961D01*
X156944602Y-76185659D01*
X157150304Y-76270863D01*
X157368675Y-76314300D01*
X157591325Y-76314300D01*
X157809696Y-76270863D01*
X158015398Y-76185659D01*
X158200524Y-76061961D01*
X158357961Y-75904524D01*
X158481659Y-75719398D01*
X158566863Y-75513696D01*
X158610300Y-75295325D01*
X158610300Y-75072675D01*
X158566863Y-74854304D01*
X158481659Y-74648602D01*
X158357961Y-74463476D01*
X158200524Y-74306039D01*
X158029904Y-74192033D01*
X198099572Y-74192033D01*
X198417757Y-74645850D01*
X199022210Y-74971269D01*
X199678535Y-75172512D01*
X200361510Y-75241845D01*
X201044888Y-75176605D01*
X201702407Y-74979298D01*
X202308799Y-74657506D01*
X202326243Y-74645850D01*
X202644428Y-74192033D01*
X200372000Y-71919605D01*
X198099572Y-74192033D01*
X158029904Y-74192033D01*
X158015398Y-74182341D01*
X157809696Y-74097137D01*
X157591325Y-74053700D01*
X157368675Y-74053700D01*
X157150304Y-74097137D01*
X156944602Y-74182341D01*
X156759476Y-74306039D01*
X156602039Y-74463476D01*
X156478341Y-74648602D01*
X156464000Y-74683224D01*
X156449659Y-74648602D01*
X156325961Y-74463476D01*
X156168524Y-74306039D01*
X155983398Y-74182341D01*
X155777696Y-74097137D01*
X155559325Y-74053700D01*
X155336675Y-74053700D01*
X155118304Y-74097137D01*
X154912602Y-74182341D01*
X154727476Y-74306039D01*
X154570039Y-74463476D01*
X154446341Y-74648602D01*
X154361137Y-74854304D01*
X154317700Y-75072675D01*
X151324632Y-75072675D01*
X151249355Y-75004822D01*
X151132466Y-74935195D01*
X151314632Y-74813475D01*
X151521475Y-74606632D01*
X151683990Y-74363411D01*
X151795932Y-74093158D01*
X151853000Y-73806260D01*
X151853000Y-73513740D01*
X151831171Y-73404000D01*
X158046289Y-73404000D01*
X158090226Y-73447937D01*
X158259744Y-73561205D01*
X158448102Y-73639226D01*
X158648061Y-73679000D01*
X158851939Y-73679000D01*
X159051898Y-73639226D01*
X159240256Y-73561205D01*
X159409774Y-73447937D01*
X159553937Y-73303774D01*
X159667205Y-73134256D01*
X159745226Y-72945898D01*
X159785000Y-72745939D01*
X159785000Y-72542061D01*
X159745226Y-72342102D01*
X159667205Y-72153744D01*
X159570490Y-72009000D01*
X159667205Y-71864256D01*
X159723019Y-71729510D01*
X196870155Y-71729510D01*
X196935395Y-72412888D01*
X197132702Y-73070407D01*
X197454494Y-73676799D01*
X197466150Y-73694243D01*
X197919967Y-74012428D01*
X200192395Y-71740000D01*
X200551605Y-71740000D01*
X202824033Y-74012428D01*
X203277850Y-73694243D01*
X203603269Y-73089790D01*
X203804512Y-72433465D01*
X203873845Y-71750490D01*
X203808605Y-71067112D01*
X203611298Y-70409593D01*
X203289506Y-69803201D01*
X203277850Y-69785757D01*
X202824033Y-69467572D01*
X200551605Y-71740000D01*
X200192395Y-71740000D01*
X197919967Y-69467572D01*
X197466150Y-69785757D01*
X197140731Y-70390210D01*
X196939488Y-71046535D01*
X196870155Y-71729510D01*
X159723019Y-71729510D01*
X159745226Y-71675898D01*
X159785000Y-71475939D01*
X159785000Y-71272061D01*
X159745226Y-71072102D01*
X159667205Y-70883744D01*
X159553937Y-70714226D01*
X159409774Y-70570063D01*
X159240256Y-70456795D01*
X159051898Y-70378774D01*
X158851939Y-70339000D01*
X158648061Y-70339000D01*
X158448102Y-70378774D01*
X158259744Y-70456795D01*
X158090226Y-70570063D01*
X157946063Y-70714226D01*
X157832795Y-70883744D01*
X157754774Y-71072102D01*
X157715000Y-71272061D01*
X157715000Y-71475939D01*
X157754774Y-71675898D01*
X157832795Y-71864256D01*
X157845987Y-71884000D01*
X151643506Y-71884000D01*
X151683990Y-71823411D01*
X151795932Y-71553158D01*
X151853000Y-71266260D01*
X151853000Y-70973740D01*
X151795932Y-70686842D01*
X151683990Y-70416589D01*
X151521475Y-70173368D01*
X151340782Y-69992675D01*
X155333700Y-69992675D01*
X155333700Y-70215325D01*
X155377137Y-70433696D01*
X155462341Y-70639398D01*
X155586039Y-70824524D01*
X155743476Y-70981961D01*
X155928602Y-71105659D01*
X156134304Y-71190863D01*
X156352675Y-71234300D01*
X156575325Y-71234300D01*
X156793696Y-71190863D01*
X156999398Y-71105659D01*
X157184524Y-70981961D01*
X157341961Y-70824524D01*
X157465659Y-70639398D01*
X157550863Y-70433696D01*
X157594300Y-70215325D01*
X157594300Y-69992675D01*
X157550863Y-69774304D01*
X157465659Y-69568602D01*
X157341961Y-69383476D01*
X157246452Y-69287967D01*
X198099572Y-69287967D01*
X200372000Y-71560395D01*
X202644428Y-69287967D01*
X202326243Y-68834150D01*
X201721790Y-68508731D01*
X201065465Y-68307488D01*
X200382490Y-68238155D01*
X199699112Y-68303395D01*
X199041593Y-68500702D01*
X198435201Y-68822494D01*
X198417757Y-68834150D01*
X198099572Y-69287967D01*
X157246452Y-69287967D01*
X157184524Y-69226039D01*
X156999398Y-69102341D01*
X156793696Y-69017137D01*
X156575325Y-68973700D01*
X156352675Y-68973700D01*
X156134304Y-69017137D01*
X155928602Y-69102341D01*
X155743476Y-69226039D01*
X155586039Y-69383476D01*
X155462341Y-69568602D01*
X155377137Y-69774304D01*
X155333700Y-69992675D01*
X151340782Y-69992675D01*
X151314632Y-69966525D01*
X151071411Y-69804010D01*
X150801158Y-69692068D01*
X150514260Y-69635000D01*
X150221740Y-69635000D01*
X149934842Y-69692068D01*
X149664589Y-69804010D01*
X149421368Y-69966525D01*
X149289513Y-70098380D01*
X149267502Y-70025820D01*
X149208537Y-69915506D01*
X149129185Y-69818815D01*
X149032494Y-69739463D01*
X148922180Y-69680498D01*
X148802482Y-69644188D01*
X148678000Y-69631928D01*
X146978000Y-69631928D01*
X146853518Y-69644188D01*
X146733820Y-69680498D01*
X146623506Y-69739463D01*
X146526815Y-69818815D01*
X146447463Y-69915506D01*
X146388498Y-70025820D01*
X146352188Y-70145518D01*
X146339928Y-70270000D01*
X146339928Y-71122000D01*
X139483323Y-71122000D01*
X139445998Y-71118324D01*
X139408673Y-71122000D01*
X139408665Y-71122000D01*
X139297012Y-71132997D01*
X139153751Y-71176454D01*
X139021722Y-71247026D01*
X138905997Y-71341999D01*
X138882199Y-71370997D01*
X135748976Y-74504221D01*
X135719978Y-74528019D01*
X135696180Y-74557017D01*
X135696179Y-74557018D01*
X135625004Y-74643744D01*
X135554432Y-74775774D01*
X135530611Y-74854304D01*
X135510976Y-74919034D01*
X135502527Y-75004822D01*
X135496302Y-75068020D01*
X135499979Y-75105353D01*
X135499978Y-87258231D01*
X135493788Y-87257000D01*
X135270212Y-87257000D01*
X135050933Y-87300617D01*
X134844376Y-87386176D01*
X134658480Y-87510388D01*
X134500388Y-87668480D01*
X134376176Y-87854376D01*
X134290617Y-88060933D01*
X134247000Y-88280212D01*
X134247000Y-88503788D01*
X134290617Y-88723067D01*
X134376176Y-88929624D01*
X134500388Y-89115520D01*
X134658480Y-89273612D01*
X134844376Y-89397824D01*
X135050933Y-89483383D01*
X135270212Y-89527000D01*
X135493788Y-89527000D01*
X135499978Y-89525769D01*
X135499978Y-95073220D01*
X134602213Y-95970986D01*
X134485612Y-95796480D01*
X134327520Y-95638388D01*
X134141624Y-95514176D01*
X133935067Y-95428617D01*
X133715788Y-95385000D01*
X133492212Y-95385000D01*
X133272933Y-95428617D01*
X133066376Y-95514176D01*
X132880480Y-95638388D01*
X132722388Y-95796480D01*
X132598176Y-95982376D01*
X132512617Y-96188933D01*
X132469000Y-96408212D01*
X126998000Y-96408212D01*
X126998000Y-94175717D01*
X127041937Y-94131780D01*
X127155205Y-93962262D01*
X127233226Y-93773904D01*
X127273000Y-93573945D01*
X127273000Y-93370067D01*
X127233226Y-93170108D01*
X127155205Y-92981750D01*
X127041937Y-92812232D01*
X126897774Y-92668069D01*
X126728256Y-92554801D01*
X126539898Y-92476780D01*
X126339939Y-92437006D01*
X126136061Y-92437006D01*
X125936102Y-92476780D01*
X125747744Y-92554801D01*
X125578226Y-92668069D01*
X125434063Y-92812232D01*
X125320795Y-92981750D01*
X125242774Y-93170108D01*
X125203000Y-93370067D01*
X125203000Y-93573945D01*
X125242774Y-93773904D01*
X125320795Y-93962262D01*
X125434063Y-94131780D01*
X125478000Y-94175717D01*
X125478001Y-99971199D01*
X115311014Y-89804212D01*
X118753000Y-89804212D01*
X118753000Y-90027788D01*
X118796617Y-90247067D01*
X118882176Y-90453624D01*
X119006388Y-90639520D01*
X119164480Y-90797612D01*
X119350376Y-90921824D01*
X119556933Y-91007383D01*
X119776212Y-91051000D01*
X119999788Y-91051000D01*
X120219067Y-91007383D01*
X120425624Y-90921824D01*
X120611520Y-90797612D01*
X120769612Y-90639520D01*
X120893824Y-90453624D01*
X120979383Y-90247067D01*
X121023000Y-90027788D01*
X121023000Y-89804212D01*
X120979383Y-89584933D01*
X120893824Y-89378376D01*
X120769612Y-89192480D01*
X120611520Y-89034388D01*
X120425624Y-88910176D01*
X120219067Y-88824617D01*
X120036046Y-88788212D01*
X127389000Y-88788212D01*
X127389000Y-89011788D01*
X127432617Y-89231067D01*
X127518176Y-89437624D01*
X127642388Y-89623520D01*
X127800480Y-89781612D01*
X127986376Y-89905824D01*
X128192933Y-89991383D01*
X128412212Y-90035000D01*
X128635788Y-90035000D01*
X128855067Y-89991383D01*
X129061624Y-89905824D01*
X129247520Y-89781612D01*
X129405612Y-89623520D01*
X129529824Y-89437624D01*
X129615383Y-89231067D01*
X129659000Y-89011788D01*
X129659000Y-88788212D01*
X129615383Y-88568933D01*
X129529824Y-88362376D01*
X129405612Y-88176480D01*
X129247520Y-88018388D01*
X129061624Y-87894176D01*
X128855067Y-87808617D01*
X128635788Y-87765000D01*
X128412212Y-87765000D01*
X128192933Y-87808617D01*
X127986376Y-87894176D01*
X127800480Y-88018388D01*
X127642388Y-88176480D01*
X127518176Y-88362376D01*
X127432617Y-88568933D01*
X127389000Y-88788212D01*
X120036046Y-88788212D01*
X119999788Y-88781000D01*
X119776212Y-88781000D01*
X119556933Y-88824617D01*
X119350376Y-88910176D01*
X119164480Y-89034388D01*
X119006388Y-89192480D01*
X118882176Y-89378376D01*
X118796617Y-89584933D01*
X118753000Y-89804212D01*
X115311014Y-89804212D01*
X113880445Y-88373644D01*
X113896246Y-88335496D01*
X113961000Y-88009958D01*
X113961000Y-87678042D01*
X113896246Y-87352504D01*
X113769228Y-87045853D01*
X113584825Y-86769875D01*
X113350125Y-86535175D01*
X113074147Y-86350772D01*
X112767496Y-86223754D01*
X112441958Y-86159000D01*
X112110042Y-86159000D01*
X111784504Y-86223754D01*
X111477853Y-86350772D01*
X111201875Y-86535175D01*
X110967175Y-86769875D01*
X110782772Y-87045853D01*
X110655754Y-87352504D01*
X110591000Y-87678042D01*
X106032000Y-87678042D01*
X106032000Y-85178042D01*
X107991000Y-85178042D01*
X107991000Y-85509958D01*
X108055754Y-85835496D01*
X108182772Y-86142147D01*
X108367175Y-86418125D01*
X108601875Y-86652825D01*
X108877853Y-86837228D01*
X109184504Y-86964246D01*
X109510042Y-87029000D01*
X109841958Y-87029000D01*
X110167496Y-86964246D01*
X110474147Y-86837228D01*
X110750125Y-86652825D01*
X110984825Y-86418125D01*
X111169228Y-86142147D01*
X111296246Y-85835496D01*
X111361000Y-85509958D01*
X111361000Y-85178042D01*
X111296246Y-84852504D01*
X111169228Y-84545853D01*
X110984825Y-84269875D01*
X110750125Y-84035175D01*
X110720030Y-84015066D01*
X111284539Y-84015066D01*
X111386339Y-84284579D01*
X111684477Y-84430463D01*
X112005346Y-84515380D01*
X112336617Y-84536066D01*
X112665557Y-84491728D01*
X112979527Y-84384069D01*
X113165661Y-84284579D01*
X113267461Y-84015066D01*
X112276000Y-83023605D01*
X111284539Y-84015066D01*
X110720030Y-84015066D01*
X110474147Y-83850772D01*
X110167496Y-83723754D01*
X109841958Y-83659000D01*
X109510042Y-83659000D01*
X109184504Y-83723754D01*
X108877853Y-83850772D01*
X108601875Y-84035175D01*
X108367175Y-84269875D01*
X108182772Y-84545853D01*
X108055754Y-84852504D01*
X107991000Y-85178042D01*
X106032000Y-85178042D01*
X106032000Y-82904617D01*
X110583934Y-82904617D01*
X110628272Y-83233557D01*
X110735931Y-83547527D01*
X110835421Y-83733661D01*
X111104934Y-83835461D01*
X112096395Y-82844000D01*
X112455605Y-82844000D01*
X113447066Y-83835461D01*
X113716579Y-83733661D01*
X113862463Y-83435523D01*
X113947380Y-83114654D01*
X113968066Y-82783383D01*
X113923728Y-82454443D01*
X113816069Y-82140473D01*
X113716579Y-81954339D01*
X113447066Y-81852539D01*
X112455605Y-82844000D01*
X112096395Y-82844000D01*
X111104934Y-81852539D01*
X110835421Y-81954339D01*
X110689537Y-82252477D01*
X110604620Y-82573346D01*
X110583934Y-82904617D01*
X106032000Y-82904617D01*
X106032000Y-80178042D01*
X107991000Y-80178042D01*
X107991000Y-80509958D01*
X108055754Y-80835496D01*
X108182772Y-81142147D01*
X108367175Y-81418125D01*
X108601875Y-81652825D01*
X108877853Y-81837228D01*
X109184504Y-81964246D01*
X109510042Y-82029000D01*
X109841958Y-82029000D01*
X110167496Y-81964246D01*
X110474147Y-81837228D01*
X110720029Y-81672934D01*
X111284539Y-81672934D01*
X112276000Y-82664395D01*
X113267461Y-81672934D01*
X113165661Y-81403421D01*
X112867523Y-81257537D01*
X112546654Y-81172620D01*
X112215383Y-81151934D01*
X111886443Y-81196272D01*
X111572473Y-81303931D01*
X111386339Y-81403421D01*
X111284539Y-81672934D01*
X110720029Y-81672934D01*
X110750125Y-81652825D01*
X110984825Y-81418125D01*
X111169228Y-81142147D01*
X111296246Y-80835496D01*
X111361000Y-80509958D01*
X111361000Y-80178042D01*
X111296246Y-79852504D01*
X111169228Y-79545853D01*
X110984825Y-79269875D01*
X110750125Y-79035175D01*
X110474147Y-78850772D01*
X110167496Y-78723754D01*
X109841958Y-78659000D01*
X109510042Y-78659000D01*
X109184504Y-78723754D01*
X108877853Y-78850772D01*
X108601875Y-79035175D01*
X108367175Y-79269875D01*
X108182772Y-79545853D01*
X108055754Y-79852504D01*
X107991000Y-80178042D01*
X106032000Y-80178042D01*
X106032000Y-75994000D01*
X110637928Y-75994000D01*
X110637928Y-78494000D01*
X110650188Y-78618482D01*
X110686498Y-78738180D01*
X110745463Y-78848494D01*
X110824815Y-78945185D01*
X110921506Y-79024537D01*
X111031820Y-79083502D01*
X111151518Y-79119812D01*
X111276000Y-79132072D01*
X114276000Y-79132072D01*
X114400482Y-79119812D01*
X114520180Y-79083502D01*
X114630494Y-79024537D01*
X114727185Y-78945185D01*
X114806537Y-78848494D01*
X114865502Y-78738180D01*
X114901812Y-78618482D01*
X114914072Y-78494000D01*
X114914072Y-75994000D01*
X114901812Y-75869518D01*
X114865502Y-75749820D01*
X114806537Y-75639506D01*
X114727185Y-75542815D01*
X114630494Y-75463463D01*
X114520180Y-75404498D01*
X114400482Y-75368188D01*
X114276000Y-75355928D01*
X111276000Y-75355928D01*
X111151518Y-75368188D01*
X111031820Y-75404498D01*
X110921506Y-75463463D01*
X110824815Y-75542815D01*
X110745463Y-75639506D01*
X110686498Y-75749820D01*
X110650188Y-75869518D01*
X110637928Y-75994000D01*
X106032000Y-75994000D01*
X106032000Y-74192033D01*
X108099572Y-74192033D01*
X108417757Y-74645850D01*
X109022210Y-74971269D01*
X109678535Y-75172512D01*
X110361510Y-75241845D01*
X111044888Y-75176605D01*
X111702407Y-74979298D01*
X112308799Y-74657506D01*
X112326243Y-74645850D01*
X112644428Y-74192033D01*
X110372000Y-71919605D01*
X108099572Y-74192033D01*
X106032000Y-74192033D01*
X106032000Y-71729510D01*
X106870155Y-71729510D01*
X106935395Y-72412888D01*
X107132702Y-73070407D01*
X107454494Y-73676799D01*
X107466150Y-73694243D01*
X107919967Y-74012428D01*
X110192395Y-71740000D01*
X110551605Y-71740000D01*
X112824033Y-74012428D01*
X113277850Y-73694243D01*
X113603269Y-73089790D01*
X113804512Y-72433465D01*
X113873845Y-71750490D01*
X113808605Y-71067112D01*
X113611298Y-70409593D01*
X113289506Y-69803201D01*
X113277850Y-69785757D01*
X112824033Y-69467572D01*
X110551605Y-71740000D01*
X110192395Y-71740000D01*
X107919967Y-69467572D01*
X107466150Y-69785757D01*
X107140731Y-70390210D01*
X106939488Y-71046535D01*
X106870155Y-71729510D01*
X106032000Y-71729510D01*
X106032000Y-69287967D01*
X108099572Y-69287967D01*
X110372000Y-71560395D01*
X112644428Y-69287967D01*
X112326243Y-68834150D01*
X111721790Y-68508731D01*
X111065465Y-68307488D01*
X110382490Y-68238155D01*
X109699112Y-68303395D01*
X109041593Y-68500702D01*
X108435201Y-68822494D01*
X108417757Y-68834150D01*
X108099572Y-69287967D01*
X106032000Y-69287967D01*
X106032000Y-69272279D01*
X106070147Y-68883225D01*
X106173763Y-68540033D01*
X106342062Y-68223511D01*
X106568637Y-67945701D01*
X106844856Y-67717194D01*
X107160197Y-67546690D01*
X107502656Y-67440681D01*
X107889712Y-67400000D01*
X116205000Y-67400000D01*
X116205000Y-84836000D01*
G04 #@! TA.AperFunction,Conductor*
D33*
G36*
X116205000Y-84836000D02*
G01*
X116207440Y-84860776D01*
X116214667Y-84884601D01*
X116226403Y-84906557D01*
X116242197Y-84925803D01*
X116261443Y-84941597D01*
X116283399Y-84953333D01*
X116307224Y-84960560D01*
X116332000Y-84963000D01*
X117651537Y-84963000D01*
X117640480Y-84970388D01*
X117482388Y-85128480D01*
X117358176Y-85314376D01*
X117272617Y-85520933D01*
X117229000Y-85740212D01*
X117229000Y-85963788D01*
X117272617Y-86183067D01*
X117358176Y-86389624D01*
X117482388Y-86575520D01*
X117640480Y-86733612D01*
X117826376Y-86857824D01*
X118032933Y-86943383D01*
X118252212Y-86987000D01*
X118475788Y-86987000D01*
X118695067Y-86943383D01*
X118901624Y-86857824D01*
X119087520Y-86733612D01*
X119126000Y-86695132D01*
X119164480Y-86733612D01*
X119350376Y-86857824D01*
X119556933Y-86943383D01*
X119776212Y-86987000D01*
X119999788Y-86987000D01*
X120219067Y-86943383D01*
X120425624Y-86857824D01*
X120611520Y-86733612D01*
X120650000Y-86695132D01*
X120688480Y-86733612D01*
X120874376Y-86857824D01*
X121080933Y-86943383D01*
X121300212Y-86987000D01*
X121523788Y-86987000D01*
X121743067Y-86943383D01*
X121949624Y-86857824D01*
X122135520Y-86733612D01*
X122293612Y-86575520D01*
X122417824Y-86389624D01*
X122503383Y-86183067D01*
X122547000Y-85963788D01*
X122547000Y-85740212D01*
X122503383Y-85520933D01*
X122417824Y-85314376D01*
X122293612Y-85128480D01*
X122135520Y-84970388D01*
X122124463Y-84963000D01*
X130556000Y-84963000D01*
X130580776Y-84960560D01*
X130604601Y-84953333D01*
X130626557Y-84941597D01*
X130645803Y-84925803D01*
X130661597Y-84906557D01*
X130673333Y-84884601D01*
X130680560Y-84860776D01*
X130683000Y-84836000D01*
X130683000Y-67400000D01*
X202839721Y-67400000D01*
X203228775Y-67438147D01*
X203571967Y-67541763D01*
X203888489Y-67710062D01*
X204166299Y-67936637D01*
X204394806Y-68212856D01*
X204565310Y-68528197D01*
X204671319Y-68870656D01*
X204712001Y-69257722D01*
X204712000Y-129207721D01*
X204673853Y-129596776D01*
X204570238Y-129939964D01*
X204401939Y-130256489D01*
X204175365Y-130534296D01*
X203899146Y-130762805D01*
X203583803Y-130933310D01*
X203241344Y-131039319D01*
X202854288Y-131080000D01*
X107904279Y-131080000D01*
X107515224Y-131041853D01*
X107172036Y-130938238D01*
X106855511Y-130769939D01*
X106577704Y-130543365D01*
X106349195Y-130267146D01*
X106178690Y-129951803D01*
X106072681Y-129609344D01*
X106032000Y-129222288D01*
X106032000Y-129192033D01*
X108099572Y-129192033D01*
X108417757Y-129645850D01*
X109022210Y-129971269D01*
X109678535Y-130172512D01*
X110361510Y-130241845D01*
X111044888Y-130176605D01*
X111702407Y-129979298D01*
X112308799Y-129657506D01*
X112326243Y-129645850D01*
X112644428Y-129192033D01*
X110372000Y-126919605D01*
X108099572Y-129192033D01*
X106032000Y-129192033D01*
X106032000Y-126729510D01*
X106870155Y-126729510D01*
X106935395Y-127412888D01*
X107132702Y-128070407D01*
X107454494Y-128676799D01*
X107466150Y-128694243D01*
X107919967Y-129012428D01*
X110192395Y-126740000D01*
X110551605Y-126740000D01*
X112824033Y-129012428D01*
X113277850Y-128694243D01*
X113603269Y-128089790D01*
X113804512Y-127433465D01*
X113834078Y-127142212D01*
X146185000Y-127142212D01*
X146185000Y-127365788D01*
X146228617Y-127585067D01*
X146314176Y-127791624D01*
X146438388Y-127977520D01*
X146596480Y-128135612D01*
X146782376Y-128259824D01*
X146988933Y-128345383D01*
X147208212Y-128389000D01*
X147431788Y-128389000D01*
X147651067Y-128345383D01*
X147857624Y-128259824D01*
X148043520Y-128135612D01*
X148201612Y-127977520D01*
X148325824Y-127791624D01*
X148344962Y-127745419D01*
X161133000Y-127745419D01*
X161133000Y-128126581D01*
X161207361Y-128500419D01*
X161353225Y-128852566D01*
X161564987Y-129169491D01*
X161834509Y-129439013D01*
X162151434Y-129650775D01*
X162503581Y-129796639D01*
X162877419Y-129871000D01*
X163258581Y-129871000D01*
X163509948Y-129821000D01*
X173215411Y-129821000D01*
X173308000Y-129830119D01*
X173400589Y-129821000D01*
X173400597Y-129821000D01*
X173677524Y-129793725D01*
X174032848Y-129685939D01*
X174360317Y-129510903D01*
X174647345Y-129275345D01*
X174706374Y-129203418D01*
X174717759Y-129192033D01*
X198099572Y-129192033D01*
X198417757Y-129645850D01*
X199022210Y-129971269D01*
X199678535Y-130172512D01*
X200361510Y-130241845D01*
X201044888Y-130176605D01*
X201702407Y-129979298D01*
X202308799Y-129657506D01*
X202326243Y-129645850D01*
X202644428Y-129192033D01*
X200372000Y-126919605D01*
X198099572Y-129192033D01*
X174717759Y-129192033D01*
X175870377Y-128039415D01*
X175882756Y-128036953D01*
X176271302Y-127876012D01*
X176620983Y-127642363D01*
X176918363Y-127344983D01*
X177152012Y-126995302D01*
X177312953Y-126606756D01*
X177395000Y-126194279D01*
X177395000Y-125773721D01*
X177312953Y-125361244D01*
X177152012Y-124972698D01*
X176918363Y-124623017D01*
X176620983Y-124325637D01*
X176271302Y-124091988D01*
X175882756Y-123931047D01*
X175470279Y-123849000D01*
X175049721Y-123849000D01*
X174637244Y-123931047D01*
X174248698Y-124091988D01*
X173899017Y-124325637D01*
X173601637Y-124623017D01*
X173367988Y-124972698D01*
X173207047Y-125361244D01*
X173204585Y-125373623D01*
X172527208Y-126051000D01*
X163509948Y-126051000D01*
X163258581Y-126001000D01*
X162877419Y-126001000D01*
X162503581Y-126075361D01*
X162151434Y-126221225D01*
X161834509Y-126432987D01*
X161564987Y-126702509D01*
X161353225Y-127019434D01*
X161207361Y-127371581D01*
X161133000Y-127745419D01*
X148344962Y-127745419D01*
X148411383Y-127585067D01*
X148455000Y-127365788D01*
X148455000Y-127142212D01*
X148411383Y-126922933D01*
X148325824Y-126716376D01*
X148201612Y-126530480D01*
X148043520Y-126372388D01*
X147857624Y-126248176D01*
X147651067Y-126162617D01*
X147431788Y-126119000D01*
X147208212Y-126119000D01*
X146988933Y-126162617D01*
X146782376Y-126248176D01*
X146596480Y-126372388D01*
X146438388Y-126530480D01*
X146314176Y-126716376D01*
X146228617Y-126922933D01*
X146185000Y-127142212D01*
X113834078Y-127142212D01*
X113873845Y-126750490D01*
X113808605Y-126067112D01*
X113611298Y-125409593D01*
X113289506Y-124803201D01*
X113277850Y-124785757D01*
X112824033Y-124467572D01*
X110551605Y-126740000D01*
X110192395Y-126740000D01*
X107919967Y-124467572D01*
X107466150Y-124785757D01*
X107140731Y-125390210D01*
X106939488Y-126046535D01*
X106870155Y-126729510D01*
X106032000Y-126729510D01*
X106032000Y-124287967D01*
X108099572Y-124287967D01*
X110372000Y-126560395D01*
X112644428Y-124287967D01*
X112607993Y-124236000D01*
X161129928Y-124236000D01*
X161142188Y-124360482D01*
X161178498Y-124480180D01*
X161237463Y-124590494D01*
X161316815Y-124687185D01*
X161413506Y-124766537D01*
X161523820Y-124825502D01*
X161643518Y-124861812D01*
X161768000Y-124874072D01*
X162782250Y-124871000D01*
X162941000Y-124712250D01*
X162941000Y-123063000D01*
X163195000Y-123063000D01*
X163195000Y-124712250D01*
X163353750Y-124871000D01*
X164368000Y-124874072D01*
X164492482Y-124861812D01*
X164612180Y-124825502D01*
X164722494Y-124766537D01*
X164819185Y-124687185D01*
X164898537Y-124590494D01*
X164957502Y-124480180D01*
X164993812Y-124360482D01*
X165006072Y-124236000D01*
X165003000Y-123221750D01*
X164844250Y-123063000D01*
X163195000Y-123063000D01*
X162941000Y-123063000D01*
X161291750Y-123063000D01*
X161133000Y-123221750D01*
X161129928Y-124236000D01*
X112607993Y-124236000D01*
X112326243Y-123834150D01*
X111721790Y-123508731D01*
X111065465Y-123307488D01*
X110382490Y-123238155D01*
X109699112Y-123303395D01*
X109041593Y-123500702D01*
X108435201Y-123822494D01*
X108417757Y-123834150D01*
X108099572Y-124287967D01*
X106032000Y-124287967D01*
X106032000Y-122771609D01*
X110639997Y-122771609D01*
X110826073Y-123112766D01*
X111243409Y-123328513D01*
X111694815Y-123458696D01*
X112162946Y-123498313D01*
X112629811Y-123445842D01*
X113077468Y-123303297D01*
X113433927Y-123112766D01*
X113620003Y-122771609D01*
X112130000Y-121281605D01*
X110639997Y-122771609D01*
X106032000Y-122771609D01*
X106032000Y-121134946D01*
X109733687Y-121134946D01*
X109786158Y-121601811D01*
X109928703Y-122049468D01*
X110119234Y-122405927D01*
X110460391Y-122592003D01*
X111950395Y-121102000D01*
X112309605Y-121102000D01*
X113799609Y-122592003D01*
X114140766Y-122405927D01*
X114356513Y-121988591D01*
X114470102Y-121594721D01*
X123619491Y-121594721D01*
X123619491Y-121818297D01*
X123663108Y-122037576D01*
X123748667Y-122244133D01*
X123872879Y-122430029D01*
X124030971Y-122588121D01*
X124216867Y-122712333D01*
X124423424Y-122797892D01*
X124642703Y-122841509D01*
X124866279Y-122841509D01*
X125085558Y-122797892D01*
X125292115Y-122712333D01*
X125478011Y-122588121D01*
X125636103Y-122430029D01*
X125760315Y-122244133D01*
X125845874Y-122037576D01*
X125881274Y-121859605D01*
X125908617Y-121997067D01*
X125994176Y-122203624D01*
X126118388Y-122389520D01*
X126276480Y-122547612D01*
X126462376Y-122671824D01*
X126668933Y-122757383D01*
X126888212Y-122801000D01*
X127111788Y-122801000D01*
X127331067Y-122757383D01*
X127537624Y-122671824D01*
X127723520Y-122547612D01*
X127881612Y-122389520D01*
X128005824Y-122203624D01*
X128091383Y-121997067D01*
X128135000Y-121777788D01*
X128135000Y-121636000D01*
X161129928Y-121636000D01*
X161133000Y-122650250D01*
X161291750Y-122809000D01*
X162941000Y-122809000D01*
X162941000Y-121159750D01*
X163195000Y-121159750D01*
X163195000Y-122809000D01*
X164844250Y-122809000D01*
X165003000Y-122650250D01*
X165006072Y-121636000D01*
X164993812Y-121511518D01*
X164957502Y-121391820D01*
X164898537Y-121281506D01*
X164819185Y-121184815D01*
X164722494Y-121105463D01*
X164612180Y-121046498D01*
X164492482Y-121010188D01*
X164368000Y-120997928D01*
X163353750Y-121001000D01*
X163195000Y-121159750D01*
X162941000Y-121159750D01*
X162782250Y-121001000D01*
X161768000Y-120997928D01*
X161643518Y-121010188D01*
X161523820Y-121046498D01*
X161413506Y-121105463D01*
X161316815Y-121184815D01*
X161237463Y-121281506D01*
X161178498Y-121391820D01*
X161142188Y-121511518D01*
X161129928Y-121636000D01*
X128135000Y-121636000D01*
X128135000Y-121554212D01*
X128091383Y-121334933D01*
X128005824Y-121128376D01*
X127881612Y-120942480D01*
X127723520Y-120784388D01*
X127712463Y-120777000D01*
X127723520Y-120769612D01*
X127881612Y-120611520D01*
X128005824Y-120425624D01*
X128091383Y-120219067D01*
X128135000Y-119999788D01*
X128135000Y-119776212D01*
X128091383Y-119556933D01*
X128005824Y-119350376D01*
X127881612Y-119164480D01*
X127723520Y-119006388D01*
X127537624Y-118882176D01*
X127513057Y-118872000D01*
X127537624Y-118861824D01*
X127723520Y-118737612D01*
X127881612Y-118579520D01*
X128005824Y-118393624D01*
X128091383Y-118187067D01*
X128135000Y-117967788D01*
X128135000Y-117744212D01*
X128091383Y-117524933D01*
X128005824Y-117318376D01*
X127934472Y-117211589D01*
X130695000Y-117211589D01*
X130695000Y-117484411D01*
X130748225Y-117751989D01*
X130852629Y-118004043D01*
X131004201Y-118230886D01*
X131197114Y-118423799D01*
X131423957Y-118575371D01*
X131676011Y-118679775D01*
X131943589Y-118733000D01*
X132216411Y-118733000D01*
X132483989Y-118679775D01*
X132736043Y-118575371D01*
X132962886Y-118423799D01*
X133155799Y-118230886D01*
X133307371Y-118004043D01*
X133411775Y-117751989D01*
X133465000Y-117484411D01*
X133465000Y-117211589D01*
X133419374Y-116982212D01*
X149741000Y-116982212D01*
X149741000Y-117205788D01*
X149784617Y-117425067D01*
X149870176Y-117631624D01*
X149994388Y-117817520D01*
X150152480Y-117975612D01*
X150338376Y-118099824D01*
X150544933Y-118185383D01*
X150764212Y-118229000D01*
X150987788Y-118229000D01*
X151207067Y-118185383D01*
X151413624Y-118099824D01*
X151599520Y-117975612D01*
X151757612Y-117817520D01*
X151881824Y-117631624D01*
X151967383Y-117425067D01*
X152011000Y-117205788D01*
X152011000Y-116982212D01*
X151967383Y-116762933D01*
X151881824Y-116556376D01*
X151757612Y-116370480D01*
X151599520Y-116212388D01*
X151413624Y-116088176D01*
X151207067Y-116002617D01*
X150987788Y-115959000D01*
X150764212Y-115959000D01*
X150544933Y-116002617D01*
X150338376Y-116088176D01*
X150152480Y-116212388D01*
X149994388Y-116370480D01*
X149870176Y-116556376D01*
X149784617Y-116762933D01*
X149741000Y-116982212D01*
X133419374Y-116982212D01*
X133411775Y-116944011D01*
X133307371Y-116691957D01*
X133155799Y-116465114D01*
X132962886Y-116272201D01*
X132736043Y-116120629D01*
X132483989Y-116016225D01*
X132216411Y-115963000D01*
X131943589Y-115963000D01*
X131676011Y-116016225D01*
X131423957Y-116120629D01*
X131197114Y-116272201D01*
X131004201Y-116465114D01*
X130852629Y-116691957D01*
X130748225Y-116944011D01*
X130695000Y-117211589D01*
X127934472Y-117211589D01*
X127881612Y-117132480D01*
X127723520Y-116974388D01*
X127537624Y-116850176D01*
X127513057Y-116840000D01*
X127537624Y-116829824D01*
X127723520Y-116705612D01*
X127881612Y-116547520D01*
X128005824Y-116361624D01*
X128091383Y-116155067D01*
X128135000Y-115935788D01*
X128135000Y-115712212D01*
X128091383Y-115492933D01*
X128005824Y-115286376D01*
X127881612Y-115100480D01*
X127723520Y-114942388D01*
X127537624Y-114818176D01*
X127331067Y-114732617D01*
X127111788Y-114689000D01*
X126888212Y-114689000D01*
X126668933Y-114732617D01*
X126462376Y-114818176D01*
X126276480Y-114942388D01*
X126118388Y-115100480D01*
X125994176Y-115286376D01*
X125908617Y-115492933D01*
X125865000Y-115712212D01*
X125865000Y-115935788D01*
X125908617Y-116155067D01*
X125994176Y-116361624D01*
X126118388Y-116547520D01*
X126276480Y-116705612D01*
X126462376Y-116829824D01*
X126486943Y-116840000D01*
X126462376Y-116850176D01*
X126276480Y-116974388D01*
X126118388Y-117132480D01*
X125994176Y-117318376D01*
X125908617Y-117524933D01*
X125865000Y-117744212D01*
X125865000Y-117967788D01*
X125908617Y-118187067D01*
X125994176Y-118393624D01*
X126118388Y-118579520D01*
X126276480Y-118737612D01*
X126462376Y-118861824D01*
X126486943Y-118872000D01*
X126462376Y-118882176D01*
X126276480Y-119006388D01*
X126118388Y-119164480D01*
X125994176Y-119350376D01*
X125908617Y-119556933D01*
X125865000Y-119776212D01*
X125865000Y-119999788D01*
X125908617Y-120219067D01*
X125994176Y-120425624D01*
X126118388Y-120611520D01*
X126276480Y-120769612D01*
X126287537Y-120777000D01*
X126276480Y-120784388D01*
X126118388Y-120942480D01*
X125994176Y-121128376D01*
X125908617Y-121334933D01*
X125873217Y-121512904D01*
X125845874Y-121375442D01*
X125760315Y-121168885D01*
X125636103Y-120982989D01*
X125478011Y-120824897D01*
X125292115Y-120700685D01*
X125085558Y-120615126D01*
X124866279Y-120571509D01*
X124642703Y-120571509D01*
X124423424Y-120615126D01*
X124216867Y-120700685D01*
X124030971Y-120824897D01*
X123872879Y-120982989D01*
X123748667Y-121168885D01*
X123663108Y-121375442D01*
X123619491Y-121594721D01*
X114470102Y-121594721D01*
X114486696Y-121537185D01*
X114526313Y-121069054D01*
X114473842Y-120602189D01*
X114331297Y-120154532D01*
X114140766Y-119798073D01*
X113799609Y-119611997D01*
X112309605Y-121102000D01*
X111950395Y-121102000D01*
X110460391Y-119611997D01*
X110119234Y-119798073D01*
X109903487Y-120215409D01*
X109773304Y-120666815D01*
X109733687Y-121134946D01*
X106032000Y-121134946D01*
X106032000Y-119432391D01*
X110639997Y-119432391D01*
X112130000Y-120922395D01*
X113620003Y-119432391D01*
X113433927Y-119091234D01*
X113016591Y-118875487D01*
X112565185Y-118745304D01*
X112097054Y-118705687D01*
X111630189Y-118758158D01*
X111182532Y-118900703D01*
X110826073Y-119091234D01*
X110639997Y-119432391D01*
X106032000Y-119432391D01*
X106032000Y-116400531D01*
X113349389Y-116400531D01*
X113391401Y-116690019D01*
X113489081Y-116965747D01*
X113562528Y-117103157D01*
X113811603Y-117180792D01*
X114660395Y-116332000D01*
X113811603Y-115483208D01*
X113562528Y-115560843D01*
X113436629Y-115824883D01*
X113364661Y-116108411D01*
X113349389Y-116400531D01*
X106032000Y-116400531D01*
X106032000Y-113685740D01*
X113355000Y-113685740D01*
X113355000Y-113978260D01*
X113412068Y-114265158D01*
X113524010Y-114535411D01*
X113686525Y-114778632D01*
X113893368Y-114985475D01*
X114056410Y-115094416D01*
X113991208Y-115303603D01*
X114840000Y-116152395D01*
X114854143Y-116138253D01*
X115033748Y-116317858D01*
X115019605Y-116332000D01*
X115033748Y-116346143D01*
X114854143Y-116525748D01*
X114840000Y-116511605D01*
X113991208Y-117360397D01*
X114068843Y-117609472D01*
X114332883Y-117735371D01*
X114616411Y-117807339D01*
X114908531Y-117822611D01*
X115198019Y-117780599D01*
X115473747Y-117682919D01*
X115549850Y-117642241D01*
X115635506Y-117712537D01*
X115745820Y-117771502D01*
X115865518Y-117807812D01*
X115990000Y-117820072D01*
X117690000Y-117820072D01*
X117814482Y-117807812D01*
X117934180Y-117771502D01*
X118044494Y-117712537D01*
X118141185Y-117633185D01*
X118220537Y-117536494D01*
X118279502Y-117426180D01*
X118315812Y-117306482D01*
X118328072Y-117182000D01*
X118328072Y-115482000D01*
X118315812Y-115357518D01*
X118279502Y-115237820D01*
X118220537Y-115127506D01*
X118141185Y-115030815D01*
X118044494Y-114951463D01*
X117934180Y-114892498D01*
X117892310Y-114879797D01*
X117993475Y-114778632D01*
X118155990Y-114535411D01*
X118267932Y-114265158D01*
X118325000Y-113978260D01*
X118325000Y-113685740D01*
X118285513Y-113487224D01*
X124026000Y-113487224D01*
X124026000Y-113710800D01*
X124069617Y-113930079D01*
X124155176Y-114136636D01*
X124279388Y-114322532D01*
X124437480Y-114480624D01*
X124623376Y-114604836D01*
X124829933Y-114690395D01*
X125049212Y-114734012D01*
X125272788Y-114734012D01*
X125492067Y-114690395D01*
X125698624Y-114604836D01*
X125884520Y-114480624D01*
X126042612Y-114322532D01*
X126100883Y-114235324D01*
X126118388Y-114261522D01*
X126276480Y-114419614D01*
X126462376Y-114543826D01*
X126668933Y-114629385D01*
X126888212Y-114673002D01*
X127111788Y-114673002D01*
X127331067Y-114629385D01*
X127537624Y-114543826D01*
X127723520Y-114419614D01*
X127881612Y-114261522D01*
X128005824Y-114075626D01*
X128091383Y-113869069D01*
X128135000Y-113649790D01*
X128135000Y-113426214D01*
X128091383Y-113206935D01*
X128005824Y-113000378D01*
X127881612Y-112814482D01*
X127723520Y-112656390D01*
X127537624Y-112532178D01*
X127331067Y-112446619D01*
X127111788Y-112403002D01*
X126888212Y-112403002D01*
X126668933Y-112446619D01*
X126462376Y-112532178D01*
X126276480Y-112656390D01*
X126118388Y-112814482D01*
X126060117Y-112901690D01*
X126042612Y-112875492D01*
X125884520Y-112717400D01*
X125698624Y-112593188D01*
X125492067Y-112507629D01*
X125272788Y-112464012D01*
X125049212Y-112464012D01*
X124829933Y-112507629D01*
X124623376Y-112593188D01*
X124437480Y-112717400D01*
X124279388Y-112875492D01*
X124155176Y-113061388D01*
X124069617Y-113267945D01*
X124026000Y-113487224D01*
X118285513Y-113487224D01*
X118267932Y-113398842D01*
X118155990Y-113128589D01*
X117993475Y-112885368D01*
X117786632Y-112678525D01*
X117543411Y-112516010D01*
X117273158Y-112404068D01*
X116986260Y-112347000D01*
X116693740Y-112347000D01*
X116406842Y-112404068D01*
X116136589Y-112516010D01*
X115893368Y-112678525D01*
X115840000Y-112731893D01*
X115786632Y-112678525D01*
X115543411Y-112516010D01*
X115273158Y-112404068D01*
X114986260Y-112347000D01*
X114693740Y-112347000D01*
X114406842Y-112404068D01*
X114136589Y-112516010D01*
X113893368Y-112678525D01*
X113686525Y-112885368D01*
X113524010Y-113128589D01*
X113412068Y-113398842D01*
X113355000Y-113685740D01*
X106032000Y-113685740D01*
X106032000Y-110731609D01*
X110639997Y-110731609D01*
X110826073Y-111072766D01*
X111243409Y-111288513D01*
X111694815Y-111418696D01*
X112162946Y-111458313D01*
X112629811Y-111405842D01*
X113077468Y-111263297D01*
X113433927Y-111072766D01*
X113620003Y-110731609D01*
X112130000Y-109241605D01*
X110639997Y-110731609D01*
X106032000Y-110731609D01*
X106032000Y-109094946D01*
X109733687Y-109094946D01*
X109786158Y-109561811D01*
X109928703Y-110009468D01*
X110119234Y-110365927D01*
X110460391Y-110552003D01*
X111950395Y-109062000D01*
X112309605Y-109062000D01*
X113799609Y-110552003D01*
X114140766Y-110365927D01*
X114356513Y-109948591D01*
X114486696Y-109497185D01*
X114526313Y-109029054D01*
X114473842Y-108562189D01*
X114331297Y-108114532D01*
X114140766Y-107758073D01*
X113799609Y-107571997D01*
X112309605Y-109062000D01*
X111950395Y-109062000D01*
X110460391Y-107571997D01*
X110119234Y-107758073D01*
X109903487Y-108175409D01*
X109773304Y-108626815D01*
X109733687Y-109094946D01*
X106032000Y-109094946D01*
X106032000Y-107392391D01*
X110639997Y-107392391D01*
X112130000Y-108882395D01*
X113620003Y-107392391D01*
X113433927Y-107051234D01*
X113016591Y-106835487D01*
X112565185Y-106705304D01*
X112097054Y-106665687D01*
X111630189Y-106718158D01*
X111182532Y-106860703D01*
X110826073Y-107051234D01*
X110639997Y-107392391D01*
X106032000Y-107392391D01*
X106032000Y-92194000D01*
X110637928Y-92194000D01*
X110637928Y-94694000D01*
X110650188Y-94818482D01*
X110686498Y-94938180D01*
X110745463Y-95048494D01*
X110824815Y-95145185D01*
X110921506Y-95224537D01*
X111031820Y-95283502D01*
X111151518Y-95319812D01*
X111276000Y-95332072D01*
X114276000Y-95332072D01*
X114400482Y-95319812D01*
X114520180Y-95283502D01*
X114630494Y-95224537D01*
X114727185Y-95145185D01*
X114806537Y-95048494D01*
X114865502Y-94938180D01*
X114901812Y-94818482D01*
X114914072Y-94694000D01*
X114914072Y-92194000D01*
X114901812Y-92069518D01*
X114865502Y-91949820D01*
X114806537Y-91839506D01*
X114727185Y-91742815D01*
X114630494Y-91663463D01*
X114520180Y-91604498D01*
X114400482Y-91568188D01*
X114276000Y-91555928D01*
X111276000Y-91555928D01*
X111151518Y-91568188D01*
X111031820Y-91604498D01*
X110921506Y-91663463D01*
X110824815Y-91742815D01*
X110745463Y-91839506D01*
X110686498Y-91949820D01*
X110650188Y-92069518D01*
X110637928Y-92194000D01*
X106032000Y-92194000D01*
X106032000Y-91515066D01*
X108684539Y-91515066D01*
X108786339Y-91784579D01*
X109084477Y-91930463D01*
X109405346Y-92015380D01*
X109736617Y-92036066D01*
X110065557Y-91991728D01*
X110379527Y-91884069D01*
X110565661Y-91784579D01*
X110667461Y-91515066D01*
X109676000Y-90523605D01*
X108684539Y-91515066D01*
X106032000Y-91515066D01*
X106032000Y-90404617D01*
X107983934Y-90404617D01*
X108028272Y-90733557D01*
X108135931Y-91047527D01*
X108235421Y-91233661D01*
X108504934Y-91335461D01*
X109496395Y-90344000D01*
X109855605Y-90344000D01*
X110847066Y-91335461D01*
X111116579Y-91233661D01*
X111262463Y-90935523D01*
X111347380Y-90614654D01*
X111368066Y-90283383D01*
X111323728Y-89954443D01*
X111216069Y-89640473D01*
X111116579Y-89454339D01*
X110847066Y-89352539D01*
X109855605Y-90344000D01*
X109496395Y-90344000D01*
X108504934Y-89352539D01*
X108235421Y-89454339D01*
X108089537Y-89752477D01*
X108004620Y-90073346D01*
X107983934Y-90404617D01*
X106032000Y-90404617D01*
X106032000Y-89172934D01*
X108684539Y-89172934D01*
X109676000Y-90164395D01*
X110667461Y-89172934D01*
X110565661Y-88903421D01*
X110267523Y-88757537D01*
X109946654Y-88672620D01*
X109615383Y-88651934D01*
X109286443Y-88696272D01*
X108972473Y-88803931D01*
X108786339Y-88903421D01*
X108684539Y-89172934D01*
X106032000Y-89172934D01*
X106032000Y-87678042D01*
X110591000Y-87678042D01*
X110591000Y-88009958D01*
X110655754Y-88335496D01*
X110782772Y-88642147D01*
X110967175Y-88918125D01*
X111201875Y-89152825D01*
X111477853Y-89337228D01*
X111784504Y-89464246D01*
X112110042Y-89529000D01*
X112441958Y-89529000D01*
X112767496Y-89464246D01*
X112805644Y-89448445D01*
X124970000Y-101612802D01*
X124970001Y-103887999D01*
X116517802Y-103887999D01*
X115929294Y-103299492D01*
X115943134Y-103288134D01*
X116128706Y-103062014D01*
X116142462Y-103036278D01*
X116298951Y-103242429D01*
X116516807Y-103435496D01*
X116768142Y-103582352D01*
X117031110Y-103674476D01*
X117261000Y-103553155D01*
X117261000Y-102235000D01*
X117241000Y-102235000D01*
X117241000Y-101981000D01*
X117261000Y-101981000D01*
X117261000Y-100662845D01*
X117515000Y-100662845D01*
X117515000Y-101981000D01*
X117535000Y-101981000D01*
X117535000Y-102235000D01*
X117515000Y-102235000D01*
X117515000Y-103553155D01*
X117744890Y-103674476D01*
X118007858Y-103582352D01*
X118259193Y-103435496D01*
X118477049Y-103242429D01*
X118493286Y-103221039D01*
X118549595Y-103326386D01*
X118660038Y-103460962D01*
X118794614Y-103571405D01*
X118948150Y-103653472D01*
X119114746Y-103704008D01*
X119288000Y-103721072D01*
X120488000Y-103721072D01*
X120661254Y-103704008D01*
X120827850Y-103653472D01*
X120981386Y-103571405D01*
X121115962Y-103460962D01*
X121226405Y-103326386D01*
X121308472Y-103172850D01*
X121359008Y-103006254D01*
X121376072Y-102833000D01*
X121376072Y-101383000D01*
X121359008Y-101209746D01*
X121308472Y-101043150D01*
X121226405Y-100889614D01*
X121115962Y-100755038D01*
X120981386Y-100644595D01*
X120827850Y-100562528D01*
X120661254Y-100511992D01*
X120488000Y-100494928D01*
X119288000Y-100494928D01*
X119114746Y-100511992D01*
X118948150Y-100562528D01*
X118794614Y-100644595D01*
X118660038Y-100755038D01*
X118549595Y-100889614D01*
X118493286Y-100994961D01*
X118477049Y-100973571D01*
X118259193Y-100780504D01*
X118007858Y-100633648D01*
X117744890Y-100541524D01*
X117515000Y-100662845D01*
X117261000Y-100662845D01*
X117031110Y-100541524D01*
X116768142Y-100633648D01*
X116516807Y-100780504D01*
X116298951Y-100973571D01*
X116142462Y-101179722D01*
X116128706Y-101153986D01*
X115943134Y-100927866D01*
X115717014Y-100742294D01*
X115459034Y-100604401D01*
X115179111Y-100519487D01*
X114888000Y-100490815D01*
X114596890Y-100519487D01*
X114316967Y-100604401D01*
X114058987Y-100742294D01*
X113832866Y-100927866D01*
X113647294Y-101153986D01*
X113638000Y-101171374D01*
X113628706Y-101153986D01*
X113443134Y-100927866D01*
X113217014Y-100742294D01*
X112959034Y-100604401D01*
X112679111Y-100519487D01*
X112388000Y-100490815D01*
X112096890Y-100519487D01*
X111816967Y-100604401D01*
X111558987Y-100742294D01*
X111332866Y-100927866D01*
X111147294Y-101153986D01*
X111009401Y-101411966D01*
X110924487Y-101691889D01*
X110903000Y-101910050D01*
X110903000Y-102305949D01*
X110924487Y-102524110D01*
X111009401Y-102804033D01*
X111147294Y-103062013D01*
X111332866Y-103288134D01*
X111558986Y-103473706D01*
X111816966Y-103611599D01*
X112096889Y-103696513D01*
X112388000Y-103725185D01*
X112679110Y-103696513D01*
X112849902Y-103644704D01*
X114814209Y-105609011D01*
X114838008Y-105638010D01*
X114953733Y-105732983D01*
X115085762Y-105803555D01*
X115229023Y-105847012D01*
X115340676Y-105858009D01*
X115340685Y-105858009D01*
X115378008Y-105861685D01*
X115415331Y-105858009D01*
X125103208Y-105858009D01*
X130384223Y-111139025D01*
X130408022Y-111168024D01*
X130523747Y-111262997D01*
X130655776Y-111333569D01*
X130799037Y-111377026D01*
X130910690Y-111388023D01*
X130910698Y-111388023D01*
X130948023Y-111391699D01*
X130985348Y-111388023D01*
X131203367Y-111388023D01*
X131197114Y-111392201D01*
X131004201Y-111585114D01*
X130852629Y-111811957D01*
X130748225Y-112064011D01*
X130695000Y-112331589D01*
X130695000Y-112604411D01*
X130748225Y-112871989D01*
X130852629Y-113124043D01*
X131004201Y-113350886D01*
X131197114Y-113543799D01*
X131423957Y-113695371D01*
X131676011Y-113799775D01*
X131943589Y-113853000D01*
X132216411Y-113853000D01*
X132483989Y-113799775D01*
X132736043Y-113695371D01*
X132962886Y-113543799D01*
X133155799Y-113350886D01*
X133307371Y-113124043D01*
X133411775Y-112871989D01*
X133465000Y-112604411D01*
X133465000Y-112331589D01*
X133411775Y-112064011D01*
X133307371Y-111811957D01*
X133155799Y-111585114D01*
X132962886Y-111392201D01*
X132956633Y-111388023D01*
X137994992Y-111388023D01*
X142941971Y-116335003D01*
X142965769Y-116364001D01*
X142994767Y-116387799D01*
X143081493Y-116458974D01*
X143179958Y-116511605D01*
X143213523Y-116529546D01*
X143356784Y-116573003D01*
X143468437Y-116584000D01*
X143468446Y-116584000D01*
X143505769Y-116587676D01*
X143543092Y-116584000D01*
X148298678Y-116584000D01*
X148336000Y-116587676D01*
X148373322Y-116584000D01*
X148373333Y-116584000D01*
X148484986Y-116573003D01*
X148628247Y-116529546D01*
X148760276Y-116458974D01*
X148876001Y-116364001D01*
X148899803Y-116334998D01*
X149899802Y-115335000D01*
X149961939Y-115335000D01*
X150161898Y-115295226D01*
X150350256Y-115217205D01*
X150519774Y-115103937D01*
X150663937Y-114959774D01*
X150777205Y-114790256D01*
X150855226Y-114601898D01*
X150895000Y-114401939D01*
X150895000Y-114198061D01*
X150855226Y-113998102D01*
X150777205Y-113809744D01*
X150663937Y-113640226D01*
X150519774Y-113496063D01*
X150350256Y-113382795D01*
X150161898Y-113304774D01*
X149961939Y-113265000D01*
X149758061Y-113265000D01*
X149558102Y-113304774D01*
X149369744Y-113382795D01*
X149200226Y-113496063D01*
X149096000Y-113600289D01*
X149096000Y-112012000D01*
X149314678Y-112012000D01*
X149352000Y-112015676D01*
X149369083Y-112013993D01*
X149425063Y-112097774D01*
X149569226Y-112241937D01*
X149738744Y-112355205D01*
X149927102Y-112433226D01*
X150127061Y-112473000D01*
X150330939Y-112473000D01*
X150530898Y-112433226D01*
X150719256Y-112355205D01*
X150888774Y-112241937D01*
X151032937Y-112097774D01*
X151146205Y-111928256D01*
X151224226Y-111739898D01*
X151264000Y-111539939D01*
X151264000Y-111477801D01*
X152253802Y-110488000D01*
X152870678Y-110488000D01*
X152908000Y-110491676D01*
X152945322Y-110488000D01*
X152945333Y-110488000D01*
X153056986Y-110477003D01*
X153200247Y-110433546D01*
X153332276Y-110362974D01*
X153448001Y-110268001D01*
X153471804Y-110238997D01*
X156155018Y-107555785D01*
X156184011Y-107531991D01*
X156207805Y-107502998D01*
X156207809Y-107502994D01*
X156278983Y-107416267D01*
X156278984Y-107416266D01*
X156349556Y-107284237D01*
X156393013Y-107140976D01*
X156404010Y-107029323D01*
X156404010Y-107029314D01*
X156407686Y-106991991D01*
X156404010Y-106954668D01*
X156404010Y-106314212D01*
X161425000Y-106314212D01*
X161425000Y-106537788D01*
X161468617Y-106757067D01*
X161554176Y-106963624D01*
X161678388Y-107149520D01*
X161836480Y-107307612D01*
X162022376Y-107431824D01*
X162228933Y-107517383D01*
X162448212Y-107561000D01*
X162671788Y-107561000D01*
X162891067Y-107517383D01*
X163097624Y-107431824D01*
X163283520Y-107307612D01*
X163441612Y-107149520D01*
X163565824Y-106963624D01*
X163651383Y-106757067D01*
X163695000Y-106537788D01*
X163695000Y-106314212D01*
X163651383Y-106094933D01*
X163565824Y-105888376D01*
X163441612Y-105702480D01*
X163283520Y-105544388D01*
X163097624Y-105420176D01*
X162891067Y-105334617D01*
X162671788Y-105291000D01*
X162448212Y-105291000D01*
X162228933Y-105334617D01*
X162022376Y-105420176D01*
X161836480Y-105544388D01*
X161678388Y-105702480D01*
X161554176Y-105888376D01*
X161468617Y-106094933D01*
X161425000Y-106314212D01*
X156404010Y-106314212D01*
X156404010Y-101234212D01*
X157869000Y-101234212D01*
X157869000Y-101457788D01*
X157912617Y-101677067D01*
X157998176Y-101883624D01*
X158122388Y-102069520D01*
X158280480Y-102227612D01*
X158466376Y-102351824D01*
X158672933Y-102437383D01*
X158892212Y-102481000D01*
X159115788Y-102481000D01*
X159335067Y-102437383D01*
X159541624Y-102351824D01*
X159727520Y-102227612D01*
X159885612Y-102069520D01*
X160009824Y-101883624D01*
X160095383Y-101677067D01*
X160139000Y-101457788D01*
X160139000Y-101234212D01*
X160095383Y-101014933D01*
X160009824Y-100808376D01*
X159885612Y-100622480D01*
X159727520Y-100464388D01*
X159541624Y-100340176D01*
X159335067Y-100254617D01*
X159115788Y-100211000D01*
X158892212Y-100211000D01*
X158672933Y-100254617D01*
X158466376Y-100340176D01*
X158280480Y-100464388D01*
X158122388Y-100622480D01*
X157998176Y-100808376D01*
X157912617Y-101014933D01*
X157869000Y-101234212D01*
X156404010Y-101234212D01*
X156404010Y-94098791D01*
X157794802Y-92708000D01*
X159514001Y-92708000D01*
X159514001Y-93180668D01*
X159510324Y-93218000D01*
X159514001Y-93255333D01*
X159524998Y-93366986D01*
X159538180Y-93410442D01*
X159568454Y-93510246D01*
X159639026Y-93642276D01*
X159697070Y-93713002D01*
X159734000Y-93758001D01*
X159762998Y-93781799D01*
X160222853Y-94241655D01*
X160246652Y-94270654D01*
X160362377Y-94365627D01*
X160494406Y-94436199D01*
X160637667Y-94479656D01*
X160749320Y-94490653D01*
X160749330Y-94490653D01*
X160786653Y-94494329D01*
X160823976Y-94490653D01*
X161751220Y-94490653D01*
X161775305Y-94520001D01*
X161891030Y-94614974D01*
X162023060Y-94685546D01*
X162166321Y-94729002D01*
X162315306Y-94743676D01*
X162340000Y-94741244D01*
X162462714Y-94765653D01*
X162666592Y-94765653D01*
X162866551Y-94725879D01*
X163054909Y-94647858D01*
X163224427Y-94534590D01*
X163368590Y-94390427D01*
X163474447Y-94232000D01*
X187118868Y-94232000D01*
X187078388Y-94272480D01*
X186954176Y-94458376D01*
X186868617Y-94664933D01*
X186825000Y-94884212D01*
X186825000Y-95107788D01*
X186868617Y-95327067D01*
X186954176Y-95533624D01*
X187078388Y-95719520D01*
X187236480Y-95877612D01*
X187422376Y-96001824D01*
X187628933Y-96087383D01*
X187848212Y-96131000D01*
X188071788Y-96131000D01*
X188291067Y-96087383D01*
X188497624Y-96001824D01*
X188683520Y-95877612D01*
X188841612Y-95719520D01*
X188965824Y-95533624D01*
X189051383Y-95327067D01*
X189095000Y-95107788D01*
X189095000Y-94884212D01*
X189051383Y-94664933D01*
X188965824Y-94458376D01*
X188841612Y-94272480D01*
X188801132Y-94232000D01*
X190244521Y-94232000D01*
X190244324Y-94234000D01*
X190248000Y-94271322D01*
X190248001Y-106847668D01*
X190244324Y-106885000D01*
X190248001Y-106922333D01*
X190251022Y-106953000D01*
X190258998Y-107033985D01*
X190302454Y-107177246D01*
X190373026Y-107309276D01*
X190444201Y-107396002D01*
X190468000Y-107425001D01*
X190496998Y-107448799D01*
X191013500Y-107965302D01*
X191013500Y-108027439D01*
X191053274Y-108227398D01*
X191131295Y-108415756D01*
X191244563Y-108585274D01*
X191388726Y-108729437D01*
X191558244Y-108842705D01*
X191746602Y-108920726D01*
X191946561Y-108960500D01*
X192150439Y-108960500D01*
X192350398Y-108920726D01*
X192538756Y-108842705D01*
X192708274Y-108729437D01*
X192852437Y-108585274D01*
X192965705Y-108415756D01*
X193043726Y-108227398D01*
X193083500Y-108027439D01*
X193083500Y-107823561D01*
X193043726Y-107623602D01*
X192965705Y-107435244D01*
X192852437Y-107265726D01*
X192757869Y-107171158D01*
X192938061Y-107207000D01*
X193141939Y-107207000D01*
X193341898Y-107167226D01*
X193530256Y-107089205D01*
X193699774Y-106975937D01*
X193843937Y-106831774D01*
X193957205Y-106662256D01*
X194035226Y-106473898D01*
X194075000Y-106273939D01*
X194075000Y-106211802D01*
X195075008Y-105211795D01*
X195104001Y-105188001D01*
X195127795Y-105159008D01*
X195127799Y-105159004D01*
X195198973Y-105072277D01*
X195198974Y-105072276D01*
X195269546Y-104940247D01*
X195313003Y-104796986D01*
X195324000Y-104685333D01*
X195324000Y-104685324D01*
X195327676Y-104648001D01*
X195324000Y-104610678D01*
X195324000Y-102610333D01*
X195420537Y-102727963D01*
X195662265Y-102926345D01*
X195938051Y-103073755D01*
X196237296Y-103164530D01*
X196470514Y-103187500D01*
X196721486Y-103187500D01*
X196954704Y-103164530D01*
X197253949Y-103073755D01*
X197529735Y-102926345D01*
X197771463Y-102727963D01*
X197969845Y-102486235D01*
X198117255Y-102210449D01*
X198208030Y-101911204D01*
X198238681Y-101600000D01*
X198208030Y-101288796D01*
X198117255Y-100989551D01*
X198093442Y-100945000D01*
X198775000Y-100945000D01*
X198775001Y-106105565D01*
X195836582Y-109043984D01*
X195764655Y-109103013D01*
X195529097Y-109390041D01*
X195354061Y-109717511D01*
X195290912Y-109925685D01*
X195262228Y-110020246D01*
X195246275Y-110072835D01*
X195219000Y-110349762D01*
X195219000Y-110349769D01*
X195209881Y-110442358D01*
X195219000Y-110534947D01*
X195219000Y-111000000D01*
X174107804Y-111000000D01*
X166120016Y-103012212D01*
X186825000Y-103012212D01*
X186825000Y-103235788D01*
X186868617Y-103455067D01*
X186954176Y-103661624D01*
X187078388Y-103847520D01*
X187236480Y-104005612D01*
X187422376Y-104129824D01*
X187628933Y-104215383D01*
X187848212Y-104259000D01*
X188071788Y-104259000D01*
X188291067Y-104215383D01*
X188497624Y-104129824D01*
X188683520Y-104005612D01*
X188841612Y-103847520D01*
X188965824Y-103661624D01*
X189051383Y-103455067D01*
X189095000Y-103235788D01*
X189095000Y-103012212D01*
X189051383Y-102792933D01*
X188965824Y-102586376D01*
X188841612Y-102400480D01*
X188683520Y-102242388D01*
X188497624Y-102118176D01*
X188291067Y-102032617D01*
X188071788Y-101989000D01*
X187848212Y-101989000D01*
X187628933Y-102032617D01*
X187422376Y-102118176D01*
X187236480Y-102242388D01*
X187078388Y-102400480D01*
X186954176Y-102586376D01*
X186868617Y-102792933D01*
X186825000Y-103012212D01*
X166120016Y-103012212D01*
X163828000Y-100720197D01*
X163828000Y-98493727D01*
X163871937Y-98449790D01*
X163985205Y-98280272D01*
X164063226Y-98091914D01*
X164103000Y-97891955D01*
X164103000Y-97688077D01*
X164063226Y-97488118D01*
X163985205Y-97299760D01*
X163871937Y-97130242D01*
X163727774Y-96986079D01*
X163558256Y-96872811D01*
X163369898Y-96794790D01*
X163169939Y-96755016D01*
X162966061Y-96755016D01*
X162766102Y-96794790D01*
X162577744Y-96872811D01*
X162408226Y-96986079D01*
X162264063Y-97130242D01*
X162150795Y-97299760D01*
X162072774Y-97488118D01*
X162033000Y-97688077D01*
X162033000Y-97891955D01*
X162072774Y-98091914D01*
X162150795Y-98280272D01*
X162264063Y-98449790D01*
X162308001Y-98493728D01*
X162308000Y-100997675D01*
X162304324Y-101034998D01*
X162308000Y-101072320D01*
X162308000Y-101072330D01*
X162318997Y-101183983D01*
X162350791Y-101288796D01*
X162362454Y-101327244D01*
X162433026Y-101459274D01*
X162467442Y-101501209D01*
X162527999Y-101574999D01*
X162557003Y-101598802D01*
X173229203Y-112271003D01*
X173253001Y-112300001D01*
X173368726Y-112394974D01*
X173500755Y-112465546D01*
X173644016Y-112509003D01*
X173755669Y-112520000D01*
X173755678Y-112520000D01*
X173793001Y-112523676D01*
X173830324Y-112520000D01*
X195219000Y-112520000D01*
X195219001Y-118359206D01*
X189649623Y-123928585D01*
X189637244Y-123931047D01*
X189248698Y-124091988D01*
X188899017Y-124325637D01*
X188601637Y-124623017D01*
X188367988Y-124972698D01*
X188207047Y-125361244D01*
X188125000Y-125773721D01*
X188125000Y-126194279D01*
X188207047Y-126606756D01*
X188367988Y-126995302D01*
X188601637Y-127344983D01*
X188899017Y-127642363D01*
X189248698Y-127876012D01*
X189637244Y-128036953D01*
X190049721Y-128119000D01*
X190470279Y-128119000D01*
X190882756Y-128036953D01*
X191271302Y-127876012D01*
X191620983Y-127642363D01*
X191918363Y-127344983D01*
X192152012Y-126995302D01*
X192262106Y-126729510D01*
X196870155Y-126729510D01*
X196935395Y-127412888D01*
X197132702Y-128070407D01*
X197454494Y-128676799D01*
X197466150Y-128694243D01*
X197919967Y-129012428D01*
X200192395Y-126740000D01*
X200551605Y-126740000D01*
X202824033Y-129012428D01*
X203277850Y-128694243D01*
X203603269Y-128089790D01*
X203804512Y-127433465D01*
X203873845Y-126750490D01*
X203808605Y-126067112D01*
X203611298Y-125409593D01*
X203289506Y-124803201D01*
X203277850Y-124785757D01*
X202824033Y-124467572D01*
X200551605Y-126740000D01*
X200192395Y-126740000D01*
X197919967Y-124467572D01*
X197466150Y-124785757D01*
X197140731Y-125390210D01*
X196939488Y-126046535D01*
X196870155Y-126729510D01*
X192262106Y-126729510D01*
X192312953Y-126606756D01*
X192315415Y-126594377D01*
X194621825Y-124287967D01*
X198099572Y-124287967D01*
X200372000Y-126560395D01*
X202644428Y-124287967D01*
X202326243Y-123834150D01*
X201721790Y-123508731D01*
X201065465Y-123307488D01*
X200382490Y-123238155D01*
X199699112Y-123303395D01*
X199041593Y-123500702D01*
X198435201Y-123822494D01*
X198417757Y-123834150D01*
X198099572Y-124287967D01*
X194621825Y-124287967D01*
X198371423Y-120538370D01*
X198443345Y-120479345D01*
X198678903Y-120192317D01*
X198853939Y-119864848D01*
X198961725Y-119509524D01*
X198989000Y-119232597D01*
X198998120Y-119140000D01*
X198989000Y-119047403D01*
X198989000Y-113609508D01*
X198989550Y-113610058D01*
X199103816Y-113495792D01*
X199301071Y-113846471D01*
X199734232Y-114071495D01*
X200202971Y-114207688D01*
X200689274Y-114249818D01*
X201174451Y-114196266D01*
X201639858Y-114049090D01*
X202018929Y-113846471D01*
X202216185Y-113495790D01*
X200660000Y-111939605D01*
X200645858Y-111953748D01*
X200466253Y-111774143D01*
X200480395Y-111760000D01*
X200839605Y-111760000D01*
X202395790Y-113316185D01*
X202746471Y-113118929D01*
X202971495Y-112685768D01*
X203107688Y-112217029D01*
X203149818Y-111730726D01*
X203096266Y-111245549D01*
X202949090Y-110780142D01*
X202746471Y-110401071D01*
X202395790Y-110203815D01*
X200839605Y-111760000D01*
X200480395Y-111760000D01*
X200466253Y-111745858D01*
X200645858Y-111566253D01*
X200660000Y-111580395D01*
X202216185Y-110024210D01*
X202018929Y-109673529D01*
X201585768Y-109448505D01*
X201117029Y-109312312D01*
X200917154Y-109294996D01*
X201927418Y-108284732D01*
X201999345Y-108225703D01*
X202234903Y-107938675D01*
X202409939Y-107611206D01*
X202517725Y-107255882D01*
X202545000Y-106978955D01*
X202545000Y-106978946D01*
X202554119Y-106886359D01*
X202545000Y-106793772D01*
X202545000Y-99660586D01*
X202554119Y-99567999D01*
X202545000Y-99475412D01*
X202545000Y-99475403D01*
X202517725Y-99198476D01*
X202409939Y-98843152D01*
X202234903Y-98515683D01*
X201999345Y-98228655D01*
X201927413Y-98169622D01*
X201550375Y-97792583D01*
X201491345Y-97720655D01*
X201204317Y-97485097D01*
X200876848Y-97310061D01*
X200521524Y-97202275D01*
X200244597Y-97175000D01*
X200244589Y-97175000D01*
X200152000Y-97165881D01*
X200059411Y-97175000D01*
X198234072Y-97175000D01*
X198234072Y-95567500D01*
X198221812Y-95443018D01*
X198185502Y-95323320D01*
X198126537Y-95213006D01*
X198047185Y-95116315D01*
X197950494Y-95036963D01*
X197840180Y-94977998D01*
X197720482Y-94941688D01*
X197596000Y-94929428D01*
X195596000Y-94929428D01*
X195471518Y-94941688D01*
X195351820Y-94977998D01*
X195241506Y-95036963D01*
X195144815Y-95116315D01*
X195065463Y-95213006D01*
X195006498Y-95323320D01*
X194970188Y-95443018D01*
X194957928Y-95567500D01*
X194957928Y-97083271D01*
X194053003Y-97988196D01*
X194023999Y-98011999D01*
X193982963Y-98062002D01*
X193929026Y-98127724D01*
X193892499Y-98196061D01*
X193858454Y-98259754D01*
X193814997Y-98403015D01*
X193804000Y-98514668D01*
X193804000Y-98514678D01*
X193800324Y-98552000D01*
X193804000Y-98589323D01*
X193804001Y-104333196D01*
X193000198Y-105137000D01*
X192938061Y-105137000D01*
X192919165Y-105140759D01*
X192827937Y-105004226D01*
X192784000Y-104960289D01*
X192784000Y-94605803D01*
X193697003Y-93692801D01*
X193726000Y-93669004D01*
X193820973Y-93553279D01*
X193891545Y-93421250D01*
X193935002Y-93277989D01*
X193945999Y-93166336D01*
X193945999Y-93166328D01*
X193949675Y-93129003D01*
X193945999Y-93091678D01*
X193945999Y-92639322D01*
X193949676Y-92601989D01*
X193935002Y-92453003D01*
X193891545Y-92309742D01*
X193820973Y-92177713D01*
X193749798Y-92090986D01*
X193726000Y-92061988D01*
X193697002Y-92038190D01*
X193059010Y-91400199D01*
X193059010Y-91338061D01*
X193019236Y-91138102D01*
X192941215Y-90949744D01*
X192827947Y-90780226D01*
X192683784Y-90636063D01*
X192514266Y-90522795D01*
X192325908Y-90444774D01*
X192125949Y-90405000D01*
X191922071Y-90405000D01*
X191722112Y-90444774D01*
X191533754Y-90522795D01*
X191364236Y-90636063D01*
X191320299Y-90680000D01*
X163105322Y-90680000D01*
X163067999Y-90676324D01*
X163030676Y-90680000D01*
X163030667Y-90680000D01*
X162919014Y-90690997D01*
X162775753Y-90734454D01*
X162643724Y-90805026D01*
X162643722Y-90805027D01*
X162643723Y-90805027D01*
X162556996Y-90876201D01*
X162556992Y-90876205D01*
X162527999Y-90899999D01*
X162504205Y-90928992D01*
X162052000Y-91381198D01*
X160837804Y-90167003D01*
X160814001Y-90137999D01*
X160698276Y-90043026D01*
X160566247Y-89972454D01*
X160422986Y-89928997D01*
X160311333Y-89918000D01*
X160311322Y-89918000D01*
X160274000Y-89914324D01*
X160236678Y-89918000D01*
X158691711Y-89918000D01*
X158647774Y-89874063D01*
X158478256Y-89760795D01*
X158289898Y-89682774D01*
X158089939Y-89643000D01*
X157886061Y-89643000D01*
X157686102Y-89682774D01*
X157497744Y-89760795D01*
X157328226Y-89874063D01*
X157184063Y-90018226D01*
X157070795Y-90187744D01*
X156992774Y-90376102D01*
X156953000Y-90576061D01*
X156953000Y-90638198D01*
X154682998Y-92908201D01*
X154654000Y-92931999D01*
X154630202Y-92960997D01*
X154630201Y-92960998D01*
X154559026Y-93047724D01*
X154488454Y-93179754D01*
X154465251Y-93256247D01*
X154444998Y-93323014D01*
X154434583Y-93428755D01*
X154430324Y-93472000D01*
X154434001Y-93509332D01*
X154434000Y-106239608D01*
X152271600Y-108402009D01*
X151479324Y-108402009D01*
X151441991Y-108398332D01*
X151404658Y-108402009D01*
X151293005Y-108413006D01*
X151149744Y-108456463D01*
X151017715Y-108527035D01*
X150901990Y-108622008D01*
X150878192Y-108651006D01*
X149038455Y-110490744D01*
X148995774Y-110448063D01*
X148826256Y-110334795D01*
X148637898Y-110256774D01*
X148437939Y-110217000D01*
X148234061Y-110217000D01*
X148034102Y-110256774D01*
X147845744Y-110334795D01*
X147676226Y-110448063D01*
X147532063Y-110592226D01*
X147418795Y-110761744D01*
X147340774Y-110950102D01*
X147301000Y-111150061D01*
X147301000Y-111353939D01*
X147340774Y-111553898D01*
X147418795Y-111742256D01*
X147532063Y-111911774D01*
X147576000Y-111955711D01*
X147576001Y-113346290D01*
X147471774Y-113242063D01*
X147302256Y-113128795D01*
X147113898Y-113050774D01*
X146913939Y-113011000D01*
X146710061Y-113011000D01*
X146510102Y-113050774D01*
X146321744Y-113128795D01*
X146177000Y-113225510D01*
X146032256Y-113128795D01*
X145843898Y-113050774D01*
X145643939Y-113011000D01*
X145440061Y-113011000D01*
X145240102Y-113050774D01*
X145051744Y-113128795D01*
X144882226Y-113242063D01*
X144838289Y-113286000D01*
X143951803Y-113286000D01*
X142063459Y-111397657D01*
X142210376Y-111495824D01*
X142416933Y-111581383D01*
X142636212Y-111625000D01*
X142859788Y-111625000D01*
X143079067Y-111581383D01*
X143285624Y-111495824D01*
X143471520Y-111371612D01*
X143629612Y-111213520D01*
X143753824Y-111027624D01*
X143839383Y-110821067D01*
X143883000Y-110601788D01*
X143883000Y-110378212D01*
X143839383Y-110158933D01*
X143753824Y-109952376D01*
X143629612Y-109766480D01*
X143471520Y-109608388D01*
X143285624Y-109484176D01*
X143079067Y-109398617D01*
X142859788Y-109355000D01*
X142636212Y-109355000D01*
X142416933Y-109398617D01*
X142210376Y-109484176D01*
X142024480Y-109608388D01*
X141866388Y-109766480D01*
X141742176Y-109952376D01*
X141656617Y-110158933D01*
X141613000Y-110378212D01*
X141613000Y-110601788D01*
X141656617Y-110821067D01*
X141742176Y-111027624D01*
X141840343Y-111174541D01*
X139432794Y-108766993D01*
X139408991Y-108737989D01*
X139293266Y-108643016D01*
X139161237Y-108572444D01*
X139017976Y-108528987D01*
X138906323Y-108517990D01*
X138906312Y-108517990D01*
X138868990Y-108514314D01*
X138831668Y-108517990D01*
X134547432Y-108517990D01*
X134609824Y-108424614D01*
X134695383Y-108218057D01*
X134739000Y-107998778D01*
X134739000Y-107775202D01*
X134695383Y-107555923D01*
X134609824Y-107349366D01*
X134485612Y-107163470D01*
X134327520Y-107005378D01*
X134141624Y-106881166D01*
X133935067Y-106795607D01*
X133715788Y-106751990D01*
X133492212Y-106751990D01*
X133272933Y-106795607D01*
X133066376Y-106881166D01*
X132880480Y-107005378D01*
X132722388Y-107163470D01*
X132598176Y-107349366D01*
X132512617Y-107555923D01*
X132469000Y-107775202D01*
X132469000Y-107998778D01*
X132512617Y-108218057D01*
X132598176Y-108424614D01*
X132660568Y-108517990D01*
X131822023Y-108517990D01*
X126998000Y-103693968D01*
X126998000Y-96408212D01*
X132469000Y-96408212D01*
X132469000Y-96631788D01*
X132512617Y-96851067D01*
X132598176Y-97057624D01*
X132722388Y-97243520D01*
X132880480Y-97401612D01*
X133066376Y-97525824D01*
X133272933Y-97611383D01*
X133492212Y-97655000D01*
X133715788Y-97655000D01*
X133860001Y-97626314D01*
X133860000Y-105880678D01*
X133856324Y-105918000D01*
X133860000Y-105955322D01*
X133860000Y-105955332D01*
X133870997Y-106066985D01*
X133905114Y-106179454D01*
X133914454Y-106210246D01*
X133985026Y-106342276D01*
X134019320Y-106384063D01*
X134079999Y-106458001D01*
X134109003Y-106481804D01*
X134855000Y-107227802D01*
X134855000Y-107289939D01*
X134894774Y-107489898D01*
X134972795Y-107678256D01*
X135086063Y-107847774D01*
X135230226Y-107991937D01*
X135399744Y-108105205D01*
X135588102Y-108183226D01*
X135788061Y-108223000D01*
X135991939Y-108223000D01*
X136191898Y-108183226D01*
X136380256Y-108105205D01*
X136549774Y-107991937D01*
X136693937Y-107847774D01*
X136807205Y-107678256D01*
X136885226Y-107489898D01*
X136925000Y-107289939D01*
X136925000Y-107086061D01*
X136885226Y-106886102D01*
X136807205Y-106697744D01*
X136710490Y-106553000D01*
X136807205Y-106408256D01*
X136885226Y-106219898D01*
X136925000Y-106019939D01*
X136925000Y-105816061D01*
X136885226Y-105616102D01*
X136807205Y-105427744D01*
X136693937Y-105258226D01*
X136549774Y-105114063D01*
X136380256Y-105000795D01*
X136191898Y-104922774D01*
X135991939Y-104883000D01*
X135929801Y-104883000D01*
X135925011Y-104878210D01*
X135925011Y-99211485D01*
X141317864Y-104604340D01*
X141341658Y-104633333D01*
X141370651Y-104657127D01*
X141370655Y-104657131D01*
X141405020Y-104685333D01*
X141457383Y-104728306D01*
X141589412Y-104798878D01*
X141732673Y-104842335D01*
X141844326Y-104853332D01*
X141844335Y-104853332D01*
X141881658Y-104857008D01*
X141918981Y-104853332D01*
X143868941Y-104853332D01*
X143912878Y-104897269D01*
X144082396Y-105010537D01*
X144270754Y-105088558D01*
X144470713Y-105128332D01*
X144674591Y-105128332D01*
X144874550Y-105088558D01*
X145062908Y-105010537D01*
X145232426Y-104897269D01*
X145376589Y-104753106D01*
X145489857Y-104583588D01*
X145567878Y-104395230D01*
X145607652Y-104195271D01*
X145607652Y-103991393D01*
X145567878Y-103791434D01*
X145489857Y-103603076D01*
X145434490Y-103520212D01*
X150503000Y-103520212D01*
X150503000Y-103743788D01*
X150546617Y-103963067D01*
X150632176Y-104169624D01*
X150756388Y-104355520D01*
X150914480Y-104513612D01*
X151100376Y-104637824D01*
X151306933Y-104723383D01*
X151526212Y-104767000D01*
X151749788Y-104767000D01*
X151969067Y-104723383D01*
X152175624Y-104637824D01*
X152361520Y-104513612D01*
X152519612Y-104355520D01*
X152643824Y-104169624D01*
X152729383Y-103963067D01*
X152773000Y-103743788D01*
X152773000Y-103520212D01*
X152729383Y-103300933D01*
X152643824Y-103094376D01*
X152519612Y-102908480D01*
X152361520Y-102750388D01*
X152175624Y-102626176D01*
X151969067Y-102540617D01*
X151749788Y-102497000D01*
X151526212Y-102497000D01*
X151306933Y-102540617D01*
X151100376Y-102626176D01*
X150914480Y-102750388D01*
X150756388Y-102908480D01*
X150632176Y-103094376D01*
X150546617Y-103300933D01*
X150503000Y-103520212D01*
X145434490Y-103520212D01*
X145376589Y-103433558D01*
X145232426Y-103289395D01*
X145062908Y-103176127D01*
X144874550Y-103098106D01*
X144674591Y-103058332D01*
X144470713Y-103058332D01*
X144270754Y-103098106D01*
X144082396Y-103176127D01*
X143912878Y-103289395D01*
X143868941Y-103333332D01*
X142196462Y-103333332D01*
X140530499Y-101667370D01*
X140559215Y-101648183D01*
X140703378Y-101504020D01*
X140816646Y-101334502D01*
X140894667Y-101146144D01*
X140934441Y-100946185D01*
X140934441Y-100742307D01*
X140897487Y-100556524D01*
X141004059Y-100577722D01*
X141207937Y-100577722D01*
X141407896Y-100537948D01*
X141596254Y-100459927D01*
X141765772Y-100346659D01*
X141909935Y-100202496D01*
X142023203Y-100032978D01*
X142101224Y-99844620D01*
X142140998Y-99644661D01*
X142140998Y-99440783D01*
X142101224Y-99240824D01*
X142023203Y-99052466D01*
X141909935Y-98882948D01*
X141765772Y-98738785D01*
X141596254Y-98625517D01*
X141407896Y-98547496D01*
X141207937Y-98507722D01*
X141004059Y-98507722D01*
X140804100Y-98547496D01*
X140615742Y-98625517D01*
X140446224Y-98738785D01*
X140402287Y-98782722D01*
X139989524Y-98782722D01*
X138645010Y-97438209D01*
X138645010Y-96853532D01*
X138688947Y-96809595D01*
X138802215Y-96640077D01*
X138880236Y-96451719D01*
X138920010Y-96251760D01*
X138920010Y-96047882D01*
X138880236Y-95847923D01*
X138802215Y-95659565D01*
X138688947Y-95490047D01*
X138544784Y-95345884D01*
X138375266Y-95232616D01*
X138186908Y-95154595D01*
X137986949Y-95114821D01*
X137920000Y-95114821D01*
X137920000Y-88280212D01*
X139581000Y-88280212D01*
X139581000Y-88503788D01*
X139624617Y-88723067D01*
X139710176Y-88929624D01*
X139834388Y-89115520D01*
X139992480Y-89273612D01*
X140178376Y-89397824D01*
X140384933Y-89483383D01*
X140604212Y-89527000D01*
X140827788Y-89527000D01*
X141047067Y-89483383D01*
X141253624Y-89397824D01*
X141439520Y-89273612D01*
X141597612Y-89115520D01*
X141721824Y-88929624D01*
X141807383Y-88723067D01*
X141851000Y-88503788D01*
X141851000Y-88280212D01*
X141807383Y-88060933D01*
X141721824Y-87854376D01*
X141597612Y-87668480D01*
X141439520Y-87510388D01*
X141253624Y-87386176D01*
X141047067Y-87300617D01*
X140827788Y-87257000D01*
X140604212Y-87257000D01*
X140384933Y-87300617D01*
X140178376Y-87386176D01*
X139992480Y-87510388D01*
X139834388Y-87668480D01*
X139710176Y-87854376D01*
X139624617Y-88060933D01*
X139581000Y-88280212D01*
X137920000Y-88280212D01*
X137920000Y-84480061D01*
X138411000Y-84480061D01*
X138411000Y-84683939D01*
X138450774Y-84883898D01*
X138528795Y-85072256D01*
X138642063Y-85241774D01*
X138786226Y-85385937D01*
X138955744Y-85499205D01*
X139144102Y-85577226D01*
X139344061Y-85617000D01*
X139547939Y-85617000D01*
X139747898Y-85577226D01*
X139936256Y-85499205D01*
X140105774Y-85385937D01*
X140149711Y-85342000D01*
X143574789Y-85342000D01*
X149078045Y-90845257D01*
X149020933Y-90856617D01*
X148814376Y-90942176D01*
X148628480Y-91066388D01*
X148470388Y-91224480D01*
X148346176Y-91410376D01*
X148260617Y-91616933D01*
X148217000Y-91836212D01*
X148217000Y-92059788D01*
X148260617Y-92279067D01*
X148346176Y-92485624D01*
X148470388Y-92671520D01*
X148628480Y-92829612D01*
X148814376Y-92953824D01*
X149020933Y-93039383D01*
X149240212Y-93083000D01*
X149463788Y-93083000D01*
X149683067Y-93039383D01*
X149889624Y-92953824D01*
X150075520Y-92829612D01*
X150233612Y-92671520D01*
X150357824Y-92485624D01*
X150443383Y-92279067D01*
X150454743Y-92221955D01*
X150624000Y-92391212D01*
X150624001Y-97594288D01*
X150580063Y-97638226D01*
X150466795Y-97807744D01*
X150388774Y-97996102D01*
X150349000Y-98196061D01*
X150349000Y-98399939D01*
X150388774Y-98599898D01*
X150466795Y-98788256D01*
X150580063Y-98957774D01*
X150724226Y-99101937D01*
X150893744Y-99215205D01*
X151082102Y-99293226D01*
X151282061Y-99333000D01*
X151485939Y-99333000D01*
X151532000Y-99323838D01*
X151532000Y-99361202D01*
X151344198Y-99549004D01*
X151282061Y-99549004D01*
X151082102Y-99588778D01*
X150893744Y-99666799D01*
X150724226Y-99780067D01*
X150580063Y-99924230D01*
X150466795Y-100093748D01*
X150388774Y-100282106D01*
X150349000Y-100482065D01*
X150349000Y-100685943D01*
X150388774Y-100885902D01*
X150466795Y-101074260D01*
X150580063Y-101243778D01*
X150724226Y-101387941D01*
X150893744Y-101501209D01*
X151082102Y-101579230D01*
X151282061Y-101619004D01*
X151485939Y-101619004D01*
X151685898Y-101579230D01*
X151874256Y-101501209D01*
X152043774Y-101387941D01*
X152187937Y-101243778D01*
X152301205Y-101074260D01*
X152379226Y-100885902D01*
X152419000Y-100685943D01*
X152419000Y-100623806D01*
X152803002Y-100239804D01*
X152832000Y-100216006D01*
X152926973Y-100100281D01*
X152997545Y-99968252D01*
X153041002Y-99824991D01*
X153051999Y-99713338D01*
X153055676Y-99676005D01*
X153051999Y-99638672D01*
X153051999Y-92385324D01*
X153055675Y-92347999D01*
X153051999Y-92310674D01*
X153051999Y-92310666D01*
X153041002Y-92199013D01*
X152997545Y-92055752D01*
X152926973Y-91923723D01*
X152832000Y-91807998D01*
X152803003Y-91784201D01*
X150979957Y-89961155D01*
X151052933Y-89991383D01*
X151272212Y-90035000D01*
X151495788Y-90035000D01*
X151715067Y-89991383D01*
X151921624Y-89905824D01*
X152107520Y-89781612D01*
X152265612Y-89623520D01*
X152389824Y-89437624D01*
X152475383Y-89231067D01*
X152519000Y-89011788D01*
X152519000Y-88788212D01*
X152475383Y-88568933D01*
X152389824Y-88362376D01*
X152265612Y-88176480D01*
X152107520Y-88018388D01*
X151921624Y-87894176D01*
X151715067Y-87808617D01*
X151495788Y-87765000D01*
X151272212Y-87765000D01*
X151052933Y-87808617D01*
X150846376Y-87894176D01*
X150660480Y-88018388D01*
X150502388Y-88176480D01*
X150378176Y-88362376D01*
X150292617Y-88568933D01*
X150249000Y-88788212D01*
X150249000Y-89011788D01*
X150292617Y-89231067D01*
X150322845Y-89304043D01*
X146178802Y-85160000D01*
X163153928Y-85160000D01*
X163153928Y-87560000D01*
X163166188Y-87684482D01*
X163202498Y-87804180D01*
X163261463Y-87914494D01*
X163340815Y-88011185D01*
X163437506Y-88090537D01*
X163547820Y-88149502D01*
X163667518Y-88185812D01*
X163792000Y-88198072D01*
X165392000Y-88198072D01*
X165516482Y-88185812D01*
X165636180Y-88149502D01*
X165746494Y-88090537D01*
X165843185Y-88011185D01*
X165922537Y-87914494D01*
X165981502Y-87804180D01*
X166017812Y-87684482D01*
X166019581Y-87666517D01*
X166112393Y-87779608D01*
X166330900Y-87958932D01*
X166580193Y-88092182D01*
X166850692Y-88174236D01*
X167132000Y-88201943D01*
X167413309Y-88174236D01*
X167683808Y-88092182D01*
X167933101Y-87958932D01*
X168151608Y-87779608D01*
X168330932Y-87561101D01*
X168402000Y-87428142D01*
X168473068Y-87561101D01*
X168652393Y-87779608D01*
X168870900Y-87958932D01*
X169120193Y-88092182D01*
X169390692Y-88174236D01*
X169672000Y-88201943D01*
X169953309Y-88174236D01*
X170223808Y-88092182D01*
X170473101Y-87958932D01*
X170691608Y-87779608D01*
X170870932Y-87561101D01*
X170939265Y-87433259D01*
X171089399Y-87662839D01*
X171287105Y-87864500D01*
X171520354Y-88023715D01*
X171780182Y-88134367D01*
X171862961Y-88151904D01*
X172085000Y-88029915D01*
X172085000Y-86487000D01*
X172339000Y-86487000D01*
X172339000Y-88029915D01*
X172561039Y-88151904D01*
X172643818Y-88134367D01*
X172734402Y-88095790D01*
X199103815Y-88095790D01*
X199301071Y-88446471D01*
X199734232Y-88671495D01*
X200202971Y-88807688D01*
X200689274Y-88849818D01*
X201174451Y-88796266D01*
X201639858Y-88649090D01*
X202018929Y-88446471D01*
X202216185Y-88095790D01*
X200660000Y-86539605D01*
X199103815Y-88095790D01*
X172734402Y-88095790D01*
X172903646Y-88023715D01*
X173136895Y-87864500D01*
X173334601Y-87662839D01*
X173489166Y-87426483D01*
X173594650Y-87164514D01*
X173647000Y-86887000D01*
X173647000Y-86487000D01*
X172339000Y-86487000D01*
X172085000Y-86487000D01*
X172065000Y-86487000D01*
X172065000Y-86389274D01*
X198170182Y-86389274D01*
X198223734Y-86874451D01*
X198370910Y-87339858D01*
X198573529Y-87718929D01*
X198924210Y-87916185D01*
X200480395Y-86360000D01*
X200839605Y-86360000D01*
X202395790Y-87916185D01*
X202746471Y-87718929D01*
X202971495Y-87285768D01*
X203107688Y-86817029D01*
X203149818Y-86330726D01*
X203096266Y-85845549D01*
X202949090Y-85380142D01*
X202746471Y-85001071D01*
X202395790Y-84803815D01*
X200839605Y-86360000D01*
X200480395Y-86360000D01*
X198924210Y-84803815D01*
X198573529Y-85001071D01*
X198348505Y-85434232D01*
X198212312Y-85902971D01*
X198170182Y-86389274D01*
X172065000Y-86389274D01*
X172065000Y-86233000D01*
X172085000Y-86233000D01*
X172085000Y-84690085D01*
X172339000Y-84690085D01*
X172339000Y-86233000D01*
X173647000Y-86233000D01*
X173647000Y-85833000D01*
X173594650Y-85555486D01*
X173489166Y-85293517D01*
X173334601Y-85057161D01*
X173136895Y-84855500D01*
X172903646Y-84696285D01*
X172734403Y-84624210D01*
X199103815Y-84624210D01*
X200660000Y-86180395D01*
X202216185Y-84624210D01*
X202018929Y-84273529D01*
X201585768Y-84048505D01*
X201117029Y-83912312D01*
X200630726Y-83870182D01*
X200145549Y-83923734D01*
X199680142Y-84070910D01*
X199301071Y-84273529D01*
X199103815Y-84624210D01*
X172734403Y-84624210D01*
X172643818Y-84585633D01*
X172561039Y-84568096D01*
X172339000Y-84690085D01*
X172085000Y-84690085D01*
X171862961Y-84568096D01*
X171780182Y-84585633D01*
X171520354Y-84696285D01*
X171287105Y-84855500D01*
X171089399Y-85057161D01*
X170939265Y-85286741D01*
X170870932Y-85158899D01*
X170691607Y-84940392D01*
X170473100Y-84761068D01*
X170223807Y-84627818D01*
X169953308Y-84545764D01*
X169672000Y-84518057D01*
X169390691Y-84545764D01*
X169120192Y-84627818D01*
X168870899Y-84761068D01*
X168652392Y-84940393D01*
X168473068Y-85158900D01*
X168402000Y-85291858D01*
X168330932Y-85158899D01*
X168151607Y-84940392D01*
X167933100Y-84761068D01*
X167683807Y-84627818D01*
X167413308Y-84545764D01*
X167132000Y-84518057D01*
X166850691Y-84545764D01*
X166580192Y-84627818D01*
X166330899Y-84761068D01*
X166112392Y-84940393D01*
X166019581Y-85053483D01*
X166017812Y-85035518D01*
X165981502Y-84915820D01*
X165922537Y-84805506D01*
X165843185Y-84708815D01*
X165746494Y-84629463D01*
X165636180Y-84570498D01*
X165516482Y-84534188D01*
X165392000Y-84521928D01*
X163792000Y-84521928D01*
X163667518Y-84534188D01*
X163547820Y-84570498D01*
X163437506Y-84629463D01*
X163340815Y-84708815D01*
X163261463Y-84805506D01*
X163202498Y-84915820D01*
X163166188Y-85035518D01*
X163153928Y-85160000D01*
X146178802Y-85160000D01*
X141751000Y-80732199D01*
X141751000Y-80670061D01*
X141711226Y-80470102D01*
X141633205Y-80281744D01*
X141519937Y-80112226D01*
X141375774Y-79968063D01*
X141206256Y-79854795D01*
X141017898Y-79776774D01*
X140817939Y-79737000D01*
X140614061Y-79737000D01*
X140414102Y-79776774D01*
X140225744Y-79854795D01*
X140056226Y-79968063D01*
X139912063Y-80112226D01*
X139798795Y-80281744D01*
X139720774Y-80470102D01*
X139681000Y-80670061D01*
X139681000Y-80873939D01*
X139720774Y-81073898D01*
X139798795Y-81262256D01*
X139912063Y-81431774D01*
X140056226Y-81575937D01*
X140225744Y-81689205D01*
X140414102Y-81767226D01*
X140614061Y-81807000D01*
X140676199Y-81807000D01*
X142691199Y-83822000D01*
X140149711Y-83822000D01*
X140105774Y-83778063D01*
X139936256Y-83664795D01*
X139747898Y-83586774D01*
X139547939Y-83547000D01*
X139344061Y-83547000D01*
X139144102Y-83586774D01*
X138955744Y-83664795D01*
X138786226Y-83778063D01*
X138642063Y-83922226D01*
X138528795Y-84091744D01*
X138450774Y-84280102D01*
X138411000Y-84480061D01*
X137920000Y-84480061D01*
X137920000Y-78269509D01*
X163157000Y-78269509D01*
X163157000Y-79210492D01*
X163177764Y-79421309D01*
X163259818Y-79691808D01*
X163393068Y-79941101D01*
X163572393Y-80159608D01*
X163790900Y-80338932D01*
X164040193Y-80472182D01*
X164310692Y-80554236D01*
X164592000Y-80581943D01*
X164873309Y-80554236D01*
X165143808Y-80472182D01*
X165393101Y-80338932D01*
X165611608Y-80159608D01*
X165790932Y-79941101D01*
X165862000Y-79808142D01*
X165933068Y-79941101D01*
X166112393Y-80159608D01*
X166330900Y-80338932D01*
X166580193Y-80472182D01*
X166850692Y-80554236D01*
X167132000Y-80581943D01*
X167413309Y-80554236D01*
X167683808Y-80472182D01*
X167933101Y-80338932D01*
X168151608Y-80159608D01*
X168330932Y-79941101D01*
X168402000Y-79808142D01*
X168473068Y-79941101D01*
X168652393Y-80159608D01*
X168870900Y-80338932D01*
X169120193Y-80472182D01*
X169390692Y-80554236D01*
X169672000Y-80581943D01*
X169953309Y-80554236D01*
X170223808Y-80472182D01*
X170473101Y-80338932D01*
X170691608Y-80159608D01*
X170870932Y-79941101D01*
X170942000Y-79808142D01*
X171013068Y-79941101D01*
X171192393Y-80159608D01*
X171410900Y-80338932D01*
X171660193Y-80472182D01*
X171930692Y-80554236D01*
X172212000Y-80581943D01*
X172493309Y-80554236D01*
X172763808Y-80472182D01*
X173013101Y-80338932D01*
X173231608Y-80159608D01*
X173410932Y-79941101D01*
X173544182Y-79691808D01*
X173626236Y-79421309D01*
X173647000Y-79210491D01*
X173647000Y-78269508D01*
X173626236Y-78058691D01*
X173544182Y-77788192D01*
X173410932Y-77538899D01*
X173231607Y-77320392D01*
X173013100Y-77141068D01*
X172763807Y-77007818D01*
X172493308Y-76925764D01*
X172212000Y-76898057D01*
X171930691Y-76925764D01*
X171660192Y-77007818D01*
X171410899Y-77141068D01*
X171192392Y-77320393D01*
X171013068Y-77538900D01*
X170942000Y-77671858D01*
X170870932Y-77538899D01*
X170691607Y-77320392D01*
X170473100Y-77141068D01*
X170223807Y-77007818D01*
X169953308Y-76925764D01*
X169672000Y-76898057D01*
X169390691Y-76925764D01*
X169120192Y-77007818D01*
X168870899Y-77141068D01*
X168652392Y-77320393D01*
X168473068Y-77538900D01*
X168402000Y-77671858D01*
X168330932Y-77538899D01*
X168151607Y-77320392D01*
X167933100Y-77141068D01*
X167683807Y-77007818D01*
X167413308Y-76925764D01*
X167132000Y-76898057D01*
X166850691Y-76925764D01*
X166580192Y-77007818D01*
X166330899Y-77141068D01*
X166112392Y-77320393D01*
X165933068Y-77538900D01*
X165862000Y-77671858D01*
X165790932Y-77538899D01*
X165611607Y-77320392D01*
X165393100Y-77141068D01*
X165143807Y-77007818D01*
X164873308Y-76925764D01*
X164592000Y-76898057D01*
X164310691Y-76925764D01*
X164040192Y-77007818D01*
X163790899Y-77141068D01*
X163572392Y-77320393D01*
X163393068Y-77538900D01*
X163259818Y-77788193D01*
X163177764Y-78058692D01*
X163157000Y-78269509D01*
X137920000Y-78269509D01*
X137920000Y-75755621D01*
X140017622Y-73658000D01*
X146343000Y-73658000D01*
X146343000Y-73806260D01*
X146400068Y-74093158D01*
X146512010Y-74363411D01*
X146674525Y-74606632D01*
X146881368Y-74813475D01*
X147055760Y-74930000D01*
X146881368Y-75046525D01*
X146674525Y-75253368D01*
X146512010Y-75496589D01*
X146400068Y-75766842D01*
X146343000Y-76053740D01*
X146343000Y-76346260D01*
X146400068Y-76633158D01*
X146512010Y-76903411D01*
X146674525Y-77146632D01*
X146881368Y-77353475D01*
X147124589Y-77515990D01*
X147394842Y-77627932D01*
X147681740Y-77685000D01*
X147974260Y-77685000D01*
X148261158Y-77627932D01*
X148531411Y-77515990D01*
X148774632Y-77353475D01*
X148981475Y-77146632D01*
X149099100Y-76970594D01*
X149270412Y-77200269D01*
X149486645Y-77395178D01*
X149736748Y-77544157D01*
X150011109Y-77641481D01*
X150241000Y-77520814D01*
X150241000Y-76327000D01*
X150495000Y-76327000D01*
X150495000Y-77520814D01*
X150724891Y-77641481D01*
X150999252Y-77544157D01*
X151249355Y-77395178D01*
X151465588Y-77200269D01*
X151529889Y-77114061D01*
X160509000Y-77114061D01*
X160509000Y-77317939D01*
X160548774Y-77517898D01*
X160626795Y-77706256D01*
X160740063Y-77875774D01*
X160884226Y-78019937D01*
X161053744Y-78133205D01*
X161242102Y-78211226D01*
X161442061Y-78251000D01*
X161645939Y-78251000D01*
X161845898Y-78211226D01*
X162034256Y-78133205D01*
X162203774Y-78019937D01*
X162347937Y-77875774D01*
X162461205Y-77706256D01*
X162539226Y-77517898D01*
X162579000Y-77317939D01*
X162579000Y-77114061D01*
X162539226Y-76914102D01*
X162461205Y-76725744D01*
X162347937Y-76556226D01*
X162203774Y-76412063D01*
X162034256Y-76298795D01*
X161845898Y-76220774D01*
X161645939Y-76181000D01*
X161442061Y-76181000D01*
X161242102Y-76220774D01*
X161053744Y-76298795D01*
X160884226Y-76412063D01*
X160740063Y-76556226D01*
X160626795Y-76725744D01*
X160548774Y-76914102D01*
X160509000Y-77114061D01*
X151529889Y-77114061D01*
X151639641Y-76966920D01*
X151764825Y-76704099D01*
X151809476Y-76556890D01*
X151688155Y-76327000D01*
X150495000Y-76327000D01*
X150241000Y-76327000D01*
X150221000Y-76327000D01*
X150221000Y-76073000D01*
X150241000Y-76073000D01*
X150241000Y-76053000D01*
X150495000Y-76053000D01*
X150495000Y-76073000D01*
X151688155Y-76073000D01*
X151809476Y-75843110D01*
X151764825Y-75695901D01*
X151639641Y-75433080D01*
X151465588Y-75199731D01*
X151324632Y-75072675D01*
X154317700Y-75072675D01*
X154317700Y-75295325D01*
X154361137Y-75513696D01*
X154446341Y-75719398D01*
X154570039Y-75904524D01*
X154727476Y-76061961D01*
X154912602Y-76185659D01*
X155118304Y-76270863D01*
X155336675Y-76314300D01*
X155559325Y-76314300D01*
X155777696Y-76270863D01*
X155983398Y-76185659D01*
X156168524Y-76061961D01*
X156325961Y-75904524D01*
X156449659Y-75719398D01*
X156464000Y-75684776D01*
X156478341Y-75719398D01*
X156602039Y-75904524D01*
X156759476Y-76061961D01*
X156944602Y-76185659D01*
X157150304Y-76270863D01*
X157368675Y-76314300D01*
X157591325Y-76314300D01*
X157809696Y-76270863D01*
X158015398Y-76185659D01*
X158200524Y-76061961D01*
X158357961Y-75904524D01*
X158481659Y-75719398D01*
X158566863Y-75513696D01*
X158610300Y-75295325D01*
X158610300Y-75072675D01*
X158566863Y-74854304D01*
X158481659Y-74648602D01*
X158357961Y-74463476D01*
X158200524Y-74306039D01*
X158029904Y-74192033D01*
X198099572Y-74192033D01*
X198417757Y-74645850D01*
X199022210Y-74971269D01*
X199678535Y-75172512D01*
X200361510Y-75241845D01*
X201044888Y-75176605D01*
X201702407Y-74979298D01*
X202308799Y-74657506D01*
X202326243Y-74645850D01*
X202644428Y-74192033D01*
X200372000Y-71919605D01*
X198099572Y-74192033D01*
X158029904Y-74192033D01*
X158015398Y-74182341D01*
X157809696Y-74097137D01*
X157591325Y-74053700D01*
X157368675Y-74053700D01*
X157150304Y-74097137D01*
X156944602Y-74182341D01*
X156759476Y-74306039D01*
X156602039Y-74463476D01*
X156478341Y-74648602D01*
X156464000Y-74683224D01*
X156449659Y-74648602D01*
X156325961Y-74463476D01*
X156168524Y-74306039D01*
X155983398Y-74182341D01*
X155777696Y-74097137D01*
X155559325Y-74053700D01*
X155336675Y-74053700D01*
X155118304Y-74097137D01*
X154912602Y-74182341D01*
X154727476Y-74306039D01*
X154570039Y-74463476D01*
X154446341Y-74648602D01*
X154361137Y-74854304D01*
X154317700Y-75072675D01*
X151324632Y-75072675D01*
X151249355Y-75004822D01*
X151132466Y-74935195D01*
X151314632Y-74813475D01*
X151521475Y-74606632D01*
X151683990Y-74363411D01*
X151795932Y-74093158D01*
X151853000Y-73806260D01*
X151853000Y-73513740D01*
X151831171Y-73404000D01*
X158046289Y-73404000D01*
X158090226Y-73447937D01*
X158259744Y-73561205D01*
X158448102Y-73639226D01*
X158648061Y-73679000D01*
X158851939Y-73679000D01*
X159051898Y-73639226D01*
X159240256Y-73561205D01*
X159409774Y-73447937D01*
X159553937Y-73303774D01*
X159667205Y-73134256D01*
X159745226Y-72945898D01*
X159785000Y-72745939D01*
X159785000Y-72542061D01*
X159745226Y-72342102D01*
X159667205Y-72153744D01*
X159570490Y-72009000D01*
X159667205Y-71864256D01*
X159723019Y-71729510D01*
X196870155Y-71729510D01*
X196935395Y-72412888D01*
X197132702Y-73070407D01*
X197454494Y-73676799D01*
X197466150Y-73694243D01*
X197919967Y-74012428D01*
X200192395Y-71740000D01*
X200551605Y-71740000D01*
X202824033Y-74012428D01*
X203277850Y-73694243D01*
X203603269Y-73089790D01*
X203804512Y-72433465D01*
X203873845Y-71750490D01*
X203808605Y-71067112D01*
X203611298Y-70409593D01*
X203289506Y-69803201D01*
X203277850Y-69785757D01*
X202824033Y-69467572D01*
X200551605Y-71740000D01*
X200192395Y-71740000D01*
X197919967Y-69467572D01*
X197466150Y-69785757D01*
X197140731Y-70390210D01*
X196939488Y-71046535D01*
X196870155Y-71729510D01*
X159723019Y-71729510D01*
X159745226Y-71675898D01*
X159785000Y-71475939D01*
X159785000Y-71272061D01*
X159745226Y-71072102D01*
X159667205Y-70883744D01*
X159553937Y-70714226D01*
X159409774Y-70570063D01*
X159240256Y-70456795D01*
X159051898Y-70378774D01*
X158851939Y-70339000D01*
X158648061Y-70339000D01*
X158448102Y-70378774D01*
X158259744Y-70456795D01*
X158090226Y-70570063D01*
X157946063Y-70714226D01*
X157832795Y-70883744D01*
X157754774Y-71072102D01*
X157715000Y-71272061D01*
X157715000Y-71475939D01*
X157754774Y-71675898D01*
X157832795Y-71864256D01*
X157845987Y-71884000D01*
X151643506Y-71884000D01*
X151683990Y-71823411D01*
X151795932Y-71553158D01*
X151853000Y-71266260D01*
X151853000Y-70973740D01*
X151795932Y-70686842D01*
X151683990Y-70416589D01*
X151521475Y-70173368D01*
X151340782Y-69992675D01*
X155333700Y-69992675D01*
X155333700Y-70215325D01*
X155377137Y-70433696D01*
X155462341Y-70639398D01*
X155586039Y-70824524D01*
X155743476Y-70981961D01*
X155928602Y-71105659D01*
X156134304Y-71190863D01*
X156352675Y-71234300D01*
X156575325Y-71234300D01*
X156793696Y-71190863D01*
X156999398Y-71105659D01*
X157184524Y-70981961D01*
X157341961Y-70824524D01*
X157465659Y-70639398D01*
X157550863Y-70433696D01*
X157594300Y-70215325D01*
X157594300Y-69992675D01*
X157550863Y-69774304D01*
X157465659Y-69568602D01*
X157341961Y-69383476D01*
X157246452Y-69287967D01*
X198099572Y-69287967D01*
X200372000Y-71560395D01*
X202644428Y-69287967D01*
X202326243Y-68834150D01*
X201721790Y-68508731D01*
X201065465Y-68307488D01*
X200382490Y-68238155D01*
X199699112Y-68303395D01*
X199041593Y-68500702D01*
X198435201Y-68822494D01*
X198417757Y-68834150D01*
X198099572Y-69287967D01*
X157246452Y-69287967D01*
X157184524Y-69226039D01*
X156999398Y-69102341D01*
X156793696Y-69017137D01*
X156575325Y-68973700D01*
X156352675Y-68973700D01*
X156134304Y-69017137D01*
X155928602Y-69102341D01*
X155743476Y-69226039D01*
X155586039Y-69383476D01*
X155462341Y-69568602D01*
X155377137Y-69774304D01*
X155333700Y-69992675D01*
X151340782Y-69992675D01*
X151314632Y-69966525D01*
X151071411Y-69804010D01*
X150801158Y-69692068D01*
X150514260Y-69635000D01*
X150221740Y-69635000D01*
X149934842Y-69692068D01*
X149664589Y-69804010D01*
X149421368Y-69966525D01*
X149289513Y-70098380D01*
X149267502Y-70025820D01*
X149208537Y-69915506D01*
X149129185Y-69818815D01*
X149032494Y-69739463D01*
X148922180Y-69680498D01*
X148802482Y-69644188D01*
X148678000Y-69631928D01*
X146978000Y-69631928D01*
X146853518Y-69644188D01*
X146733820Y-69680498D01*
X146623506Y-69739463D01*
X146526815Y-69818815D01*
X146447463Y-69915506D01*
X146388498Y-70025820D01*
X146352188Y-70145518D01*
X146339928Y-70270000D01*
X146339928Y-71122000D01*
X139483323Y-71122000D01*
X139445998Y-71118324D01*
X139408673Y-71122000D01*
X139408665Y-71122000D01*
X139297012Y-71132997D01*
X139153751Y-71176454D01*
X139021722Y-71247026D01*
X138905997Y-71341999D01*
X138882199Y-71370997D01*
X135748976Y-74504221D01*
X135719978Y-74528019D01*
X135696180Y-74557017D01*
X135696179Y-74557018D01*
X135625004Y-74643744D01*
X135554432Y-74775774D01*
X135530611Y-74854304D01*
X135510976Y-74919034D01*
X135502527Y-75004822D01*
X135496302Y-75068020D01*
X135499979Y-75105353D01*
X135499978Y-87258231D01*
X135493788Y-87257000D01*
X135270212Y-87257000D01*
X135050933Y-87300617D01*
X134844376Y-87386176D01*
X134658480Y-87510388D01*
X134500388Y-87668480D01*
X134376176Y-87854376D01*
X134290617Y-88060933D01*
X134247000Y-88280212D01*
X134247000Y-88503788D01*
X134290617Y-88723067D01*
X134376176Y-88929624D01*
X134500388Y-89115520D01*
X134658480Y-89273612D01*
X134844376Y-89397824D01*
X135050933Y-89483383D01*
X135270212Y-89527000D01*
X135493788Y-89527000D01*
X135499978Y-89525769D01*
X135499978Y-95073220D01*
X134602213Y-95970986D01*
X134485612Y-95796480D01*
X134327520Y-95638388D01*
X134141624Y-95514176D01*
X133935067Y-95428617D01*
X133715788Y-95385000D01*
X133492212Y-95385000D01*
X133272933Y-95428617D01*
X133066376Y-95514176D01*
X132880480Y-95638388D01*
X132722388Y-95796480D01*
X132598176Y-95982376D01*
X132512617Y-96188933D01*
X132469000Y-96408212D01*
X126998000Y-96408212D01*
X126998000Y-94175717D01*
X127041937Y-94131780D01*
X127155205Y-93962262D01*
X127233226Y-93773904D01*
X127273000Y-93573945D01*
X127273000Y-93370067D01*
X127233226Y-93170108D01*
X127155205Y-92981750D01*
X127041937Y-92812232D01*
X126897774Y-92668069D01*
X126728256Y-92554801D01*
X126539898Y-92476780D01*
X126339939Y-92437006D01*
X126136061Y-92437006D01*
X125936102Y-92476780D01*
X125747744Y-92554801D01*
X125578226Y-92668069D01*
X125434063Y-92812232D01*
X125320795Y-92981750D01*
X125242774Y-93170108D01*
X125203000Y-93370067D01*
X125203000Y-93573945D01*
X125242774Y-93773904D01*
X125320795Y-93962262D01*
X125434063Y-94131780D01*
X125478000Y-94175717D01*
X125478001Y-99971199D01*
X115311014Y-89804212D01*
X118753000Y-89804212D01*
X118753000Y-90027788D01*
X118796617Y-90247067D01*
X118882176Y-90453624D01*
X119006388Y-90639520D01*
X119164480Y-90797612D01*
X119350376Y-90921824D01*
X119556933Y-91007383D01*
X119776212Y-91051000D01*
X119999788Y-91051000D01*
X120219067Y-91007383D01*
X120425624Y-90921824D01*
X120611520Y-90797612D01*
X120769612Y-90639520D01*
X120893824Y-90453624D01*
X120979383Y-90247067D01*
X121023000Y-90027788D01*
X121023000Y-89804212D01*
X120979383Y-89584933D01*
X120893824Y-89378376D01*
X120769612Y-89192480D01*
X120611520Y-89034388D01*
X120425624Y-88910176D01*
X120219067Y-88824617D01*
X120036046Y-88788212D01*
X127389000Y-88788212D01*
X127389000Y-89011788D01*
X127432617Y-89231067D01*
X127518176Y-89437624D01*
X127642388Y-89623520D01*
X127800480Y-89781612D01*
X127986376Y-89905824D01*
X128192933Y-89991383D01*
X128412212Y-90035000D01*
X128635788Y-90035000D01*
X128855067Y-89991383D01*
X129061624Y-89905824D01*
X129247520Y-89781612D01*
X129405612Y-89623520D01*
X129529824Y-89437624D01*
X129615383Y-89231067D01*
X129659000Y-89011788D01*
X129659000Y-88788212D01*
X129615383Y-88568933D01*
X129529824Y-88362376D01*
X129405612Y-88176480D01*
X129247520Y-88018388D01*
X129061624Y-87894176D01*
X128855067Y-87808617D01*
X128635788Y-87765000D01*
X128412212Y-87765000D01*
X128192933Y-87808617D01*
X127986376Y-87894176D01*
X127800480Y-88018388D01*
X127642388Y-88176480D01*
X127518176Y-88362376D01*
X127432617Y-88568933D01*
X127389000Y-88788212D01*
X120036046Y-88788212D01*
X119999788Y-88781000D01*
X119776212Y-88781000D01*
X119556933Y-88824617D01*
X119350376Y-88910176D01*
X119164480Y-89034388D01*
X119006388Y-89192480D01*
X118882176Y-89378376D01*
X118796617Y-89584933D01*
X118753000Y-89804212D01*
X115311014Y-89804212D01*
X113880445Y-88373644D01*
X113896246Y-88335496D01*
X113961000Y-88009958D01*
X113961000Y-87678042D01*
X113896246Y-87352504D01*
X113769228Y-87045853D01*
X113584825Y-86769875D01*
X113350125Y-86535175D01*
X113074147Y-86350772D01*
X112767496Y-86223754D01*
X112441958Y-86159000D01*
X112110042Y-86159000D01*
X111784504Y-86223754D01*
X111477853Y-86350772D01*
X111201875Y-86535175D01*
X110967175Y-86769875D01*
X110782772Y-87045853D01*
X110655754Y-87352504D01*
X110591000Y-87678042D01*
X106032000Y-87678042D01*
X106032000Y-85178042D01*
X107991000Y-85178042D01*
X107991000Y-85509958D01*
X108055754Y-85835496D01*
X108182772Y-86142147D01*
X108367175Y-86418125D01*
X108601875Y-86652825D01*
X108877853Y-86837228D01*
X109184504Y-86964246D01*
X109510042Y-87029000D01*
X109841958Y-87029000D01*
X110167496Y-86964246D01*
X110474147Y-86837228D01*
X110750125Y-86652825D01*
X110984825Y-86418125D01*
X111169228Y-86142147D01*
X111296246Y-85835496D01*
X111361000Y-85509958D01*
X111361000Y-85178042D01*
X111296246Y-84852504D01*
X111169228Y-84545853D01*
X110984825Y-84269875D01*
X110750125Y-84035175D01*
X110720030Y-84015066D01*
X111284539Y-84015066D01*
X111386339Y-84284579D01*
X111684477Y-84430463D01*
X112005346Y-84515380D01*
X112336617Y-84536066D01*
X112665557Y-84491728D01*
X112979527Y-84384069D01*
X113165661Y-84284579D01*
X113267461Y-84015066D01*
X112276000Y-83023605D01*
X111284539Y-84015066D01*
X110720030Y-84015066D01*
X110474147Y-83850772D01*
X110167496Y-83723754D01*
X109841958Y-83659000D01*
X109510042Y-83659000D01*
X109184504Y-83723754D01*
X108877853Y-83850772D01*
X108601875Y-84035175D01*
X108367175Y-84269875D01*
X108182772Y-84545853D01*
X108055754Y-84852504D01*
X107991000Y-85178042D01*
X106032000Y-85178042D01*
X106032000Y-82904617D01*
X110583934Y-82904617D01*
X110628272Y-83233557D01*
X110735931Y-83547527D01*
X110835421Y-83733661D01*
X111104934Y-83835461D01*
X112096395Y-82844000D01*
X112455605Y-82844000D01*
X113447066Y-83835461D01*
X113716579Y-83733661D01*
X113862463Y-83435523D01*
X113947380Y-83114654D01*
X113968066Y-82783383D01*
X113923728Y-82454443D01*
X113816069Y-82140473D01*
X113716579Y-81954339D01*
X113447066Y-81852539D01*
X112455605Y-82844000D01*
X112096395Y-82844000D01*
X111104934Y-81852539D01*
X110835421Y-81954339D01*
X110689537Y-82252477D01*
X110604620Y-82573346D01*
X110583934Y-82904617D01*
X106032000Y-82904617D01*
X106032000Y-80178042D01*
X107991000Y-80178042D01*
X107991000Y-80509958D01*
X108055754Y-80835496D01*
X108182772Y-81142147D01*
X108367175Y-81418125D01*
X108601875Y-81652825D01*
X108877853Y-81837228D01*
X109184504Y-81964246D01*
X109510042Y-82029000D01*
X109841958Y-82029000D01*
X110167496Y-81964246D01*
X110474147Y-81837228D01*
X110720029Y-81672934D01*
X111284539Y-81672934D01*
X112276000Y-82664395D01*
X113267461Y-81672934D01*
X113165661Y-81403421D01*
X112867523Y-81257537D01*
X112546654Y-81172620D01*
X112215383Y-81151934D01*
X111886443Y-81196272D01*
X111572473Y-81303931D01*
X111386339Y-81403421D01*
X111284539Y-81672934D01*
X110720029Y-81672934D01*
X110750125Y-81652825D01*
X110984825Y-81418125D01*
X111169228Y-81142147D01*
X111296246Y-80835496D01*
X111361000Y-80509958D01*
X111361000Y-80178042D01*
X111296246Y-79852504D01*
X111169228Y-79545853D01*
X110984825Y-79269875D01*
X110750125Y-79035175D01*
X110474147Y-78850772D01*
X110167496Y-78723754D01*
X109841958Y-78659000D01*
X109510042Y-78659000D01*
X109184504Y-78723754D01*
X108877853Y-78850772D01*
X108601875Y-79035175D01*
X108367175Y-79269875D01*
X108182772Y-79545853D01*
X108055754Y-79852504D01*
X107991000Y-80178042D01*
X106032000Y-80178042D01*
X106032000Y-75994000D01*
X110637928Y-75994000D01*
X110637928Y-78494000D01*
X110650188Y-78618482D01*
X110686498Y-78738180D01*
X110745463Y-78848494D01*
X110824815Y-78945185D01*
X110921506Y-79024537D01*
X111031820Y-79083502D01*
X111151518Y-79119812D01*
X111276000Y-79132072D01*
X114276000Y-79132072D01*
X114400482Y-79119812D01*
X114520180Y-79083502D01*
X114630494Y-79024537D01*
X114727185Y-78945185D01*
X114806537Y-78848494D01*
X114865502Y-78738180D01*
X114901812Y-78618482D01*
X114914072Y-78494000D01*
X114914072Y-75994000D01*
X114901812Y-75869518D01*
X114865502Y-75749820D01*
X114806537Y-75639506D01*
X114727185Y-75542815D01*
X114630494Y-75463463D01*
X114520180Y-75404498D01*
X114400482Y-75368188D01*
X114276000Y-75355928D01*
X111276000Y-75355928D01*
X111151518Y-75368188D01*
X111031820Y-75404498D01*
X110921506Y-75463463D01*
X110824815Y-75542815D01*
X110745463Y-75639506D01*
X110686498Y-75749820D01*
X110650188Y-75869518D01*
X110637928Y-75994000D01*
X106032000Y-75994000D01*
X106032000Y-74192033D01*
X108099572Y-74192033D01*
X108417757Y-74645850D01*
X109022210Y-74971269D01*
X109678535Y-75172512D01*
X110361510Y-75241845D01*
X111044888Y-75176605D01*
X111702407Y-74979298D01*
X112308799Y-74657506D01*
X112326243Y-74645850D01*
X112644428Y-74192033D01*
X110372000Y-71919605D01*
X108099572Y-74192033D01*
X106032000Y-74192033D01*
X106032000Y-71729510D01*
X106870155Y-71729510D01*
X106935395Y-72412888D01*
X107132702Y-73070407D01*
X107454494Y-73676799D01*
X107466150Y-73694243D01*
X107919967Y-74012428D01*
X110192395Y-71740000D01*
X110551605Y-71740000D01*
X112824033Y-74012428D01*
X113277850Y-73694243D01*
X113603269Y-73089790D01*
X113804512Y-72433465D01*
X113873845Y-71750490D01*
X113808605Y-71067112D01*
X113611298Y-70409593D01*
X113289506Y-69803201D01*
X113277850Y-69785757D01*
X112824033Y-69467572D01*
X110551605Y-71740000D01*
X110192395Y-71740000D01*
X107919967Y-69467572D01*
X107466150Y-69785757D01*
X107140731Y-70390210D01*
X106939488Y-71046535D01*
X106870155Y-71729510D01*
X106032000Y-71729510D01*
X106032000Y-69287967D01*
X108099572Y-69287967D01*
X110372000Y-71560395D01*
X112644428Y-69287967D01*
X112326243Y-68834150D01*
X111721790Y-68508731D01*
X111065465Y-68307488D01*
X110382490Y-68238155D01*
X109699112Y-68303395D01*
X109041593Y-68500702D01*
X108435201Y-68822494D01*
X108417757Y-68834150D01*
X108099572Y-69287967D01*
X106032000Y-69287967D01*
X106032000Y-69272279D01*
X106070147Y-68883225D01*
X106173763Y-68540033D01*
X106342062Y-68223511D01*
X106568637Y-67945701D01*
X106844856Y-67717194D01*
X107160197Y-67546690D01*
X107502656Y-67440681D01*
X107889712Y-67400000D01*
X116205000Y-67400000D01*
X116205000Y-84836000D01*
G37*
G04 #@! TD.AperFunction*
D32*
X191364236Y-92243937D02*
X191468014Y-92313279D01*
X191360795Y-92473744D01*
X191282774Y-92662102D01*
X191272849Y-92712000D01*
X162870802Y-92712000D01*
X163382803Y-92200000D01*
X191320299Y-92200000D01*
X191364236Y-92243937D01*
G04 #@! TA.AperFunction,Conductor*
D33*
G36*
X191364236Y-92243937D02*
G01*
X191468014Y-92313279D01*
X191360795Y-92473744D01*
X191282774Y-92662102D01*
X191272849Y-92712000D01*
X162870802Y-92712000D01*
X163382803Y-92200000D01*
X191320299Y-92200000D01*
X191364236Y-92243937D01*
G37*
G04 #@! TD.AperFunction*
D32*
X129921000Y-84201000D02*
X116967000Y-84201000D01*
X116967000Y-68846000D01*
X120939928Y-68846000D01*
X120939928Y-70346000D01*
X120956992Y-70519254D01*
X121007528Y-70685850D01*
X121089595Y-70839386D01*
X121200038Y-70973962D01*
X121334614Y-71084405D01*
X121488150Y-71166472D01*
X121654746Y-71217008D01*
X121828000Y-71234072D01*
X123028000Y-71234072D01*
X123201254Y-71217008D01*
X123367850Y-71166472D01*
X123521386Y-71084405D01*
X123655962Y-70973962D01*
X123766405Y-70839386D01*
X123820777Y-70737663D01*
X123872866Y-70801134D01*
X124098987Y-70986706D01*
X124356967Y-71124599D01*
X124636890Y-71209513D01*
X124928000Y-71238185D01*
X125219111Y-71209513D01*
X125499034Y-71124599D01*
X125757014Y-70986706D01*
X125983134Y-70801134D01*
X126168706Y-70575014D01*
X126306599Y-70317033D01*
X126391513Y-70037110D01*
X126413000Y-69818949D01*
X126413000Y-69373050D01*
X126391513Y-69154889D01*
X126306599Y-68874966D01*
X126168706Y-68616986D01*
X125983134Y-68390866D01*
X125757013Y-68205294D01*
X125499033Y-68067401D01*
X125219110Y-67982487D01*
X124928000Y-67953815D01*
X124636889Y-67982487D01*
X124356966Y-68067401D01*
X124098986Y-68205294D01*
X123872866Y-68390866D01*
X123820777Y-68454337D01*
X123766405Y-68352614D01*
X123655962Y-68218038D01*
X123521386Y-68107595D01*
X123367850Y-68025528D01*
X123201254Y-67974992D01*
X123028000Y-67957928D01*
X121828000Y-67957928D01*
X121654746Y-67974992D01*
X121488150Y-68025528D01*
X121334614Y-68107595D01*
X121200038Y-68218038D01*
X121089595Y-68352614D01*
X121007528Y-68506150D01*
X120956992Y-68672746D01*
X120939928Y-68846000D01*
X116967000Y-68846000D01*
X116967000Y-67400000D01*
X129921000Y-67400000D01*
X129921000Y-84201000D01*
G04 #@! TA.AperFunction,Conductor*
D33*
G36*
X129921000Y-84201000D02*
G01*
X116967000Y-84201000D01*
X116967000Y-68846000D01*
X120939928Y-68846000D01*
X120939928Y-70346000D01*
X120956992Y-70519254D01*
X121007528Y-70685850D01*
X121089595Y-70839386D01*
X121200038Y-70973962D01*
X121334614Y-71084405D01*
X121488150Y-71166472D01*
X121654746Y-71217008D01*
X121828000Y-71234072D01*
X123028000Y-71234072D01*
X123201254Y-71217008D01*
X123367850Y-71166472D01*
X123521386Y-71084405D01*
X123655962Y-70973962D01*
X123766405Y-70839386D01*
X123820777Y-70737663D01*
X123872866Y-70801134D01*
X124098987Y-70986706D01*
X124356967Y-71124599D01*
X124636890Y-71209513D01*
X124928000Y-71238185D01*
X125219111Y-71209513D01*
X125499034Y-71124599D01*
X125757014Y-70986706D01*
X125983134Y-70801134D01*
X126168706Y-70575014D01*
X126306599Y-70317033D01*
X126391513Y-70037110D01*
X126413000Y-69818949D01*
X126413000Y-69373050D01*
X126391513Y-69154889D01*
X126306599Y-68874966D01*
X126168706Y-68616986D01*
X125983134Y-68390866D01*
X125757013Y-68205294D01*
X125499033Y-68067401D01*
X125219110Y-67982487D01*
X124928000Y-67953815D01*
X124636889Y-67982487D01*
X124356966Y-68067401D01*
X124098986Y-68205294D01*
X123872866Y-68390866D01*
X123820777Y-68454337D01*
X123766405Y-68352614D01*
X123655962Y-68218038D01*
X123521386Y-68107595D01*
X123367850Y-68025528D01*
X123201254Y-67974992D01*
X123028000Y-67957928D01*
X121828000Y-67957928D01*
X121654746Y-67974992D01*
X121488150Y-68025528D01*
X121334614Y-68107595D01*
X121200038Y-68218038D01*
X121089595Y-68352614D01*
X121007528Y-68506150D01*
X120956992Y-68672746D01*
X120939928Y-68846000D01*
X116967000Y-68846000D01*
X116967000Y-67400000D01*
X129921000Y-67400000D01*
X129921000Y-84201000D01*
G37*
G04 #@! TD.AperFunction*
M02*
