G04 #@! TF.GenerationSoftware,KiCad,Pcbnew,(5.1.9)-1*
G04 #@! TF.CreationDate,2021-08-12T22:27:46-04:00*
G04 #@! TF.ProjectId,ElectronicLoad,456c6563-7472-46f6-9e69-634c6f61642e,A*
G04 #@! TF.SameCoordinates,Original*
G04 #@! TF.FileFunction,Legend,Bot*
G04 #@! TF.FilePolarity,Positive*
%FSLAX46Y46*%
G04 Gerber Fmt 4.6, Leading zero omitted, Abs format (unit mm)*
G04 Created by KiCad (PCBNEW (5.1.9)-1) date 2021-08-12 22:27:46*
%MOMM*%
%LPD*%
G01*
G04 APERTURE LIST*
%ADD10C,0.150000*%
%ADD11C,2.100000*%
%ADD12R,3.000000X2.500000*%
%ADD13O,2.000000X1.905000*%
%ADD14R,2.000000X1.905000*%
%ADD15C,3.000000*%
%ADD16C,3.686000*%
%ADD17C,5.700000*%
%ADD18O,1.600000X2.400000*%
%ADD19R,1.600000X2.400000*%
%ADD20O,1.700000X1.950000*%
%ADD21O,1.700000X2.000000*%
%ADD22C,1.500000*%
%ADD23C,0.990600*%
%ADD24O,1.700000X1.700000*%
%ADD25R,1.700000X1.700000*%
%ADD26C,3.500000*%
%ADD27C,1.700000*%
%ADD28C,2.600000*%
%ADD29R,2.600000X2.600000*%
G04 APERTURE END LIST*
D10*
X190164404Y-116833571D02*
X189831071Y-116833571D01*
X189688214Y-117357380D02*
X190164404Y-117357380D01*
X190164404Y-116357380D01*
X189688214Y-116357380D01*
X189116785Y-117357380D02*
X189212023Y-117309761D01*
X189259642Y-117214523D01*
X189259642Y-116357380D01*
X188354880Y-117309761D02*
X188450119Y-117357380D01*
X188640595Y-117357380D01*
X188735833Y-117309761D01*
X188783452Y-117214523D01*
X188783452Y-116833571D01*
X188735833Y-116738333D01*
X188640595Y-116690714D01*
X188450119Y-116690714D01*
X188354880Y-116738333D01*
X188307261Y-116833571D01*
X188307261Y-116928809D01*
X188783452Y-117024047D01*
X187450119Y-117309761D02*
X187545357Y-117357380D01*
X187735833Y-117357380D01*
X187831071Y-117309761D01*
X187878690Y-117262142D01*
X187926309Y-117166904D01*
X187926309Y-116881190D01*
X187878690Y-116785952D01*
X187831071Y-116738333D01*
X187735833Y-116690714D01*
X187545357Y-116690714D01*
X187450119Y-116738333D01*
X187164404Y-116690714D02*
X186783452Y-116690714D01*
X187021547Y-116357380D02*
X187021547Y-117214523D01*
X186973928Y-117309761D01*
X186878690Y-117357380D01*
X186783452Y-117357380D01*
X186450119Y-117357380D02*
X186450119Y-116690714D01*
X186450119Y-116881190D02*
X186402500Y-116785952D01*
X186354880Y-116738333D01*
X186259642Y-116690714D01*
X186164404Y-116690714D01*
X185688214Y-117357380D02*
X185783452Y-117309761D01*
X185831071Y-117262142D01*
X185878690Y-117166904D01*
X185878690Y-116881190D01*
X185831071Y-116785952D01*
X185783452Y-116738333D01*
X185688214Y-116690714D01*
X185545357Y-116690714D01*
X185450119Y-116738333D01*
X185402500Y-116785952D01*
X185354880Y-116881190D01*
X185354880Y-117166904D01*
X185402500Y-117262142D01*
X185450119Y-117309761D01*
X185545357Y-117357380D01*
X185688214Y-117357380D01*
X184926309Y-116690714D02*
X184926309Y-117357380D01*
X184926309Y-116785952D02*
X184878690Y-116738333D01*
X184783452Y-116690714D01*
X184640595Y-116690714D01*
X184545357Y-116738333D01*
X184497738Y-116833571D01*
X184497738Y-117357380D01*
X184021547Y-117357380D02*
X184021547Y-116690714D01*
X184021547Y-116357380D02*
X184069166Y-116405000D01*
X184021547Y-116452619D01*
X183973928Y-116405000D01*
X184021547Y-116357380D01*
X184021547Y-116452619D01*
X183116785Y-117309761D02*
X183212023Y-117357380D01*
X183402500Y-117357380D01*
X183497738Y-117309761D01*
X183545357Y-117262142D01*
X183592976Y-117166904D01*
X183592976Y-116881190D01*
X183545357Y-116785952D01*
X183497738Y-116738333D01*
X183402500Y-116690714D01*
X183212023Y-116690714D01*
X183116785Y-116738333D01*
X181450119Y-117357380D02*
X181926309Y-117357380D01*
X181926309Y-116357380D01*
X180973928Y-117357380D02*
X181069166Y-117309761D01*
X181116785Y-117262142D01*
X181164404Y-117166904D01*
X181164404Y-116881190D01*
X181116785Y-116785952D01*
X181069166Y-116738333D01*
X180973928Y-116690714D01*
X180831071Y-116690714D01*
X180735833Y-116738333D01*
X180688214Y-116785952D01*
X180640595Y-116881190D01*
X180640595Y-117166904D01*
X180688214Y-117262142D01*
X180735833Y-117309761D01*
X180831071Y-117357380D01*
X180973928Y-117357380D01*
X179783452Y-117357380D02*
X179783452Y-116833571D01*
X179831071Y-116738333D01*
X179926309Y-116690714D01*
X180116785Y-116690714D01*
X180212023Y-116738333D01*
X179783452Y-117309761D02*
X179878690Y-117357380D01*
X180116785Y-117357380D01*
X180212023Y-117309761D01*
X180259642Y-117214523D01*
X180259642Y-117119285D01*
X180212023Y-117024047D01*
X180116785Y-116976428D01*
X179878690Y-116976428D01*
X179783452Y-116928809D01*
X178878690Y-117357380D02*
X178878690Y-116357380D01*
X178878690Y-117309761D02*
X178973928Y-117357380D01*
X179164404Y-117357380D01*
X179259642Y-117309761D01*
X179307261Y-117262142D01*
X179354880Y-117166904D01*
X179354880Y-116881190D01*
X179307261Y-116785952D01*
X179259642Y-116738333D01*
X179164404Y-116690714D01*
X178973928Y-116690714D01*
X178878690Y-116738333D01*
X177069166Y-117357380D02*
X177402500Y-116881190D01*
X177640595Y-117357380D02*
X177640595Y-116357380D01*
X177259642Y-116357380D01*
X177164404Y-116405000D01*
X177116785Y-116452619D01*
X177069166Y-116547857D01*
X177069166Y-116690714D01*
X177116785Y-116785952D01*
X177164404Y-116833571D01*
X177259642Y-116881190D01*
X177640595Y-116881190D01*
X176259642Y-117309761D02*
X176354880Y-117357380D01*
X176545357Y-117357380D01*
X176640595Y-117309761D01*
X176688214Y-117214523D01*
X176688214Y-116833571D01*
X176640595Y-116738333D01*
X176545357Y-116690714D01*
X176354880Y-116690714D01*
X176259642Y-116738333D01*
X176212023Y-116833571D01*
X176212023Y-116928809D01*
X176688214Y-117024047D01*
X175878690Y-116690714D02*
X175640595Y-117357380D01*
X175402500Y-116690714D01*
X174307261Y-117071666D02*
X173831071Y-117071666D01*
X174402500Y-117357380D02*
X174069166Y-116357380D01*
X173735833Y-117357380D01*
X190212023Y-118102619D02*
X190164404Y-118055000D01*
X190069166Y-118007380D01*
X189831071Y-118007380D01*
X189735833Y-118055000D01*
X189688214Y-118102619D01*
X189640595Y-118197857D01*
X189640595Y-118293095D01*
X189688214Y-118435952D01*
X190259642Y-119007380D01*
X189640595Y-119007380D01*
X189021547Y-118007380D02*
X188926309Y-118007380D01*
X188831071Y-118055000D01*
X188783452Y-118102619D01*
X188735833Y-118197857D01*
X188688214Y-118388333D01*
X188688214Y-118626428D01*
X188735833Y-118816904D01*
X188783452Y-118912142D01*
X188831071Y-118959761D01*
X188926309Y-119007380D01*
X189021547Y-119007380D01*
X189116785Y-118959761D01*
X189164404Y-118912142D01*
X189212023Y-118816904D01*
X189259642Y-118626428D01*
X189259642Y-118388333D01*
X189212023Y-118197857D01*
X189164404Y-118102619D01*
X189116785Y-118055000D01*
X189021547Y-118007380D01*
X188307261Y-118102619D02*
X188259642Y-118055000D01*
X188164404Y-118007380D01*
X187926309Y-118007380D01*
X187831071Y-118055000D01*
X187783452Y-118102619D01*
X187735833Y-118197857D01*
X187735833Y-118293095D01*
X187783452Y-118435952D01*
X188354880Y-119007380D01*
X187735833Y-119007380D01*
X186783452Y-119007380D02*
X187354880Y-119007380D01*
X187069166Y-119007380D02*
X187069166Y-118007380D01*
X187164404Y-118150238D01*
X187259642Y-118245476D01*
X187354880Y-118293095D01*
X185592976Y-119007380D02*
X185592976Y-118007380D01*
X185354880Y-118007380D01*
X185212023Y-118055000D01*
X185116785Y-118150238D01*
X185069166Y-118245476D01*
X185021547Y-118435952D01*
X185021547Y-118578809D01*
X185069166Y-118769285D01*
X185116785Y-118864523D01*
X185212023Y-118959761D01*
X185354880Y-119007380D01*
X185592976Y-119007380D01*
X184450119Y-119007380D02*
X184545357Y-118959761D01*
X184592976Y-118912142D01*
X184640595Y-118816904D01*
X184640595Y-118531190D01*
X184592976Y-118435952D01*
X184545357Y-118388333D01*
X184450119Y-118340714D01*
X184307261Y-118340714D01*
X184212023Y-118388333D01*
X184164404Y-118435952D01*
X184116785Y-118531190D01*
X184116785Y-118816904D01*
X184164404Y-118912142D01*
X184212023Y-118959761D01*
X184307261Y-119007380D01*
X184450119Y-119007380D01*
X183688214Y-119007380D02*
X183688214Y-118340714D01*
X183688214Y-118435952D02*
X183640595Y-118388333D01*
X183545357Y-118340714D01*
X183402500Y-118340714D01*
X183307261Y-118388333D01*
X183259642Y-118483571D01*
X183259642Y-119007380D01*
X183259642Y-118483571D02*
X183212023Y-118388333D01*
X183116785Y-118340714D01*
X182973928Y-118340714D01*
X182878690Y-118388333D01*
X182831071Y-118483571D01*
X182831071Y-119007380D01*
X182354880Y-119007380D02*
X182354880Y-118340714D01*
X182354880Y-118007380D02*
X182402500Y-118055000D01*
X182354880Y-118102619D01*
X182307261Y-118055000D01*
X182354880Y-118007380D01*
X182354880Y-118102619D01*
X181878690Y-118340714D02*
X181878690Y-119007380D01*
X181878690Y-118435952D02*
X181831071Y-118388333D01*
X181735833Y-118340714D01*
X181592976Y-118340714D01*
X181497738Y-118388333D01*
X181450119Y-118483571D01*
X181450119Y-119007380D01*
X180973928Y-119007380D02*
X180973928Y-118340714D01*
X180973928Y-118007380D02*
X181021547Y-118055000D01*
X180973928Y-118102619D01*
X180926309Y-118055000D01*
X180973928Y-118007380D01*
X180973928Y-118102619D01*
X180069166Y-118959761D02*
X180164404Y-119007380D01*
X180354880Y-119007380D01*
X180450119Y-118959761D01*
X180497738Y-118912142D01*
X180545357Y-118816904D01*
X180545357Y-118531190D01*
X180497738Y-118435952D01*
X180450119Y-118388333D01*
X180354880Y-118340714D01*
X180164404Y-118340714D01*
X180069166Y-118388333D01*
X179021547Y-118007380D02*
X178450119Y-118007380D01*
X178735833Y-119007380D02*
X178735833Y-118007380D01*
X178116785Y-119007380D02*
X178116785Y-118007380D01*
X177688214Y-119007380D02*
X177688214Y-118483571D01*
X177735833Y-118388333D01*
X177831071Y-118340714D01*
X177973928Y-118340714D01*
X178069166Y-118388333D01*
X178116785Y-118435952D01*
X177212023Y-119007380D02*
X177212023Y-118340714D01*
X177212023Y-118007380D02*
X177259642Y-118055000D01*
X177212023Y-118102619D01*
X177164404Y-118055000D01*
X177212023Y-118007380D01*
X177212023Y-118102619D01*
X176735833Y-119007380D02*
X176735833Y-118007380D01*
X176735833Y-118388333D02*
X176640595Y-118340714D01*
X176450119Y-118340714D01*
X176354880Y-118388333D01*
X176307261Y-118435952D01*
X176259642Y-118531190D01*
X176259642Y-118816904D01*
X176307261Y-118912142D01*
X176354880Y-118959761D01*
X176450119Y-119007380D01*
X176640595Y-119007380D01*
X176735833Y-118959761D01*
X175688214Y-119007380D02*
X175783452Y-118959761D01*
X175831071Y-118912142D01*
X175878690Y-118816904D01*
X175878690Y-118531190D01*
X175831071Y-118435952D01*
X175783452Y-118388333D01*
X175688214Y-118340714D01*
X175545357Y-118340714D01*
X175450119Y-118388333D01*
X175402500Y-118435952D01*
X175354880Y-118531190D01*
X175354880Y-118816904D01*
X175402500Y-118912142D01*
X175450119Y-118959761D01*
X175545357Y-119007380D01*
X175688214Y-119007380D01*
X174497738Y-119007380D02*
X174497738Y-118007380D01*
X174497738Y-118959761D02*
X174592976Y-119007380D01*
X174783452Y-119007380D01*
X174878690Y-118959761D01*
X174926309Y-118912142D01*
X174973928Y-118816904D01*
X174973928Y-118531190D01*
X174926309Y-118435952D01*
X174878690Y-118388333D01*
X174783452Y-118340714D01*
X174592976Y-118340714D01*
X174497738Y-118388333D01*
X173640595Y-118959761D02*
X173735833Y-119007380D01*
X173926309Y-119007380D01*
X174021547Y-118959761D01*
X174069166Y-118864523D01*
X174069166Y-118483571D01*
X174021547Y-118388333D01*
X173926309Y-118340714D01*
X173735833Y-118340714D01*
X173640595Y-118388333D01*
X173592976Y-118483571D01*
X173592976Y-118578809D01*
X174069166Y-118674047D01*
X172735833Y-119007380D02*
X172735833Y-118483571D01*
X172783452Y-118388333D01*
X172878690Y-118340714D01*
X173069166Y-118340714D01*
X173164404Y-118388333D01*
X172735833Y-118959761D02*
X172831071Y-119007380D01*
X173069166Y-119007380D01*
X173164404Y-118959761D01*
X173212023Y-118864523D01*
X173212023Y-118769285D01*
X173164404Y-118674047D01*
X173069166Y-118626428D01*
X172831071Y-118626428D01*
X172735833Y-118578809D01*
X171831071Y-118340714D02*
X171831071Y-119007380D01*
X172259642Y-118340714D02*
X172259642Y-118864523D01*
X172212023Y-118959761D01*
X172116785Y-119007380D01*
X171973928Y-119007380D01*
X171878690Y-118959761D01*
X171831071Y-118912142D01*
X190164404Y-120657380D02*
X190164404Y-119657380D01*
X189735833Y-120657380D02*
X189735833Y-120133571D01*
X189783452Y-120038333D01*
X189878690Y-119990714D01*
X190021547Y-119990714D01*
X190116785Y-120038333D01*
X190164404Y-120085952D01*
X189402500Y-119990714D02*
X189021547Y-119990714D01*
X189259642Y-119657380D02*
X189259642Y-120514523D01*
X189212023Y-120609761D01*
X189116785Y-120657380D01*
X189021547Y-120657380D01*
X188831071Y-119990714D02*
X188450119Y-119990714D01*
X188688214Y-119657380D02*
X188688214Y-120514523D01*
X188640595Y-120609761D01*
X188545357Y-120657380D01*
X188450119Y-120657380D01*
X188116785Y-119990714D02*
X188116785Y-120990714D01*
X188116785Y-120038333D02*
X188021547Y-119990714D01*
X187831071Y-119990714D01*
X187735833Y-120038333D01*
X187688214Y-120085952D01*
X187640595Y-120181190D01*
X187640595Y-120466904D01*
X187688214Y-120562142D01*
X187735833Y-120609761D01*
X187831071Y-120657380D01*
X188021547Y-120657380D01*
X188116785Y-120609761D01*
X187259642Y-120609761D02*
X187164404Y-120657380D01*
X186973928Y-120657380D01*
X186878690Y-120609761D01*
X186831071Y-120514523D01*
X186831071Y-120466904D01*
X186878690Y-120371666D01*
X186973928Y-120324047D01*
X187116785Y-120324047D01*
X187212023Y-120276428D01*
X187259642Y-120181190D01*
X187259642Y-120133571D01*
X187212023Y-120038333D01*
X187116785Y-119990714D01*
X186973928Y-119990714D01*
X186878690Y-120038333D01*
X186402500Y-120562142D02*
X186354880Y-120609761D01*
X186402500Y-120657380D01*
X186450119Y-120609761D01*
X186402500Y-120562142D01*
X186402500Y-120657380D01*
X186402500Y-120038333D02*
X186354880Y-120085952D01*
X186402500Y-120133571D01*
X186450119Y-120085952D01*
X186402500Y-120038333D01*
X186402500Y-120133571D01*
X185212023Y-119609761D02*
X186069166Y-120895476D01*
X184164404Y-119609761D02*
X185021547Y-120895476D01*
X183402500Y-119990714D02*
X183402500Y-120800238D01*
X183450119Y-120895476D01*
X183497738Y-120943095D01*
X183592976Y-120990714D01*
X183735833Y-120990714D01*
X183831071Y-120943095D01*
X183402500Y-120609761D02*
X183497738Y-120657380D01*
X183688214Y-120657380D01*
X183783452Y-120609761D01*
X183831071Y-120562142D01*
X183878690Y-120466904D01*
X183878690Y-120181190D01*
X183831071Y-120085952D01*
X183783452Y-120038333D01*
X183688214Y-119990714D01*
X183497738Y-119990714D01*
X183402500Y-120038333D01*
X182926309Y-120657380D02*
X182926309Y-119990714D01*
X182926309Y-119657380D02*
X182973928Y-119705000D01*
X182926309Y-119752619D01*
X182878690Y-119705000D01*
X182926309Y-119657380D01*
X182926309Y-119752619D01*
X182592976Y-119990714D02*
X182212023Y-119990714D01*
X182450119Y-119657380D02*
X182450119Y-120514523D01*
X182402500Y-120609761D01*
X182307261Y-120657380D01*
X182212023Y-120657380D01*
X181878690Y-120657380D02*
X181878690Y-119657380D01*
X181450119Y-120657380D02*
X181450119Y-120133571D01*
X181497738Y-120038333D01*
X181592976Y-119990714D01*
X181735833Y-119990714D01*
X181831071Y-120038333D01*
X181878690Y-120085952D01*
X180545357Y-119990714D02*
X180545357Y-120657380D01*
X180973928Y-119990714D02*
X180973928Y-120514523D01*
X180926309Y-120609761D01*
X180831071Y-120657380D01*
X180688214Y-120657380D01*
X180592976Y-120609761D01*
X180545357Y-120562142D01*
X180069166Y-120657380D02*
X180069166Y-119657380D01*
X180069166Y-120038333D02*
X179973928Y-119990714D01*
X179783452Y-119990714D01*
X179688214Y-120038333D01*
X179640595Y-120085952D01*
X179592976Y-120181190D01*
X179592976Y-120466904D01*
X179640595Y-120562142D01*
X179688214Y-120609761D01*
X179783452Y-120657380D01*
X179973928Y-120657380D01*
X180069166Y-120609761D01*
X179164404Y-120562142D02*
X179116785Y-120609761D01*
X179164404Y-120657380D01*
X179212023Y-120609761D01*
X179164404Y-120562142D01*
X179164404Y-120657380D01*
X178259642Y-120609761D02*
X178354880Y-120657380D01*
X178545357Y-120657380D01*
X178640595Y-120609761D01*
X178688214Y-120562142D01*
X178735833Y-120466904D01*
X178735833Y-120181190D01*
X178688214Y-120085952D01*
X178640595Y-120038333D01*
X178545357Y-119990714D01*
X178354880Y-119990714D01*
X178259642Y-120038333D01*
X177688214Y-120657380D02*
X177783452Y-120609761D01*
X177831071Y-120562142D01*
X177878690Y-120466904D01*
X177878690Y-120181190D01*
X177831071Y-120085952D01*
X177783452Y-120038333D01*
X177688214Y-119990714D01*
X177545357Y-119990714D01*
X177450119Y-120038333D01*
X177402500Y-120085952D01*
X177354880Y-120181190D01*
X177354880Y-120466904D01*
X177402500Y-120562142D01*
X177450119Y-120609761D01*
X177545357Y-120657380D01*
X177688214Y-120657380D01*
X176926309Y-120657380D02*
X176926309Y-119990714D01*
X176926309Y-120085952D02*
X176878690Y-120038333D01*
X176783452Y-119990714D01*
X176640595Y-119990714D01*
X176545357Y-120038333D01*
X176497738Y-120133571D01*
X176497738Y-120657380D01*
X176497738Y-120133571D02*
X176450119Y-120038333D01*
X176354880Y-119990714D01*
X176212023Y-119990714D01*
X176116785Y-120038333D01*
X176069166Y-120133571D01*
X176069166Y-120657380D01*
X174878690Y-119609761D02*
X175735833Y-120895476D01*
X174545357Y-120657380D02*
X174545357Y-119657380D01*
X174116785Y-120657380D02*
X174116785Y-120133571D01*
X174164404Y-120038333D01*
X174259642Y-119990714D01*
X174402500Y-119990714D01*
X174497738Y-120038333D01*
X174545357Y-120085952D01*
X173497738Y-120657380D02*
X173592976Y-120609761D01*
X173640595Y-120562142D01*
X173688214Y-120466904D01*
X173688214Y-120181190D01*
X173640595Y-120085952D01*
X173592976Y-120038333D01*
X173497738Y-119990714D01*
X173354880Y-119990714D01*
X173259642Y-120038333D01*
X173212023Y-120085952D01*
X173164404Y-120181190D01*
X173164404Y-120466904D01*
X173212023Y-120562142D01*
X173259642Y-120609761D01*
X173354880Y-120657380D01*
X173497738Y-120657380D01*
X172878690Y-119990714D02*
X172497738Y-119990714D01*
X172735833Y-119657380D02*
X172735833Y-120514523D01*
X172688214Y-120609761D01*
X172592976Y-120657380D01*
X172497738Y-120657380D01*
X172164404Y-120657380D02*
X172164404Y-119657380D01*
X172069166Y-120276428D02*
X171783452Y-120657380D01*
X171783452Y-119990714D02*
X172164404Y-120371666D01*
X170973928Y-120609761D02*
X171069166Y-120657380D01*
X171259642Y-120657380D01*
X171354880Y-120609761D01*
X171402500Y-120514523D01*
X171402500Y-120133571D01*
X171354880Y-120038333D01*
X171259642Y-119990714D01*
X171069166Y-119990714D01*
X170973928Y-120038333D01*
X170926309Y-120133571D01*
X170926309Y-120228809D01*
X171402500Y-120324047D01*
X170592976Y-119990714D02*
X170354880Y-120657380D01*
X170116785Y-119990714D02*
X170354880Y-120657380D01*
X170450119Y-120895476D01*
X170497738Y-120943095D01*
X170592976Y-120990714D01*
X169783452Y-120609761D02*
X169688214Y-120657380D01*
X169497738Y-120657380D01*
X169402500Y-120609761D01*
X169354880Y-120514523D01*
X169354880Y-120466904D01*
X169402500Y-120371666D01*
X169497738Y-120324047D01*
X169640595Y-120324047D01*
X169735833Y-120276428D01*
X169783452Y-120181190D01*
X169783452Y-120133571D01*
X169735833Y-120038333D01*
X169640595Y-119990714D01*
X169497738Y-119990714D01*
X169402500Y-120038333D01*
X168783452Y-120657380D02*
X168878690Y-120609761D01*
X168926309Y-120562142D01*
X168973928Y-120466904D01*
X168973928Y-120181190D01*
X168926309Y-120085952D01*
X168878690Y-120038333D01*
X168783452Y-119990714D01*
X168640595Y-119990714D01*
X168545357Y-120038333D01*
X168497738Y-120085952D01*
X168450119Y-120181190D01*
X168450119Y-120466904D01*
X168497738Y-120562142D01*
X168545357Y-120609761D01*
X168640595Y-120657380D01*
X168783452Y-120657380D01*
X168164404Y-119990714D02*
X167783452Y-119990714D01*
X168021547Y-120657380D02*
X168021547Y-119800238D01*
X167973928Y-119705000D01*
X167878690Y-119657380D01*
X167783452Y-119657380D01*
X167592976Y-119990714D02*
X167212023Y-119990714D01*
X167450119Y-119657380D02*
X167450119Y-120514523D01*
X167402500Y-120609761D01*
X167307261Y-120657380D01*
X167212023Y-120657380D01*
X166164404Y-119609761D02*
X167021547Y-120895476D01*
X165450119Y-120609761D02*
X165545357Y-120657380D01*
X165735833Y-120657380D01*
X165831071Y-120609761D01*
X165878690Y-120514523D01*
X165878690Y-120133571D01*
X165831071Y-120038333D01*
X165735833Y-119990714D01*
X165545357Y-119990714D01*
X165450119Y-120038333D01*
X165402500Y-120133571D01*
X165402500Y-120228809D01*
X165878690Y-120324047D01*
X164831071Y-120657380D02*
X164926309Y-120609761D01*
X164973928Y-120514523D01*
X164973928Y-119657380D01*
X164069166Y-120609761D02*
X164164404Y-120657380D01*
X164354880Y-120657380D01*
X164450119Y-120609761D01*
X164497738Y-120514523D01*
X164497738Y-120133571D01*
X164450119Y-120038333D01*
X164354880Y-119990714D01*
X164164404Y-119990714D01*
X164069166Y-120038333D01*
X164021547Y-120133571D01*
X164021547Y-120228809D01*
X164497738Y-120324047D01*
X163164404Y-120609761D02*
X163259642Y-120657380D01*
X163450119Y-120657380D01*
X163545357Y-120609761D01*
X163592976Y-120562142D01*
X163640595Y-120466904D01*
X163640595Y-120181190D01*
X163592976Y-120085952D01*
X163545357Y-120038333D01*
X163450119Y-119990714D01*
X163259642Y-119990714D01*
X163164404Y-120038333D01*
X162878690Y-119990714D02*
X162497738Y-119990714D01*
X162735833Y-119657380D02*
X162735833Y-120514523D01*
X162688214Y-120609761D01*
X162592976Y-120657380D01*
X162497738Y-120657380D01*
X162164404Y-120657380D02*
X162164404Y-119990714D01*
X162164404Y-120181190D02*
X162116785Y-120085952D01*
X162069166Y-120038333D01*
X161973928Y-119990714D01*
X161878690Y-119990714D01*
X161402500Y-120657380D02*
X161497738Y-120609761D01*
X161545357Y-120562142D01*
X161592976Y-120466904D01*
X161592976Y-120181190D01*
X161545357Y-120085952D01*
X161497738Y-120038333D01*
X161402500Y-119990714D01*
X161259642Y-119990714D01*
X161164404Y-120038333D01*
X161116785Y-120085952D01*
X161069166Y-120181190D01*
X161069166Y-120466904D01*
X161116785Y-120562142D01*
X161164404Y-120609761D01*
X161259642Y-120657380D01*
X161402500Y-120657380D01*
X160640595Y-119990714D02*
X160640595Y-120657380D01*
X160640595Y-120085952D02*
X160592976Y-120038333D01*
X160497738Y-119990714D01*
X160354880Y-119990714D01*
X160259642Y-120038333D01*
X160212023Y-120133571D01*
X160212023Y-120657380D01*
X159735833Y-120657380D02*
X159735833Y-119990714D01*
X159735833Y-119657380D02*
X159783452Y-119705000D01*
X159735833Y-119752619D01*
X159688214Y-119705000D01*
X159735833Y-119657380D01*
X159735833Y-119752619D01*
X158831071Y-120609761D02*
X158926309Y-120657380D01*
X159116785Y-120657380D01*
X159212023Y-120609761D01*
X159259642Y-120562142D01*
X159307261Y-120466904D01*
X159307261Y-120181190D01*
X159259642Y-120085952D01*
X159212023Y-120038333D01*
X159116785Y-119990714D01*
X158926309Y-119990714D01*
X158831071Y-120038333D01*
X157926309Y-120657380D02*
X158402500Y-120657380D01*
X158402500Y-119657380D01*
X157450119Y-120657380D02*
X157545357Y-120609761D01*
X157592976Y-120562142D01*
X157640595Y-120466904D01*
X157640595Y-120181190D01*
X157592976Y-120085952D01*
X157545357Y-120038333D01*
X157450119Y-119990714D01*
X157307261Y-119990714D01*
X157212023Y-120038333D01*
X157164404Y-120085952D01*
X157116785Y-120181190D01*
X157116785Y-120466904D01*
X157164404Y-120562142D01*
X157212023Y-120609761D01*
X157307261Y-120657380D01*
X157450119Y-120657380D01*
X156259642Y-120657380D02*
X156259642Y-120133571D01*
X156307261Y-120038333D01*
X156402500Y-119990714D01*
X156592976Y-119990714D01*
X156688214Y-120038333D01*
X156259642Y-120609761D02*
X156354880Y-120657380D01*
X156592976Y-120657380D01*
X156688214Y-120609761D01*
X156735833Y-120514523D01*
X156735833Y-120419285D01*
X156688214Y-120324047D01*
X156592976Y-120276428D01*
X156354880Y-120276428D01*
X156259642Y-120228809D01*
X155354880Y-120657380D02*
X155354880Y-119657380D01*
X155354880Y-120609761D02*
X155450119Y-120657380D01*
X155640595Y-120657380D01*
X155735833Y-120609761D01*
X155783452Y-120562142D01*
X155831071Y-120466904D01*
X155831071Y-120181190D01*
X155783452Y-120085952D01*
X155735833Y-120038333D01*
X155640595Y-119990714D01*
X155450119Y-119990714D01*
X155354880Y-120038333D01*
X154878690Y-120276428D02*
X154116785Y-120276428D01*
X153640595Y-120657380D02*
X153640595Y-119657380D01*
X153545357Y-120276428D02*
X153259642Y-120657380D01*
X153259642Y-119990714D02*
X153640595Y-120371666D01*
X152831071Y-120657380D02*
X152831071Y-119990714D01*
X152831071Y-119657380D02*
X152878690Y-119705000D01*
X152831071Y-119752619D01*
X152783452Y-119705000D01*
X152831071Y-119657380D01*
X152831071Y-119752619D01*
X151926309Y-120609761D02*
X152021547Y-120657380D01*
X152212023Y-120657380D01*
X152307261Y-120609761D01*
X152354880Y-120562142D01*
X152402500Y-120466904D01*
X152402500Y-120181190D01*
X152354880Y-120085952D01*
X152307261Y-120038333D01*
X152212023Y-119990714D01*
X152021547Y-119990714D01*
X151926309Y-120038333D01*
X151069166Y-120657380D02*
X151069166Y-120133571D01*
X151116785Y-120038333D01*
X151212023Y-119990714D01*
X151402500Y-119990714D01*
X151497738Y-120038333D01*
X151069166Y-120609761D02*
X151164404Y-120657380D01*
X151402500Y-120657380D01*
X151497738Y-120609761D01*
X151545357Y-120514523D01*
X151545357Y-120419285D01*
X151497738Y-120324047D01*
X151402500Y-120276428D01*
X151164404Y-120276428D01*
X151069166Y-120228809D01*
X150164404Y-120657380D02*
X150164404Y-119657380D01*
X150164404Y-120609761D02*
X150259642Y-120657380D01*
X150450119Y-120657380D01*
X150545357Y-120609761D01*
X150592976Y-120562142D01*
X150640595Y-120466904D01*
X150640595Y-120181190D01*
X150592976Y-120085952D01*
X150545357Y-120038333D01*
X150450119Y-119990714D01*
X150259642Y-119990714D01*
X150164404Y-120038333D01*
X189735833Y-122307380D02*
X189735833Y-121307380D01*
X189735833Y-122259761D02*
X189831071Y-122307380D01*
X190021547Y-122307380D01*
X190116785Y-122259761D01*
X190164404Y-122212142D01*
X190212023Y-122116904D01*
X190212023Y-121831190D01*
X190164404Y-121735952D01*
X190116785Y-121688333D01*
X190021547Y-121640714D01*
X189831071Y-121640714D01*
X189735833Y-121688333D01*
X188878690Y-122259761D02*
X188973928Y-122307380D01*
X189164404Y-122307380D01*
X189259642Y-122259761D01*
X189307261Y-122164523D01*
X189307261Y-121783571D01*
X189259642Y-121688333D01*
X189164404Y-121640714D01*
X188973928Y-121640714D01*
X188878690Y-121688333D01*
X188831071Y-121783571D01*
X188831071Y-121878809D01*
X189307261Y-121974047D01*
X188497738Y-121640714D02*
X188259642Y-122307380D01*
X188021547Y-121640714D01*
X187021547Y-121831190D02*
X187069166Y-121783571D01*
X187164404Y-121735952D01*
X187259642Y-121735952D01*
X187354880Y-121783571D01*
X187402500Y-121831190D01*
X187450119Y-121926428D01*
X187450119Y-122021666D01*
X187402500Y-122116904D01*
X187354880Y-122164523D01*
X187259642Y-122212142D01*
X187164404Y-122212142D01*
X187069166Y-122164523D01*
X187021547Y-122116904D01*
X187021547Y-121735952D02*
X187021547Y-122116904D01*
X186973928Y-122164523D01*
X186926309Y-122164523D01*
X186831071Y-122116904D01*
X186783452Y-122021666D01*
X186783452Y-121783571D01*
X186878690Y-121640714D01*
X187021547Y-121545476D01*
X187212023Y-121497857D01*
X187402500Y-121545476D01*
X187545357Y-121640714D01*
X187640595Y-121783571D01*
X187688214Y-121974047D01*
X187640595Y-122164523D01*
X187545357Y-122307380D01*
X187402500Y-122402619D01*
X187212023Y-122450238D01*
X187021547Y-122402619D01*
X186878690Y-122307380D01*
X186354880Y-122307380D02*
X186354880Y-121307380D01*
X185926309Y-122307380D02*
X185926309Y-121783571D01*
X185973928Y-121688333D01*
X186069166Y-121640714D01*
X186212023Y-121640714D01*
X186307261Y-121688333D01*
X186354880Y-121735952D01*
X185307261Y-122307380D02*
X185402500Y-122259761D01*
X185450119Y-122212142D01*
X185497738Y-122116904D01*
X185497738Y-121831190D01*
X185450119Y-121735952D01*
X185402500Y-121688333D01*
X185307261Y-121640714D01*
X185164404Y-121640714D01*
X185069166Y-121688333D01*
X185021547Y-121735952D01*
X184973928Y-121831190D01*
X184973928Y-122116904D01*
X185021547Y-122212142D01*
X185069166Y-122259761D01*
X185164404Y-122307380D01*
X185307261Y-122307380D01*
X184688214Y-121640714D02*
X184307261Y-121640714D01*
X184545357Y-121307380D02*
X184545357Y-122164523D01*
X184497738Y-122259761D01*
X184402500Y-122307380D01*
X184307261Y-122307380D01*
X183973928Y-122307380D02*
X183973928Y-121307380D01*
X183878690Y-121926428D02*
X183592976Y-122307380D01*
X183592976Y-121640714D02*
X183973928Y-122021666D01*
X182783452Y-122259761D02*
X182878690Y-122307380D01*
X183069166Y-122307380D01*
X183164404Y-122259761D01*
X183212023Y-122164523D01*
X183212023Y-121783571D01*
X183164404Y-121688333D01*
X183069166Y-121640714D01*
X182878690Y-121640714D01*
X182783452Y-121688333D01*
X182735833Y-121783571D01*
X182735833Y-121878809D01*
X183212023Y-121974047D01*
X182402500Y-121640714D02*
X182164404Y-122307380D01*
X181926309Y-121640714D02*
X182164404Y-122307380D01*
X182259642Y-122545476D01*
X182307261Y-122593095D01*
X182402500Y-122640714D01*
X181592976Y-122259761D02*
X181497738Y-122307380D01*
X181307261Y-122307380D01*
X181212023Y-122259761D01*
X181164404Y-122164523D01*
X181164404Y-122116904D01*
X181212023Y-122021666D01*
X181307261Y-121974047D01*
X181450119Y-121974047D01*
X181545357Y-121926428D01*
X181592976Y-121831190D01*
X181592976Y-121783571D01*
X181545357Y-121688333D01*
X181450119Y-121640714D01*
X181307261Y-121640714D01*
X181212023Y-121688333D01*
X180592976Y-122307380D02*
X180688214Y-122259761D01*
X180735833Y-122212142D01*
X180783452Y-122116904D01*
X180783452Y-121831190D01*
X180735833Y-121735952D01*
X180688214Y-121688333D01*
X180592976Y-121640714D01*
X180450119Y-121640714D01*
X180354880Y-121688333D01*
X180307261Y-121735952D01*
X180259642Y-121831190D01*
X180259642Y-122116904D01*
X180307261Y-122212142D01*
X180354880Y-122259761D01*
X180450119Y-122307380D01*
X180592976Y-122307380D01*
X179973928Y-121640714D02*
X179592976Y-121640714D01*
X179831071Y-122307380D02*
X179831071Y-121450238D01*
X179783452Y-121355000D01*
X179688214Y-121307380D01*
X179592976Y-121307380D01*
X179402500Y-121640714D02*
X179021547Y-121640714D01*
X179259642Y-121307380D02*
X179259642Y-122164523D01*
X179212023Y-122259761D01*
X179116785Y-122307380D01*
X179021547Y-122307380D01*
X178688214Y-122212142D02*
X178640595Y-122259761D01*
X178688214Y-122307380D01*
X178735833Y-122259761D01*
X178688214Y-122212142D01*
X178688214Y-122307380D01*
X178212023Y-121640714D02*
X178212023Y-122307380D01*
X178212023Y-121735952D02*
X178164404Y-121688333D01*
X178069166Y-121640714D01*
X177926309Y-121640714D01*
X177831071Y-121688333D01*
X177783452Y-121783571D01*
X177783452Y-122307380D01*
X176926309Y-122259761D02*
X177021547Y-122307380D01*
X177212023Y-122307380D01*
X177307261Y-122259761D01*
X177354880Y-122164523D01*
X177354880Y-121783571D01*
X177307261Y-121688333D01*
X177212023Y-121640714D01*
X177021547Y-121640714D01*
X176926309Y-121688333D01*
X176878690Y-121783571D01*
X176878690Y-121878809D01*
X177354880Y-121974047D01*
X176592976Y-121640714D02*
X176212023Y-121640714D01*
X176450119Y-121307380D02*
X176450119Y-122164523D01*
X176402500Y-122259761D01*
X176307261Y-122307380D01*
X176212023Y-122307380D01*
X153818071Y-75800000D02*
X153894261Y-75761904D01*
X154008547Y-75761904D01*
X154122833Y-75800000D01*
X154199023Y-75876190D01*
X154237119Y-75952380D01*
X154275214Y-76104761D01*
X154275214Y-76219047D01*
X154237119Y-76371428D01*
X154199023Y-76447619D01*
X154122833Y-76523809D01*
X154008547Y-76561904D01*
X153932357Y-76561904D01*
X153818071Y-76523809D01*
X153779976Y-76485714D01*
X153779976Y-76219047D01*
X153932357Y-76219047D01*
X153437119Y-76561904D02*
X153437119Y-75761904D01*
X152979976Y-76561904D01*
X152979976Y-75761904D01*
X152599023Y-76561904D02*
X152599023Y-75761904D01*
X152408547Y-75761904D01*
X152294261Y-75800000D01*
X152218071Y-75876190D01*
X152179976Y-75952380D01*
X152141880Y-76104761D01*
X152141880Y-76219047D01*
X152179976Y-76371428D01*
X152218071Y-76447619D01*
X152294261Y-76523809D01*
X152408547Y-76561904D01*
X152599023Y-76561904D01*
X145558880Y-76561904D02*
X145825547Y-76180952D01*
X146016023Y-76561904D02*
X146016023Y-75761904D01*
X145711261Y-75761904D01*
X145635071Y-75800000D01*
X145596976Y-75838095D01*
X145558880Y-75914285D01*
X145558880Y-76028571D01*
X145596976Y-76104761D01*
X145635071Y-76142857D01*
X145711261Y-76180952D01*
X146016023Y-76180952D01*
X145254119Y-76523809D02*
X145139833Y-76561904D01*
X144949357Y-76561904D01*
X144873166Y-76523809D01*
X144835071Y-76485714D01*
X144796976Y-76409523D01*
X144796976Y-76333333D01*
X144835071Y-76257142D01*
X144873166Y-76219047D01*
X144949357Y-76180952D01*
X145101738Y-76142857D01*
X145177928Y-76104761D01*
X145216023Y-76066666D01*
X145254119Y-75990476D01*
X145254119Y-75914285D01*
X145216023Y-75838095D01*
X145177928Y-75800000D01*
X145101738Y-75761904D01*
X144911261Y-75761904D01*
X144796976Y-75800000D01*
X144568404Y-75761904D02*
X144111261Y-75761904D01*
X144339833Y-76561904D02*
X144339833Y-75761904D01*
X154694261Y-74021904D02*
X154694261Y-73221904D01*
X154427595Y-73793333D01*
X154160928Y-73221904D01*
X154160928Y-74021904D01*
X153627595Y-73221904D02*
X153475214Y-73221904D01*
X153399023Y-73260000D01*
X153322833Y-73336190D01*
X153284738Y-73488571D01*
X153284738Y-73755238D01*
X153322833Y-73907619D01*
X153399023Y-73983809D01*
X153475214Y-74021904D01*
X153627595Y-74021904D01*
X153703785Y-73983809D01*
X153779976Y-73907619D01*
X153818071Y-73755238D01*
X153818071Y-73488571D01*
X153779976Y-73336190D01*
X153703785Y-73260000D01*
X153627595Y-73221904D01*
X152979976Y-73983809D02*
X152865690Y-74021904D01*
X152675214Y-74021904D01*
X152599023Y-73983809D01*
X152560928Y-73945714D01*
X152522833Y-73869523D01*
X152522833Y-73793333D01*
X152560928Y-73717142D01*
X152599023Y-73679047D01*
X152675214Y-73640952D01*
X152827595Y-73602857D01*
X152903785Y-73564761D01*
X152941880Y-73526666D01*
X152979976Y-73450476D01*
X152979976Y-73374285D01*
X152941880Y-73298095D01*
X152903785Y-73260000D01*
X152827595Y-73221904D01*
X152637119Y-73221904D01*
X152522833Y-73260000D01*
X152179976Y-74021904D02*
X152179976Y-73221904D01*
X146054119Y-73983809D02*
X145939833Y-74021904D01*
X145749357Y-74021904D01*
X145673166Y-73983809D01*
X145635071Y-73945714D01*
X145596976Y-73869523D01*
X145596976Y-73793333D01*
X145635071Y-73717142D01*
X145673166Y-73679047D01*
X145749357Y-73640952D01*
X145901738Y-73602857D01*
X145977928Y-73564761D01*
X146016023Y-73526666D01*
X146054119Y-73450476D01*
X146054119Y-73374285D01*
X146016023Y-73298095D01*
X145977928Y-73260000D01*
X145901738Y-73221904D01*
X145711261Y-73221904D01*
X145596976Y-73260000D01*
X144796976Y-73945714D02*
X144835071Y-73983809D01*
X144949357Y-74021904D01*
X145025547Y-74021904D01*
X145139833Y-73983809D01*
X145216023Y-73907619D01*
X145254119Y-73831428D01*
X145292214Y-73679047D01*
X145292214Y-73564761D01*
X145254119Y-73412380D01*
X145216023Y-73336190D01*
X145139833Y-73260000D01*
X145025547Y-73221904D01*
X144949357Y-73221904D01*
X144835071Y-73260000D01*
X144796976Y-73298095D01*
X144454119Y-74021904D02*
X144454119Y-73221904D01*
X143996976Y-74021904D02*
X144339833Y-73564761D01*
X143996976Y-73221904D02*
X144454119Y-73679047D01*
X154199023Y-70681904D02*
X153932357Y-71481904D01*
X153665690Y-70681904D01*
X152941880Y-71405714D02*
X152979976Y-71443809D01*
X153094261Y-71481904D01*
X153170452Y-71481904D01*
X153284738Y-71443809D01*
X153360928Y-71367619D01*
X153399023Y-71291428D01*
X153437119Y-71139047D01*
X153437119Y-71024761D01*
X153399023Y-70872380D01*
X153360928Y-70796190D01*
X153284738Y-70720000D01*
X153170452Y-70681904D01*
X153094261Y-70681904D01*
X152979976Y-70720000D01*
X152941880Y-70758095D01*
X152141880Y-71405714D02*
X152179976Y-71443809D01*
X152294261Y-71481904D01*
X152370452Y-71481904D01*
X152484738Y-71443809D01*
X152560928Y-71367619D01*
X152599023Y-71291428D01*
X152637119Y-71139047D01*
X152637119Y-71024761D01*
X152599023Y-70872380D01*
X152560928Y-70796190D01*
X152484738Y-70720000D01*
X152370452Y-70681904D01*
X152294261Y-70681904D01*
X152179976Y-70720000D01*
X152141880Y-70758095D01*
X146016023Y-71481904D02*
X146016023Y-70681904D01*
X145749357Y-71253333D01*
X145482690Y-70681904D01*
X145482690Y-71481904D01*
X145101738Y-71481904D02*
X145101738Y-70681904D01*
X144758880Y-71443809D02*
X144644595Y-71481904D01*
X144454119Y-71481904D01*
X144377928Y-71443809D01*
X144339833Y-71405714D01*
X144301738Y-71329523D01*
X144301738Y-71253333D01*
X144339833Y-71177142D01*
X144377928Y-71139047D01*
X144454119Y-71100952D01*
X144606500Y-71062857D01*
X144682690Y-71024761D01*
X144720785Y-70986666D01*
X144758880Y-70910476D01*
X144758880Y-70834285D01*
X144720785Y-70758095D01*
X144682690Y-70720000D01*
X144606500Y-70681904D01*
X144416023Y-70681904D01*
X144301738Y-70720000D01*
X143806500Y-70681904D02*
X143654119Y-70681904D01*
X143577928Y-70720000D01*
X143501738Y-70796190D01*
X143463642Y-70948571D01*
X143463642Y-71215238D01*
X143501738Y-71367619D01*
X143577928Y-71443809D01*
X143654119Y-71481904D01*
X143806500Y-71481904D01*
X143882690Y-71443809D01*
X143958880Y-71367619D01*
X143996976Y-71215238D01*
X143996976Y-70948571D01*
X143958880Y-70796190D01*
X143882690Y-70720000D01*
X143806500Y-70681904D01*
%LPC*%
D11*
X109676000Y-80344000D03*
X109676000Y-90344000D03*
X109676000Y-85344000D03*
D12*
X112776000Y-93644000D03*
X112776000Y-77044000D03*
D11*
X112276000Y-82844000D03*
X112276000Y-87844000D03*
D13*
X196596000Y-101600000D03*
X196596000Y-99060000D03*
D14*
X196596000Y-96520000D03*
D15*
X190260000Y-125984000D03*
X175260000Y-125984000D03*
D16*
X200660000Y-86360000D03*
X200660000Y-111760000D03*
D17*
X110372000Y-126740000D03*
X200372000Y-126740000D03*
X200372000Y-71740000D03*
X110372000Y-71740000D03*
D18*
X164592000Y-78740000D03*
X172212000Y-86360000D03*
X167132000Y-78740000D03*
X169672000Y-86360000D03*
X169672000Y-78740000D03*
X167132000Y-86360000D03*
X172212000Y-78740000D03*
D19*
X164592000Y-86360000D03*
D20*
X112388000Y-102108000D03*
X114888000Y-102108000D03*
X117388000Y-102108000D03*
G36*
G01*
X120738000Y-101383000D02*
X120738000Y-102833000D01*
G75*
G02*
X120488000Y-103083000I-250000J0D01*
G01*
X119288000Y-103083000D01*
G75*
G02*
X119038000Y-102833000I0J250000D01*
G01*
X119038000Y-101383000D01*
G75*
G02*
X119288000Y-101133000I250000J0D01*
G01*
X120488000Y-101133000D01*
G75*
G02*
X120738000Y-101383000I0J-250000D01*
G01*
G37*
D21*
X124928000Y-69596000D03*
G36*
G01*
X121578000Y-70346000D02*
X121578000Y-68846000D01*
G75*
G02*
X121828000Y-68596000I250000J0D01*
G01*
X123028000Y-68596000D01*
G75*
G02*
X123278000Y-68846000I0J-250000D01*
G01*
X123278000Y-70346000D01*
G75*
G02*
X123028000Y-70596000I-250000J0D01*
G01*
X121828000Y-70596000D01*
G75*
G02*
X121578000Y-70346000I0J250000D01*
G01*
G37*
D22*
X132080000Y-112468000D03*
X132080000Y-117348000D03*
D23*
X156464000Y-70104000D03*
X155448000Y-75184000D03*
X157480000Y-75184000D03*
D24*
X150368000Y-76200000D03*
X147828000Y-76200000D03*
X150368000Y-73660000D03*
X147828000Y-73660000D03*
X150368000Y-71120000D03*
D25*
X147828000Y-71120000D03*
D26*
X112130000Y-109062000D03*
X112130000Y-121102000D03*
D27*
X114840000Y-116332000D03*
X114840000Y-113832000D03*
X116840000Y-113832000D03*
D25*
X116840000Y-116332000D03*
D28*
X163068000Y-127936000D03*
D29*
X163068000Y-122936000D03*
M02*
